<?xml version="1.0" encoding="UTF-8"?><svg id="Layer_1" xmlns="http://www.w3.org/2000/svg" viewBox="0 0 1596.22 705.44"><defs><style>.cls-1{fill:#000;}.cls-1,.cls-2,.cls-3,.cls-4{stroke-width:0px;}.cls-2{fill:#4285f4;}.cls-5{fill:#eee;stroke:#000;stroke-linejoin:round;stroke-width:3.44px;}.cls-3{fill:#188038;}.cls-6{isolation:isolate;}.cls-4{fill:#fff;}</style></defs><rect class="cls-2" x="887.22" y="217.22" width="709" height="269"/><g class="cls-6"><path class="cls-4" d="M947.24,342.16v23.74h8.54v5.32h-23.96v-5.32h8.94v-18.4h-8.94v-5.34h15.42ZM940.45,333.21c.18-.44.44-.82.78-1.14.32-.3.71-.54,1.17-.71.46-.17.97-.25,1.54-.25.97,0,1.75.25,2.35.74s.94,1.12,1.03,1.89c.12.79,0,1.47-.4,2.05s-.97.97-1.72,1.17c-.38.34-.82.56-1.34.67s-1.09.06-1.72-.13c-.64-.2-1.13-.55-1.46-1.06s-.5-1.11-.5-1.79c0-.52.09-1,.27-1.44h0Z"/><path class="cls-4" d="M963.36,342.16h5.8l.4,4.14c.39-.55.83-1.07,1.3-1.54s.98-.9,1.52-1.28c.86-.59,1.8-1.05,2.82-1.37s2.09-.48,3.22-.48c1.49,0,2.85.21,4.08.64s2.29,1.11,3.17,2.04,1.56,2.12,2.04,3.56.72,3.18.72,5.22v18.13h-6.42v-18.02c0-1.2-.13-2.2-.4-3.01s-.66-1.45-1.18-1.93-1.15-.83-1.88-1.03-1.58-.31-2.52-.31c-.79,0-1.52.1-2.2.31s-1.3.5-1.85.87c-.43.29-.83.64-1.21,1.05s-.71.86-.99,1.34v20.73h-6.42v-29.06h0Z"/><path class="cls-4" d="M1015.01,362.01c-.22-.39-.59-.77-1.11-1.13-.55-.32-1.28-.63-2.17-.91-.9-.29-2.01-.56-3.36-.81-1.68-.34-3.22-.76-4.61-1.26s-2.58-1.11-3.58-1.83c-.99-.68-1.75-1.49-2.31-2.42s-.83-2.01-.83-3.25.28-2.31.85-3.37c.56-1.06,1.37-2,2.43-2.81,1.04-.8,2.3-1.44,3.77-1.91,1.48-.47,3.12-.7,4.93-.7,1.93,0,3.67.24,5.21.71s2.85,1.12,3.92,1.95c1.06.82,1.87,1.8,2.44,2.93s.86,2.35.86,3.65h-6.42c0-.54-.11-1.05-.34-1.54-.22-.49-.55-.94-.98-1.33-.5-.46-1.15-.84-1.93-1.11-.79-.28-1.71-.42-2.77-.42-.97,0-1.81.1-2.54.31-.72.21-1.32.49-1.79.85-.47.32-.82.7-1.05,1.14s-.35.9-.35,1.38.1.95.29,1.36c.2.4.55.76,1.05,1.06.46.32,1.11.62,1.95.89.83.27,1.88.51,3.16.73,1.77.32,3.39.72,4.86,1.18s2.72,1.04,3.76,1.72c1.04.72,1.84,1.56,2.42,2.52s.86,2.11.86,3.44-.3,2.47-.9,3.54-1.45,2-2.54,2.77c-1.11.77-2.43,1.37-3.97,1.8s-3.25.64-5.13.64c-2.09,0-3.95-.28-5.57-.83s-2.98-1.29-4.07-2.2c-1.11-.9-1.95-1.92-2.52-3.09-.57-1.16-.86-2.35-.86-3.54h6.23c.05.89.29,1.65.71,2.27.42.62.95,1.11,1.6,1.49.63.39,1.34.68,2.15.85s1.62.25,2.44.25c1.11,0,2.08-.12,2.91-.35.83-.23,1.5-.55,2-.94.41-.32.72-.68.93-1.06s.31-.81.31-1.28c0-.5-.11-.95-.34-1.34h0Z"/><path class="cls-4" d="M1042.26,342.16h10.93v4.81h-10.93v13.88c0,1.07.13,1.97.39,2.7.26.72.62,1.29,1.09,1.71.46.43,1.02.73,1.67.91s1.35.27,2.12.27c.55,0,1.13-.03,1.72-.08s1.16-.12,1.72-.21c.54-.07,1.04-.16,1.52-.25.47-.1.87-.18,1.2-.25l.7,4.43c-.47.29-1.03.53-1.68.74s-1.36.38-2.11.52-1.54.25-2.35.34c-.81.08-1.62.12-2.43.12-1.47,0-2.82-.2-4.04-.6-1.23-.4-2.28-1.03-3.16-1.89-.88-.84-1.56-1.92-2.05-3.25-.49-1.32-.74-2.92-.74-4.78v-14.29h-7.04v-4.81h7.04v-7.09h6.45v7.09l-.02-.02Z"/><path class="cls-4" d="M1080.46,369.92c-.12-.51-.22-1.04-.31-1.6-.45.47-.95.91-1.52,1.33-.56.42-1.2.78-1.89,1.09-.7.32-1.45.57-2.26.75s-1.67.27-2.6.27c-1.5,0-2.88-.22-4.12-.66s-2.3-1.04-3.18-1.81c-.9-.75-1.59-1.66-2.08-2.73s-.74-2.22-.74-3.45c0-1.59.32-3,.95-4.23.64-1.23,1.56-2.24,2.78-3.05,1.13-.75,2.52-1.32,4.18-1.72,1.66-.39,3.53-.59,5.63-.59h4.67v-1.96c0-.75-.13-1.43-.39-2.04s-.63-1.14-1.11-1.58c-.52-.45-1.15-.79-1.89-1.03-.74-.24-1.6-.36-2.56-.36-.88,0-1.64.11-2.3.32s-1.2.51-1.62.89c-.43.34-.75.76-.95,1.25s-.31,1.02-.31,1.57h-6.45c.02-1.16.29-2.28.83-3.36s1.33-2.02,2.36-2.85c1-.84,2.24-1.51,3.72-2s3.16-.74,5.06-.74c1.7,0,3.29.21,4.77.63s2.75,1.04,3.83,1.87c1.07.82,1.92,1.87,2.52,3.13.61,1.26.91,2.72.91,4.36v12.92c0,1.31.09,2.48.28,3.53.19,1.05.46,1.95.82,2.7v.46h-6.55c-.2-.36-.35-.79-.47-1.3h0ZM1075.46,366.28c.72-.21,1.38-.49,1.97-.83s1.1-.73,1.53-1.16.76-.88.99-1.34v-5.37h-4.14c-1.4,0-2.6.13-3.62.39s-1.84.63-2.44,1.11c-.54.41-.94.9-1.2,1.48-.26.57-.39,1.22-.39,1.93,0,.59.11,1.14.32,1.65s.53.94.94,1.3c.41.36.92.64,1.53.85.61.21,1.32.31,2.15.31s1.62-.11,2.35-.32h.01Z"/><path class="cls-4" d="M1112.27,329.97v35.93h8.81v5.32h-24.47v-5.32h9.18v-30.59h-9.18v-5.34h15.66,0Z"/><path class="cls-4" d="M1145.28,329.97v35.93h8.81v5.32h-24.46v-5.32h9.18v-30.59h-9.18v-5.34h15.66-.01Z"/><path class="cls-4" d="M1164.07,356.64v-5.21h21.62v5.21h-21.62Z"/><path class="cls-4" d="M1209.37,366.24c.74-.24,1.4-.59,1.97-1.03.55-.45,1-.98,1.33-1.58.33-.61.5-1.28.5-2.01h6.04c.02,1.41-.3,2.74-.95,3.99-.65,1.24-1.54,2.31-2.64,3.21-1.13.93-2.42,1.66-3.88,2.19s-2.99.79-4.61.79c-2.24,0-4.19-.39-5.87-1.17-1.67-.78-3.07-1.83-4.18-3.16-1.13-1.33-1.98-2.87-2.55-4.63-.57-1.76-.86-3.65-.86-5.65v-.94c0-1.99.28-3.87.85-5.64.56-1.77,1.41-3.32,2.54-4.65,1.13-1.32,2.53-2.38,4.2-3.16,1.67-.78,3.62-1.17,5.84-1.17,1.75,0,3.38.27,4.87.81,1.5.54,2.78,1.29,3.85,2.26s1.91,2.12,2.51,3.46.89,2.82.87,4.43h-6.04c0-.79-.15-1.53-.44-2.23-.29-.7-.71-1.31-1.25-1.83-.56-.52-1.21-.93-1.97-1.23s-1.58-.46-2.46-.46c-1.34,0-2.46.27-3.34.82-.89.55-1.59,1.26-2.11,2.13-.56.88-.94,1.88-1.17,3.01-.22,1.13-.33,2.27-.33,3.44v.94c0,1.18.11,2.34.33,3.48.22,1.14.6,2.13,1.14,2.99.52.9,1.23,1.61,2.12,2.15.89.54,2.01.81,3.36.81.81,0,1.58-.12,2.32-.36h.01Z"/><path class="cls-4" d="M1227.13,350.55c.61-1.8,1.5-3.36,2.66-4.69,1.15-1.33,2.55-2.36,4.22-3.12s3.56-1.13,5.69-1.13,4.03.38,5.71,1.13,3.09,1.79,4.26,3.12c1.15,1.33,2.02,2.89,2.63,4.69s.91,3.75.91,5.87v.56c0,2.13-.3,4.09-.91,5.88s-1.49,3.35-2.63,4.67c-1.15,1.33-2.56,2.36-4.23,3.12-1.67.75-3.57,1.13-5.68,1.13s-4.04-.38-5.72-1.13c-1.68-.75-3.1-1.79-4.24-3.12-1.16-1.32-2.05-2.88-2.66-4.67s-.91-3.75-.91-5.88v-.56c0-2.11.3-4.07.91-5.87h0ZM1233.05,360.69c.28,1.16.71,2.18,1.3,3.06.57.88,1.31,1.57,2.2,2.08.89.51,1.96.77,3.2.77s2.25-.25,3.14-.77c.89-.51,1.63-1.2,2.2-2.08s1-1.9,1.28-3.06.42-2.4.42-3.71v-.56c0-1.27-.14-2.49-.43-3.65-.29-1.16-.71-2.18-1.26-3.06-.59-.88-1.33-1.58-2.22-2.09-.89-.52-1.95-.78-3.18-.78s-2.27.26-3.16.78-1.62,1.22-2.19,2.09c-.59.88-1.03,1.9-1.3,3.06-.28,1.16-.42,2.38-.42,3.65v.56c0,1.31.14,2.54.42,3.71h0Z"/><path class="cls-4" d="M1260.41,342.16h5.8l.4,4.14c.39-.55.83-1.07,1.3-1.54s.98-.9,1.52-1.28c.86-.59,1.8-1.05,2.82-1.37s2.09-.48,3.22-.48c1.49,0,2.85.21,4.08.64s2.29,1.11,3.17,2.04,1.56,2.12,2.04,3.56.73,3.18.73,5.22v18.13h-6.42v-18.02c0-1.2-.13-2.2-.4-3.01s-.66-1.45-1.18-1.93-1.15-.83-1.88-1.03c-.73-.21-1.58-.31-2.52-.31-.79,0-1.52.1-2.2.31-.68.21-1.3.5-1.85.87-.43.29-.83.64-1.21,1.05s-.71.86-.99,1.34v20.73h-6.42v-29.06h-.01Z"/><path class="cls-4" d="M1300.71,346.97h-7.79v-4.81h7.79v-1.77c0-1.9.29-3.57.87-5.01s1.41-2.65,2.48-3.64c1.07-.97,2.37-1.7,3.88-2.2s3.21-.75,5.09-.75c.66,0,1.31.03,1.95.09.63.06,1.26.14,1.87.23.5.07,1.01.16,1.53.25.52.1,1.05.2,1.58.31l-.51,5.13c-.72-.2-1.53-.37-2.43-.51s-1.93-.21-3.08-.21-2.23.14-3.1.43-1.58.71-2.14,1.26c-.52.52-.91,1.16-1.17,1.93s-.39,1.67-.39,2.69v1.77h10.77v4.81h-10.77v24.25h-6.45v-24.25h.02Z"/><path class="cls-4" d="M1343.31,342.16v23.74h8.54v5.32h-23.96v-5.32h8.94v-18.4h-8.94v-5.34h15.42,0ZM1336.51,333.21c.18-.44.44-.82.78-1.14.32-.3.71-.54,1.17-.71.46-.17.97-.25,1.54-.25.97,0,1.75.25,2.35.74s.94,1.12,1.03,1.89c.12.79,0,1.47-.4,2.05s-.97.97-1.72,1.17c-.38.34-.82.56-1.34.67s-1.09.06-1.72-.13c-.64-.2-1.13-.55-1.46-1.06s-.5-1.11-.5-1.79c0-.52.09-1,.27-1.44h0Z"/><path class="cls-4" d="M1359.39,350.45c.54-1.82,1.32-3.38,2.34-4.69s2.25-2.32,3.69-3.05,3.07-1.09,4.87-1.09c1.07,0,2.05.11,2.93.34s1.67.55,2.39.98c.46.27.9.59,1.32.95s.8.76,1.16,1.19l.27-2.93h5.83v28.25c0,1.95-.32,3.68-.95,5.2s-1.53,2.8-2.67,3.85c-1.16,1.04-2.56,1.83-4.18,2.38s-3.41.82-5.36.82c-.82,0-1.73-.09-2.71-.27-.99-.18-1.97-.46-2.95-.83-.99-.38-1.92-.87-2.82-1.48s-1.67-1.34-2.31-2.2l3.04-3.89c.52.63,1.08,1.17,1.68,1.62.6.46,1.21.83,1.84,1.12s1.26.5,1.91.63c.64.13,1.3.2,1.96.2,1.15,0,2.16-.16,3.05-.48s1.64-.79,2.27-1.4c.57-.59,1.02-1.32,1.33-2.17.31-.86.47-1.84.47-2.93v-2.01c-.38.39-.77.76-1.17,1.1-.4.34-.84.64-1.3.89-.7.39-1.47.69-2.31.9-.84.21-1.75.31-2.74.31-1.79,0-3.4-.37-4.83-1.11-1.43-.74-2.66-1.78-3.68-3.1-1-1.31-1.78-2.86-2.32-4.66-.55-1.8-.82-3.75-.82-5.84v-.56c0-2.2.27-4.21.81-6.03h-.04ZM1365.42,360.69c.26,1.15.67,2.14,1.25,2.98.55.88,1.26,1.56,2.12,2.05s1.88.74,3.06.74c.73,0,1.4-.08,2-.24s1.14-.38,1.62-.67c.48-.3.91-.67,1.29-1.1s.71-.9.99-1.42v-12.73c-.29-.54-.63-1.02-1.03-1.45s-.86-.8-1.38-1.1c-.47-.25-.99-.45-1.56-.6-.57-.15-1.2-.23-1.88-.23-1.2,0-2.23.25-3.09.75s-1.57,1.19-2.12,2.07c-.57.88-.99,1.89-1.26,3.05s-.4,2.39-.4,3.69v.56c0,1.29.13,2.51.39,3.65h0Z"/><path class="cls-4" d="M1401.62,364.18c.8-.88,1.95-1.32,3.45-1.32s2.61.43,3.44,1.3c.82.87,1.24,1.93,1.24,3.18s-.42,2.3-1.25,3.14-1.97,1.26-3.42,1.26-2.61-.43-3.42-1.28c-.81-.85-1.22-1.89-1.22-3.13s.4-2.29,1.19-3.17v.02Z"/><path class="cls-4" d="M1427.3,382.81c-.56-.1-1.11-.21-1.62-.34l.89-5.02c.36.02.77.04,1.22.07.46.03.83.04,1.11.04.63,0,1.19-.18,1.69-.55s.94-.78,1.32-1.25c.36-.47.65-.88.87-1.24s.43-.73.63-1.13l1.83-3.46-12.38-27.77h7.06l7.22,17.75.99,3.2,1.21-3.12,7.01-17.83h7.12l-14.74,33.46c-.34.75-.77,1.55-1.28,2.4-.51.85-1.15,1.63-1.92,2.35-.77.73-1.68,1.35-2.74,1.84s-2.29.74-3.71.74c-.63,0-1.22-.05-1.79-.15h.01Z"/><path class="cls-4" d="M1476.52,369.92c-.12-.51-.22-1.04-.31-1.6-.45.47-.95.91-1.52,1.33-.56.42-1.2.78-1.89,1.09-.7.32-1.45.57-2.26.75s-1.67.27-2.6.27c-1.5,0-2.88-.22-4.12-.66s-2.3-1.04-3.18-1.81c-.9-.75-1.59-1.66-2.08-2.73s-.74-2.22-.74-3.45c0-1.59.32-3,.95-4.23.64-1.23,1.56-2.24,2.78-3.05,1.13-.75,2.52-1.32,4.18-1.72,1.66-.39,3.53-.59,5.63-.59h4.67v-1.96c0-.75-.13-1.43-.39-2.04s-.63-1.14-1.11-1.58c-.52-.45-1.15-.79-1.89-1.03-.74-.24-1.6-.36-2.56-.36-.88,0-1.64.11-2.3.32s-1.2.51-1.62.89c-.43.34-.75.76-.95,1.25s-.31,1.02-.31,1.57h-6.45c.02-1.16.29-2.28.83-3.36s1.33-2.02,2.36-2.85c1-.84,2.24-1.51,3.72-2s3.16-.74,5.06-.74c1.7,0,3.29.21,4.77.63s2.75,1.04,3.83,1.87c1.07.82,1.92,1.87,2.52,3.13.61,1.26.91,2.72.91,4.36v12.92c0,1.31.09,2.48.28,3.53.19,1.05.46,1.95.82,2.7v.46h-6.55c-.2-.36-.35-.79-.47-1.3h0ZM1471.53,366.28c.72-.21,1.38-.49,1.97-.83s1.1-.73,1.53-1.16.76-.88.99-1.34v-5.37h-4.14c-1.4,0-2.6.13-3.62.39s-1.84.63-2.44,1.11c-.54.41-.94.9-1.2,1.48-.26.57-.39,1.22-.39,1.93,0,.59.11,1.14.32,1.65s.53.94.94,1.3c.41.36.92.64,1.53.85.61.21,1.32.31,2.15.31s1.62-.11,2.35-.32h.01Z"/><path class="cls-4" d="M1495.28,345.36c.55-1.16,1.32-2.08,2.3-2.74.98-.66,2.15-.99,3.53-.99.72,0,1.36.08,1.93.24.57.16,1.07.41,1.48.75.32.25.61.55.86.9.25.35.46.75.64,1.2.25-.41.54-.8.86-1.16s.67-.66,1.05-.91c.48-.32,1.03-.57,1.62-.75s1.26-.27,1.97-.27c.93,0,1.79.16,2.57.47.78.31,1.45.79,2.03,1.44.57.68,1.02,1.56,1.33,2.64.31,1.08.47,2.39.47,3.91v21.13h-5.91v-21.19c0-.57-.06-1.06-.19-1.46-.13-.4-.3-.73-.54-.98-.23-.23-.51-.4-.85-.51-.33-.11-.69-.16-1.09-.16s-.77.05-1.07.16c-.3.11-.57.26-.81.46-.21.18-.39.39-.54.63-.14.24-.25.51-.32.82v22.24h-5.8v-21.22c0-.57-.06-1.06-.17-1.46-.12-.4-.29-.72-.52-.95-.23-.23-.51-.4-.82-.51s-.67-.16-1.06-.16c-.43,0-.81.06-1.14.17-.33.12-.61.29-.85.52-.18.16-.34.35-.47.56s-.26.46-.36.73v22.32h-5.91v-29.06h5.59l.19,3.2h0Z"/><path class="cls-4" d="M1541.34,329.97v35.93h8.81v5.32h-24.46v-5.32h9.18v-30.59h-9.18v-5.34h15.66-.01Z"/></g><path class="cls-1" d="M710.72,349.28h88.35c1.9,0,3.44,1.54,3.44,3.44v.22l-3.44-3.44h65.43v6.87h-65.43c-1.9,0-3.44-1.53-3.44-3.43v-.22l3.44,3.44h-88.35v-6.88ZM859.91,339.19l27.5,13.75-27.5,13.75v-27.5Z"/><rect class="cls-5" x="1.72" y="1.72" width="709" height="702"/><g class="cls-6"><path class="cls-1" d="M176.9,114.92c-3.29,0-6.33-.59-9.12-1.76s-5.25-2.82-7.36-4.93-3.76-4.56-4.93-7.36c-1.17-2.79-1.76-5.81-1.76-9.06s.59-6.26,1.76-9.06c1.17-2.79,2.82-5.25,4.93-7.36,2.11-2.11,4.56-3.75,7.36-4.93,2.79-1.17,5.83-1.76,9.12-1.76,2.26,0,4.47.32,6.62.96,2.15.64,4.16,1.56,6.02,2.75,1.86,1.2,3.47,2.6,4.83,4.22l-5.12,5.06c-1.58-2-3.45-3.52-5.6-4.54-2.16-1.02-4.41-1.54-6.75-1.54-2.18,0-4.19.41-6.05,1.22s-3.48,1.95-4.86,3.42c-1.39,1.47-2.46,3.19-3.23,5.15-.77,1.96-1.15,4.1-1.15,6.4s.38,4.38,1.15,6.37c.77,1.98,1.84,3.71,3.23,5.18s3.01,2.61,4.86,3.42c1.86.81,3.87,1.22,6.05,1.22,2.35,0,4.6-.52,6.75-1.57,2.15-1.04,4.02-2.55,5.6-4.51l5.12,5.06c-1.37,1.62-2.98,3.03-4.83,4.22-1.86,1.19-3.86,2.11-6.02,2.75s-4.36.96-6.62.96v.02Z"/><path class="cls-1" d="M201.16,114.22v-45.89l7.3-1.28v47.17h-7.3Z"/><path class="cls-1" d="M228.23,114.73c-2.18,0-4.1-.49-5.76-1.47s-2.98-2.33-3.94-4.03c-.96-1.71-1.44-3.67-1.44-5.89v-21.18h7.3v19.07c0,2.35.63,4.21,1.89,5.6s2.98,2.08,5.15,2.08c1.49,0,2.82-.32,3.97-.96,1.15-.64,2.15-1.6,3.01-2.88v-22.91h7.23v32.06h-7.23v-5.18c-1.24,1.88-2.71,3.3-4.42,4.26-1.71.96-3.63,1.44-5.76,1.44h0Z"/><path class="cls-1" d="M265.48,114.86c-2.73,0-5.28-.36-7.65-1.09-2.37-.72-4.41-1.81-6.11-3.26l3.39-4.8c2.09,1.28,3.92,2.21,5.5,2.78,1.58.58,3.18.86,4.8.86,1.96,0,3.53-.4,4.7-1.22,1.17-.81,1.76-1.86,1.76-3.14,0-.98-.34-1.76-1.02-2.34s-1.83-1.01-3.46-1.31l-5.63-.96c-3.11-.6-5.44-1.62-6.98-3.07s-2.3-3.39-2.3-5.82c0-1.96.51-3.68,1.54-5.15,1.02-1.47,2.49-2.62,4.38-3.46,1.9-.83,4.06-1.25,6.5-1.25,2.22,0,4.37.32,6.46.96,2.09.64,4.14,1.6,6.14,2.88l-3.39,4.8c-1.62-1.07-3.23-1.85-4.83-2.34-1.6-.49-3.19-.74-4.77-.74-1.71,0-3.06.33-4.06.99s-1.5,1.57-1.5,2.72c0,1.02.33,1.8.99,2.34.66.53,1.82.93,3.49,1.18l5.7,1.09c3.24.56,5.63,1.57,7.17,3.04s2.3,3.42,2.3,5.86c0,1.96-.57,3.73-1.7,5.31s-2.69,2.83-4.67,3.74c-1.98.92-4.23,1.38-6.75,1.38v.02Z"/><path class="cls-1" d="M298.44,114.86c-3.24,0-5.7-.76-7.36-2.27s-2.5-3.77-2.5-6.75v-17.98h-6.4v-5.7h6.4v-8.77l7.23-1.6v10.37h8.96v5.7h-8.96v16.45c0,1.58.34,2.7,1.02,3.36.68.66,1.83.99,3.46.99.72,0,1.4-.05,2.02-.16.62-.11,1.4-.31,2.34-.61v6.08c-.9.3-1.92.52-3.07.67-1.15.15-2.2.22-3.14.22h0Z"/><path class="cls-1" d="M325.51,114.86c-3.07,0-5.85-.74-8.32-2.21s-4.44-3.47-5.89-5.98c-1.45-2.52-2.18-5.33-2.18-8.45s.68-5.98,2.05-8.48c1.36-2.5,3.23-4.47,5.6-5.92s5.02-2.18,7.97-2.18,5.5.71,7.81,2.14c2.3,1.43,4.12,3.39,5.44,5.89s1.98,5.34,1.98,8.54v1.79h-23.74c.26,1.71.82,3.23,1.7,4.58.87,1.34,2,2.39,3.39,3.14s2.89,1.12,4.51,1.12c1.49,0,2.91-.26,4.26-.77,1.34-.51,2.49-1.24,3.42-2.18l4.67,4.22c-1.92,1.62-3.9,2.82-5.95,3.58-2.05.77-4.29,1.15-6.72,1.15v.02ZM316.29,95.53h16.77c-.21-1.62-.73-3.02-1.54-4.19s-1.8-2.11-2.98-2.82c-1.17-.7-2.46-1.06-3.87-1.06s-2.7.34-3.87,1.02c-1.17.68-2.14,1.61-2.91,2.78s-1.3,2.59-1.6,4.26h0Z"/><path class="cls-1" d="M347.2,114.22v-32.06h7.3v6.91c.94-2.43,2.14-4.29,3.62-5.57,1.47-1.28,3.19-1.92,5.15-1.92.68.04,1.26.1,1.73.16s.96.22,1.47.48v6.4c-.6-.3-1.24-.51-1.92-.64-.68-.13-1.37-.19-2.05-.19-1.75,0-3.32.47-4.7,1.41-1.39.94-2.49,2.26-3.3,3.97v21.06h-7.3Z"/><path class="cls-1" d="M387.71,114.22v-44.8h7.49l23.42,32.64-.19-32.64h7.23v44.8h-6.85l-24.06-33.47.19,33.47h-7.23Z"/><path class="cls-1" d="M444.61,114.73c-2.22,0-4.18-.41-5.89-1.22-1.71-.81-3.05-1.95-4.03-3.42s-1.47-3.17-1.47-5.09.51-3.64,1.54-5.02c1.02-1.39,2.44-2.46,4.26-3.23,1.81-.77,3.98-1.15,6.5-1.15,1.49,0,2.96.16,4.42.48,1.45.32,2.86.84,4.22,1.57v-3.58c0-2.13-.62-3.73-1.86-4.8-1.24-1.07-3.05-1.6-5.44-1.6-1.37,0-2.81.2-4.32.61-1.52.41-3.21,1.04-5.09,1.89l-2.56-5.25c4.69-2.18,9.11-3.26,13.25-3.26s7.48,1.01,9.76,3.04,3.42,4.9,3.42,8.61v20.93h-7.17v-3.33c-1.37,1.32-2.84,2.29-4.42,2.91-1.58.62-3.29.93-5.12.93v-.02ZM440,104.88c0,1.49.59,2.68,1.76,3.55,1.17.88,2.78,1.31,4.83,1.31,1.45,0,2.81-.23,4.06-.7,1.26-.47,2.42-1.15,3.49-2.05v-5.18c-1.11-.51-2.27-.91-3.49-1.18-1.22-.28-2.53-.42-3.94-.42-2.09,0-3.73.43-4.93,1.28-1.2.85-1.79,1.98-1.79,3.39h.01Z"/><path class="cls-1" d="M470.02,114.22v-32.06h7.3v5.06c1.19-1.83,2.59-3.22,4.19-4.16s3.36-1.41,5.28-1.41c2.22,0,4.15.55,5.79,1.66,1.64,1.11,2.87,2.6,3.68,4.48,1.28-2,2.81-3.53,4.58-4.58,1.77-1.04,3.79-1.57,6.05-1.57,2.05,0,3.86.49,5.44,1.47s2.82,2.35,3.71,4.1c.9,1.75,1.34,3.78,1.34,6.08v20.93h-7.3v-19.39c0-2.26-.57-4.05-1.7-5.38-1.13-1.32-2.7-1.98-4.7-1.98-1.28,0-2.45.32-3.52.96-1.07.64-2.03,1.6-2.88,2.88.04.3.06.62.06.96v21.95h-7.17v-19.39c0-2.26-.59-4.05-1.76-5.38-1.17-1.32-2.76-1.98-4.77-1.98-2.6,0-4.71,1.24-6.34,3.71v23.04h-7.3.02Z"/><path class="cls-1" d="M541.06,114.86c-3.07,0-5.85-.74-8.32-2.21-2.47-1.47-4.44-3.47-5.89-5.98-1.45-2.52-2.18-5.33-2.18-8.45s.68-5.98,2.05-8.48c1.36-2.5,3.23-4.47,5.6-5.92s5.02-2.18,7.97-2.18,5.5.71,7.81,2.14c2.3,1.43,4.12,3.39,5.44,5.89s1.98,5.34,1.98,8.54v1.79h-23.74c.26,1.71.82,3.23,1.7,4.58.87,1.34,2,2.39,3.39,3.14s2.89,1.12,4.51,1.12c1.49,0,2.91-.26,4.26-.77,1.34-.51,2.49-1.24,3.42-2.18l4.67,4.22c-1.92,1.62-3.9,2.82-5.95,3.58-2.05.77-4.29,1.15-6.72,1.15v.02ZM531.84,95.53h16.77c-.21-1.62-.73-3.02-1.54-4.19s-1.8-2.11-2.98-2.82c-1.17-.7-2.46-1.06-3.87-1.06s-2.7.34-3.87,1.02-2.14,1.61-2.91,2.78c-.77,1.17-1.3,2.59-1.6,4.26h0Z"/></g><g class="cls-6"><path class="cls-3" d="M283.4,161.33c.48-1.65,1.18-3.07,2.09-4.26.9-1.19,1.99-2.11,3.28-2.77s2.75-.99,4.38-.99c1.46,0,2.75.26,3.85.77,1.1.51,2.07,1.24,2.92,2.18v-13.55h5.83v37.5h-5.3l-.27-2.76c-.85,1.04-1.86,1.84-3.03,2.41-1.17.56-2.52.84-4.05.84-1.61,0-3.06-.34-4.35-1.01s-2.38-1.61-3.27-2.82c-.9-1.19-1.59-2.6-2.08-4.24-.49-1.64-.73-3.41-.73-5.31v-.51c0-2,.24-3.83.72-5.48h0ZM288.85,170.65c.23,1.04.59,1.95,1.07,2.71.49.8,1.11,1.42,1.88,1.87.76.45,1.68.67,2.76.67,1.32,0,2.41-.29,3.27-.87s1.55-1.36,2.08-2.36v-11.35c-.52-.98-1.21-1.75-2.06-2.33s-1.93-.87-3.23-.87c-1.09,0-2.02.23-2.8.68-.77.46-1.4,1.08-1.87,1.88-.5.8-.87,1.72-1.1,2.77s-.34,2.17-.34,3.36v.51c0,1.17.11,2.28.34,3.32h0Z"/><path class="cls-3" d="M328.82,153.8v21.58h7.76v4.83h-21.78v-4.83h8.13v-16.72h-8.13v-4.86h14.02ZM322.64,145.66c.16-.4.4-.74.71-1.04.29-.28.65-.49,1.06-.65.42-.16.88-.23,1.4-.23.88,0,1.59.22,2.14.67.54.45.86,1.02.94,1.72.11.72,0,1.34-.37,1.87-.36.53-.88.88-1.56,1.06-.34.31-.75.51-1.22.61-.47.1-.99.06-1.56-.12-.59-.18-1.03-.5-1.33-.96s-.45-1-.45-1.62c0-.47.08-.91.24-1.31Z"/><path class="cls-3" d="M360.42,171.84c-.2-.36-.54-.7-1.01-1.03-.5-.29-1.16-.57-1.98-.83-.81-.26-1.83-.5-3.05-.73-1.53-.31-2.93-.69-4.19-1.15s-2.35-1.01-3.26-1.66c-.9-.62-1.6-1.35-2.1-2.2s-.76-1.83-.76-2.95.26-2.1.77-3.06c.51-.97,1.25-1.82,2.21-2.55.94-.73,2.09-1.31,3.43-1.73s2.84-.63,4.48-.63c1.76,0,3.34.22,4.74.65s2.59,1.02,3.56,1.77c.96.75,1.7,1.64,2.22,2.66.52,1.03.78,2.13.78,3.32h-5.83c0-.49-.1-.96-.31-1.4-.2-.45-.5-.85-.89-1.21-.46-.42-1.04-.76-1.76-1.01s-1.55-.38-2.51-.38c-.88,0-1.65.09-2.31.28s-1.2.44-1.62.77c-.42.29-.74.64-.95,1.04-.21.4-.32.82-.32,1.26s.09.87.27,1.23c.18.37.5.69.95.96.42.29,1.01.56,1.77.81s1.71.46,2.87.66c1.61.29,3.08.65,4.42,1.07,1.33.42,2.47.94,3.42,1.56.94.65,1.68,1.42,2.2,2.29.52.88.78,1.92.78,3.12s-.27,2.25-.82,3.22c-.55.98-1.31,1.82-2.31,2.51-1.01.7-2.21,1.25-3.61,1.64s-2.95.59-4.66.59c-1.9,0-3.59-.25-5.07-.76-1.47-.5-2.71-1.17-3.7-2-1.01-.81-1.77-1.75-2.29-2.81-.52-1.06-.78-2.13-.78-3.22h5.66c.05.81.26,1.5.65,2.06.38.56.87,1.01,1.45,1.35.57.36,1.22.61,1.95.77s1.47.23,2.22.23c1.01,0,1.89-.11,2.65-.32.76-.21,1.36-.5,1.82-.85.37-.29.65-.61.84-.96s.28-.74.28-1.16c0-.46-.1-.86-.31-1.22h.01Z"/><path class="cls-3" d="M387.08,175.69c.68-.22,1.27-.53,1.79-.94.5-.41.91-.89,1.21-1.44s.45-1.16.45-1.83h5.49c.02,1.29-.27,2.49-.87,3.62-.59,1.13-1.4,2.1-2.4,2.92-1.03.85-2.2,1.51-3.53,1.99-1.33.48-2.72.72-4.19.72-2.03,0-3.81-.35-5.33-1.06s-2.79-1.66-3.8-2.87c-1.03-1.2-1.8-2.61-2.32-4.21-.52-1.6-.78-3.32-.78-5.14v-.85c0-1.81.26-3.52.77-5.13s1.28-3.02,2.31-4.22,2.3-2.16,3.82-2.87c1.52-.71,3.29-1.06,5.31-1.06,1.59,0,3.07.24,4.43.73,1.36.49,2.53,1.17,3.5,2.05s1.74,1.93,2.28,3.15.81,2.56.79,4.03h-5.49c0-.72-.13-1.39-.4-2.03s-.65-1.19-1.14-1.66c-.5-.47-1.1-.85-1.79-1.12-.69-.28-1.44-.42-2.23-.42-1.22,0-2.23.25-3.04.74-.81.5-1.44,1.14-1.92,1.94-.5.8-.86,1.71-1.06,2.73-.2,1.03-.31,2.07-.31,3.12v.85c0,1.07.1,2.13.31,3.16.2,1.03.55,1.94,1.04,2.72.47.81,1.11,1.46,1.93,1.95.81.49,1.83.73,3.05.73.73,0,1.44-.11,2.11-.33v.03Z"/><path class="cls-3" d="M403.23,161.43c.55-1.63,1.36-3.05,2.42-4.26,1.04-1.2,2.32-2.15,3.83-2.83s3.24-1.03,5.18-1.03,3.67.34,5.19,1.03c1.52.68,2.81,1.63,3.87,2.83,1.04,1.21,1.84,2.62,2.39,4.26.55,1.64.83,3.42.83,5.33v.51c0,1.94-.28,3.72-.83,5.35s-1.35,3.04-2.39,4.25-2.32,2.15-3.85,2.83c-1.52.68-3.24,1.03-5.16,1.03s-3.67-.34-5.2-1.03c-1.53-.68-2.82-1.63-3.86-2.83-1.06-1.2-1.86-2.62-2.42-4.25-.55-1.63-.83-3.41-.83-5.35v-.51c0-1.92.28-3.7.83-5.33h0ZM408.62,170.65c.25,1.06.65,1.99,1.18,2.78.52.8,1.19,1.43,2,1.89.81.46,1.78.7,2.91.7s2.04-.23,2.86-.7c.81-.46,1.48-1.09,2-1.89.52-.8.91-1.72,1.16-2.78s.38-2.18.38-3.37v-.51c0-1.16-.13-2.26-.39-3.32s-.64-1.99-1.15-2.78c-.54-.8-1.21-1.43-2.01-1.9-.81-.47-1.77-.71-2.89-.71s-2.06.24-2.87.71-1.47,1.11-1.99,1.9c-.54.8-.93,1.73-1.18,2.78-.25,1.06-.38,2.17-.38,3.32v.51c0,1.19.13,2.31.38,3.37h0Z"/></g><g class="cls-6"><path class="cls-1" d="M164.44,312.22v-44.8h19.97c2.77,0,5.23.49,7.36,1.47s3.8,2.36,4.99,4.13c1.19,1.77,1.79,3.83,1.79,6.18s-.66,4.32-1.98,6.05c-1.32,1.73-3.11,3.04-5.38,3.94,2.73.77,4.89,2.08,6.46,3.94,1.58,1.86,2.37,4.06,2.37,6.62s-.62,4.66-1.86,6.56-2.96,3.36-5.15,4.38c-2.2,1.02-4.79,1.54-7.78,1.54h-20.8,0ZM172.12,286.3h11.46c2.22,0,3.98-.58,5.28-1.73,1.3-1.15,1.95-2.69,1.95-4.61s-.65-3.45-1.95-4.58c-1.3-1.13-3.06-1.7-5.28-1.7h-11.46v12.61h0ZM172.12,305.95h12.16c2.43,0,4.37-.63,5.82-1.89,1.45-1.26,2.18-2.93,2.18-5.02s-.71-3.75-2.14-4.99-3.36-1.86-5.79-1.86h-12.22v13.76h-.01Z"/><path class="cls-1" d="M217.82,312.73c-2.22,0-4.18-.41-5.89-1.22s-3.05-1.95-4.03-3.42-1.47-3.17-1.47-5.09.51-3.64,1.54-5.02c1.02-1.39,2.44-2.46,4.26-3.23,1.81-.77,3.98-1.15,6.5-1.15,1.49,0,2.96.16,4.42.48,1.45.32,2.86.84,4.22,1.57v-3.58c0-2.13-.62-3.73-1.86-4.8s-3.05-1.6-5.44-1.6c-1.37,0-2.81.2-4.32.61-1.52.41-3.21,1.04-5.09,1.89l-2.56-5.25c4.69-2.18,9.11-3.26,13.25-3.26s7.48,1.01,9.76,3.04,3.42,4.9,3.42,8.61v20.93h-7.17v-3.33c-1.37,1.32-2.84,2.29-4.42,2.91s-3.29.93-5.12.93v-.02ZM213.21,302.88c0,1.49.59,2.68,1.76,3.55,1.17.88,2.78,1.31,4.83,1.31,1.45,0,2.81-.23,4.06-.7,1.26-.47,2.42-1.15,3.49-2.05v-5.18c-1.11-.51-2.27-.91-3.49-1.18-1.22-.28-2.53-.42-3.94-.42-2.09,0-3.73.43-4.93,1.28-1.2.85-1.79,1.98-1.79,3.39h0Z"/><path class="cls-1" d="M254.17,312.86c-2.73,0-5.28-.36-7.65-1.09-2.37-.72-4.41-1.81-6.11-3.26l3.39-4.8c2.09,1.28,3.92,2.21,5.5,2.78,1.58.58,3.18.86,4.8.86,1.96,0,3.53-.4,4.7-1.22,1.17-.81,1.76-1.86,1.76-3.14,0-.98-.34-1.76-1.02-2.34s-1.83-1.01-3.46-1.31l-5.63-.96c-3.11-.6-5.44-1.62-6.98-3.07s-2.3-3.39-2.3-5.82c0-1.96.51-3.68,1.54-5.15,1.02-1.47,2.49-2.62,4.38-3.46,1.9-.83,4.06-1.25,6.5-1.25,2.22,0,4.37.32,6.46.96,2.09.64,4.14,1.6,6.14,2.88l-3.39,4.8c-1.62-1.07-3.23-1.85-4.83-2.34-1.6-.49-3.19-.74-4.77-.74-1.71,0-3.06.33-4.06.99s-1.5,1.57-1.5,2.72c0,1.02.33,1.8.99,2.34.66.53,1.82.93,3.49,1.18l5.7,1.09c3.24.56,5.63,1.57,7.17,3.04s2.3,3.42,2.3,5.86c0,1.96-.57,3.73-1.7,5.31s-2.69,2.83-4.67,3.74c-1.98.92-4.23,1.38-6.75,1.38v.02Z"/><path class="cls-1" d="M289.17,312.86c-3.07,0-5.85-.74-8.32-2.21-2.47-1.47-4.44-3.47-5.89-5.98-1.45-2.52-2.18-5.33-2.18-8.45s.68-5.98,2.05-8.48c1.36-2.5,3.23-4.47,5.6-5.92s5.02-2.18,7.97-2.18,5.5.71,7.81,2.14c2.3,1.43,4.12,3.39,5.44,5.89,1.32,2.5,1.98,5.34,1.98,8.54v1.79h-23.74c.26,1.71.82,3.23,1.7,4.58.87,1.34,2,2.39,3.39,3.14s2.89,1.12,4.51,1.12c1.49,0,2.91-.26,4.26-.77,1.34-.51,2.49-1.24,3.42-2.18l4.67,4.22c-1.92,1.62-3.9,2.82-5.95,3.58-2.05.77-4.29,1.15-6.72,1.15v.02ZM279.96,293.53h16.77c-.21-1.62-.73-3.02-1.54-4.19s-1.8-2.11-2.98-2.82c-1.17-.7-2.46-1.06-3.87-1.06s-2.7.34-3.87,1.02c-1.17.68-2.14,1.61-2.91,2.78s-1.3,2.59-1.6,4.26h0Z"/><path class="cls-1" d="M326.23,312.22v-44.8h16.38c3.2,0,6.17.57,8.9,1.7,2.73,1.13,5.11,2.72,7.14,4.77,2.03,2.05,3.6,4.43,4.74,7.14,1.13,2.71,1.7,5.64,1.7,8.8s-.57,6.09-1.7,8.8c-1.13,2.71-2.71,5.09-4.74,7.14s-4.41,3.64-7.14,4.77-5.7,1.7-8.9,1.7h-16.38v-.02ZM333.91,305.56h8.83c2.73,0,5.17-.69,7.33-2.08,2.15-1.39,3.88-3.27,5.18-5.66,1.3-2.39,1.95-5.06,1.95-8s-.65-5.61-1.95-8c-1.3-2.39-3.03-4.28-5.18-5.66-2.15-1.39-4.6-2.08-7.33-2.08h-8.83v31.49h0Z"/><path class="cls-1" d="M387.48,312.79c-3.07,0-5.82-.73-8.26-2.18-2.43-1.45-4.35-3.43-5.76-5.95s-2.11-5.33-2.11-8.45.7-5.98,2.11-8.48c1.41-2.5,3.33-4.47,5.76-5.92,2.43-1.45,5.18-2.18,8.26-2.18s5.81.73,8.22,2.18c2.41,1.45,4.32,3.42,5.73,5.92s2.11,5.3,2.11,8.42-.7,6-2.11,8.51c-1.41,2.52-3.32,4.5-5.73,5.95s-5.15,2.18-8.22,2.18ZM387.48,306.65c1.75,0,3.3-.46,4.64-1.38,1.34-.92,2.4-2.17,3.17-3.74.77-1.58,1.15-3.35,1.15-5.31s-.38-3.79-1.15-5.34-1.82-2.79-3.17-3.71c-1.34-.92-2.89-1.38-4.64-1.38s-3.31.46-4.67,1.38c-1.37.92-2.43,2.15-3.2,3.71s-1.15,3.34-1.15,5.34.38,3.73,1.15,5.31,1.83,2.83,3.2,3.74c1.37.92,2.92,1.38,4.67,1.38Z"/><path class="cls-1" d="M410.96,312.22v-32.06h7.3v5.06c1.19-1.83,2.59-3.22,4.19-4.16s3.36-1.41,5.28-1.41c2.22,0,4.15.55,5.79,1.66,1.64,1.11,2.87,2.6,3.68,4.48,1.28-2,2.81-3.53,4.58-4.58,1.77-1.04,3.79-1.57,6.05-1.57,2.05,0,3.86.49,5.44,1.47,1.58.98,2.82,2.35,3.71,4.1.9,1.75,1.34,3.78,1.34,6.08v20.93h-7.3v-19.39c0-2.26-.57-4.05-1.7-5.38-1.13-1.32-2.7-1.98-4.7-1.98-1.28,0-2.45.32-3.52.96-1.07.64-2.03,1.6-2.88,2.88.04.3.06.62.06.96v21.95h-7.17v-19.39c0-2.26-.59-4.05-1.76-5.38-1.17-1.32-2.76-1.98-4.77-1.98-2.6,0-4.71,1.24-6.34,3.71v23.04h-7.3.02Z"/><path class="cls-1" d="M476.82,312.73c-2.22,0-4.18-.41-5.89-1.22-1.71-.81-3.05-1.95-4.03-3.42s-1.47-3.17-1.47-5.09.51-3.64,1.54-5.02c1.02-1.39,2.44-2.46,4.26-3.23,1.81-.77,3.98-1.15,6.5-1.15,1.49,0,2.96.16,4.42.48,1.45.32,2.86.84,4.22,1.57v-3.58c0-2.13-.62-3.73-1.86-4.8s-3.05-1.6-5.44-1.6c-1.37,0-2.81.2-4.32.61-1.52.41-3.21,1.04-5.09,1.89l-2.56-5.25c4.69-2.18,9.11-3.26,13.25-3.26s7.48,1.01,9.76,3.04,3.42,4.9,3.42,8.61v20.93h-7.17v-3.33c-1.37,1.32-2.84,2.29-4.42,2.91-1.58.62-3.29.93-5.12.93v-.02ZM472.21,302.88c0,1.49.59,2.68,1.76,3.55,1.17.88,2.78,1.31,4.83,1.31,1.45,0,2.81-.23,4.06-.7,1.26-.47,2.42-1.15,3.49-2.05v-5.18c-1.11-.51-2.27-.91-3.49-1.18-1.22-.28-2.53-.42-3.94-.42-2.09,0-3.73.43-4.93,1.28-1.2.85-1.79,1.98-1.79,3.39h.01Z"/><path class="cls-1" d="M505.81,273.63c-1.19,0-2.23-.44-3.1-1.31-.88-.87-1.31-1.93-1.31-3.17s.44-2.23,1.31-3.1,1.95-1.31,3.23-1.31c1.19,0,2.23.44,3.1,1.31.87.88,1.31,1.93,1.31,3.17s-.44,2.23-1.31,3.1-1.95,1.31-3.23,1.31ZM502.23,312.22v-32.06h7.23v32.06h-7.23Z"/><path class="cls-1" d="M518.35,312.22v-32.06h7.3v5.18c1.19-1.83,2.66-3.24,4.38-4.22s3.64-1.47,5.73-1.47c2.22,0,4.16.49,5.82,1.47s2.96,2.31,3.9,4,1.41,3.66,1.41,5.92v21.18h-7.17v-19.07c0-2.35-.64-4.21-1.92-5.6-1.28-1.39-3.01-2.08-5.18-2.08-1.41,0-2.72.32-3.94.96-1.22.64-2.23,1.62-3.04,2.94v22.85h-7.3,0Z"/></g><g class="cls-6"><path class="cls-3" d="M329.18,340.72v32.67h8.01v4.83h-22.24v-4.83h8.35v-27.81h-8.35v-4.86h14.23,0Z"/><path class="cls-3" d="M360.27,377.04c-.11-.46-.2-.95-.28-1.45-.41.42-.87.83-1.38,1.21s-1.09.71-1.72.99c-.63.29-1.32.52-2.05.68-.73.16-1.52.24-2.37.24-1.37,0-2.62-.2-3.75-.6-1.13-.4-2.1-.95-2.89-1.65-.81-.68-1.44-1.51-1.89-2.48s-.67-2.01-.67-3.14c0-1.45.29-2.73.87-3.85.58-1.11,1.42-2.04,2.53-2.77,1.03-.68,2.29-1.2,3.8-1.56,1.51-.36,3.21-.54,5.11-.54h4.25v-1.78c0-.68-.12-1.3-.35-1.86-.24-.55-.57-1.03-1.01-1.44-.47-.41-1.05-.72-1.72-.94-.68-.22-1.45-.33-2.33-.33-.8,0-1.49.1-2.09.29-.59.2-1.09.46-1.48.81-.39.31-.68.69-.87,1.13-.19.45-.28.92-.28,1.43h-5.86c.02-1.06.27-2.08.76-3.05s1.2-1.84,2.15-2.59c.91-.76,2.04-1.37,3.38-1.82s2.88-.67,4.6-.67c1.55,0,2.99.19,4.33.57s2.5.95,3.48,1.7,1.74,1.7,2.29,2.84c.55,1.15.83,2.47.83,3.97v11.74c0,1.19.09,2.26.26,3.21s.42,1.77.74,2.45v.42h-5.96c-.18-.33-.32-.72-.43-1.18v.02ZM355.73,373.73c.66-.2,1.26-.45,1.79-.76.54-.31,1-.66,1.39-1.05s.69-.8.9-1.22v-4.88h-3.76c-1.27,0-2.37.12-3.3.35-.93.24-1.67.57-2.22,1.01-.49.38-.85.82-1.09,1.34s-.35,1.11-.35,1.76c0,.54.1,1.04.29,1.5.2.46.48.86.85,1.18.37.33.84.58,1.39.77.55.19,1.2.28,1.95.28s1.48-.1,2.14-.29h.02Z"/><path class="cls-3" d="M396.78,368.77c-.18,1.11-.44,2.13-.78,3.08-.39,1.12-.91,2.14-1.56,3.05s-1.43,1.67-2.34,2.27c-.73.49-1.55.87-2.45,1.14-.9.27-1.88.4-2.94.4s-2.05-.13-2.93-.39-1.67-.64-2.37-1.15c-.36-.26-.7-.54-1.01-.84-.32-.3-.62-.63-.92-.99l-.27,2.88h-5.27v-37.5h5.83v13.67c.34-.42.72-.81,1.12-1.15.41-.34.85-.64,1.32-.9.62-.34,1.3-.6,2.04-.77.74-.17,1.54-.26,2.4-.26,1.14,0,2.19.15,3.14.45s1.81.73,2.58,1.28c.65.46,1.23,1.01,1.75,1.67.51.66.96,1.38,1.35,2.16.52,1.09.92,2.3,1.18,3.64.27,1.33.4,2.75.4,4.25v.51c0,1.22-.09,2.38-.27,3.49h0ZM391.08,362.58c-.09-.71-.22-1.37-.38-1.99-.23-.75-.52-1.43-.89-2.04-.37-.61-.86-1.13-1.48-1.55-.41-.29-.87-.51-1.39-.66-.52-.15-1.11-.22-1.76-.22-.8,0-1.51.11-2.15.33-.63.22-1.19.53-1.66.94-.34.28-.65.6-.92.96-.27.37-.5.76-.7,1.18v10.94c.23.49.5.93.82,1.33s.68.75,1.09,1.06c.46.33.98.58,1.57.77s1.26.28,1.99.28c.67,0,1.27-.09,1.81-.26s1.02-.4,1.44-.7c.57-.41,1.04-.92,1.4-1.55.37-.63.65-1.33.84-2.11.16-.59.28-1.22.37-1.9.08-.68.12-1.39.12-2.12v-.51c0-.75-.04-1.48-.13-2.18h.01Z"/></g><g class="cls-6"><path class="cls-1" d="M161,510.22v-44.8h20.03c3.07,0,5.72.6,7.94,1.79s3.95,2.83,5.18,4.9c1.24,2.07,1.86,4.49,1.86,7.26s-.62,5.01-1.86,7.1c-1.24,2.09-2.97,3.72-5.18,4.9-2.22,1.17-4.86,1.76-7.94,1.76h-12.35v17.09h-7.68ZM168.68,486.86h11.14c2.73,0,4.82-.68,6.27-2.05s2.18-3.2,2.18-5.5-.73-4.01-2.18-5.38-3.52-2.05-6.21-2.05h-11.2v14.98Z"/><path class="cls-1" d="M203.5,510.22v-45.89l7.3-1.28v47.17h-7.3Z"/><path class="cls-1" d="M229.42,510.73c-2.22,0-4.18-.41-5.89-1.22s-3.05-1.95-4.03-3.42-1.47-3.17-1.47-5.09.51-3.64,1.54-5.02c1.02-1.39,2.44-2.46,4.26-3.23,1.81-.77,3.98-1.15,6.5-1.15,1.49,0,2.96.16,4.42.48,1.45.32,2.86.84,4.22,1.57v-3.58c0-2.13-.62-3.73-1.86-4.8s-3.05-1.6-5.44-1.6c-1.37,0-2.81.2-4.32.61-1.52.41-3.21,1.04-5.09,1.89l-2.56-5.25c4.69-2.18,9.11-3.26,13.25-3.26s7.48,1.01,9.76,3.04c2.28,2.03,3.42,4.9,3.42,8.61v20.93h-7.17v-3.33c-1.37,1.32-2.84,2.29-4.42,2.91s-3.29.93-5.12.93v-.02ZM224.81,500.88c0,1.49.59,2.68,1.76,3.55,1.17.88,2.78,1.31,4.83,1.31,1.45,0,2.81-.23,4.06-.7,1.26-.47,2.42-1.15,3.49-2.05v-5.18c-1.11-.51-2.27-.91-3.49-1.18-1.22-.28-2.53-.42-3.94-.42-2.09,0-3.73.43-4.93,1.28-1.2.85-1.79,1.98-1.79,3.39h0Z"/><path class="cls-1" d="M267.75,510.86c-3.24,0-5.7-.76-7.36-2.27s-2.5-3.77-2.5-6.75v-17.98h-6.4v-5.7h6.4v-8.77l7.23-1.6v10.37h8.96v5.7h-8.96v16.45c0,1.58.34,2.7,1.02,3.36s1.83.99,3.46.99c.72,0,1.4-.05,2.02-.16s1.4-.31,2.34-.61v6.08c-.9.3-1.92.52-3.07.67-1.15.15-2.2.22-3.14.22h0Z"/><path class="cls-1" d="M285.42,510.22v-26.37h-6.91v-5.7h6.91v-5.57c0-3.41.95-6.06,2.85-7.94s4.64-2.82,8.22-2.82c.9,0,1.77.05,2.62.16s1.58.27,2.18.48v6.14c-.81-.17-1.49-.3-2.05-.38-.55-.08-1.17-.13-1.86-.13-1.62,0-2.82.37-3.58,1.12-.77.75-1.15,1.91-1.15,3.49v5.44h8.64v5.7h-8.64v26.37h-7.23Z"/><path class="cls-1" d="M320.74,510.79c-3.07,0-5.82-.73-8.26-2.18-2.43-1.45-4.35-3.43-5.76-5.95s-2.11-5.33-2.11-8.45.7-5.98,2.11-8.48c1.41-2.5,3.33-4.47,5.76-5.92,2.43-1.45,5.18-2.18,8.26-2.18s5.81.73,8.22,2.18,4.32,3.42,5.73,5.92,2.11,5.3,2.11,8.42-.7,6-2.11,8.51c-1.41,2.52-3.32,4.5-5.73,5.95s-5.15,2.18-8.22,2.18ZM320.74,504.65c1.75,0,3.3-.46,4.64-1.38,1.34-.92,2.4-2.17,3.17-3.74.77-1.58,1.15-3.35,1.15-5.31s-.38-3.79-1.15-5.34-1.82-2.79-3.17-3.71c-1.34-.92-2.89-1.38-4.64-1.38s-3.31.46-4.67,1.38c-1.37.92-2.43,2.15-3.2,3.71s-1.15,3.34-1.15,5.34.38,3.73,1.15,5.31,1.83,2.83,3.2,3.74c1.37.92,2.92,1.38,4.67,1.38Z"/><path class="cls-1" d="M344.23,510.22v-32.06h7.3v6.91c.94-2.43,2.14-4.29,3.62-5.57,1.47-1.28,3.19-1.92,5.15-1.92.68.04,1.26.1,1.73.16s.96.22,1.47.48v6.4c-.6-.3-1.24-.51-1.92-.64-.68-.13-1.37-.19-2.05-.19-1.75,0-3.32.47-4.7,1.41-1.39.94-2.49,2.26-3.3,3.97v21.06h-7.3Z"/><path class="cls-1" d="M369.38,510.22v-32.06h7.3v5.06c1.19-1.83,2.59-3.22,4.19-4.16s3.36-1.41,5.28-1.41c2.22,0,4.15.55,5.79,1.66s2.87,2.6,3.68,4.48c1.28-2,2.81-3.53,4.58-4.58,1.77-1.04,3.79-1.57,6.05-1.57,2.05,0,3.86.49,5.44,1.47,1.58.98,2.82,2.35,3.71,4.1.9,1.75,1.34,3.78,1.34,6.08v20.93h-7.3v-19.39c0-2.26-.57-4.05-1.7-5.38-1.13-1.32-2.7-1.98-4.7-1.98-1.28,0-2.45.32-3.52.96-1.07.64-2.03,1.6-2.88,2.88.04.3.06.62.06.96v21.95h-7.17v-19.39c0-2.26-.59-4.05-1.76-5.38-1.17-1.32-2.76-1.98-4.77-1.98-2.6,0-4.71,1.24-6.34,3.71v23.04h-7.3.02Z"/><path class="cls-1" d="M443.43,471.63c-1.19,0-2.23-.44-3.1-1.31-.88-.87-1.31-1.93-1.31-3.17s.44-2.23,1.31-3.1,1.95-1.31,3.23-1.31c1.19,0,2.23.44,3.1,1.31.87.88,1.31,1.93,1.31,3.17s-.44,2.23-1.31,3.1-1.95,1.31-3.23,1.31ZM439.84,510.22v-32.06h7.23v32.06h-7.23Z"/><path class="cls-1" d="M455.97,510.22v-32.06h7.3v5.18c1.19-1.83,2.66-3.24,4.38-4.22s3.64-1.47,5.73-1.47c2.22,0,4.16.49,5.82,1.47s2.96,2.31,3.9,4,1.41,3.66,1.41,5.92v21.18h-7.17v-19.07c0-2.35-.64-4.21-1.92-5.6-1.28-1.39-3.01-2.08-5.18-2.08-1.41,0-2.72.32-3.94.96s-2.23,1.62-3.04,2.94v22.85h-7.3.01Z"/><path class="cls-1" d="M496.68,510.22v-26.37h-6.91v-5.7h6.91v-5.57c0-3.41.95-6.06,2.85-7.94s4.64-2.82,8.22-2.82c.9,0,1.77.05,2.62.16s1.58.27,2.18.48v6.14c-.81-.17-1.49-.3-2.05-.38-.55-.08-1.17-.13-1.86-.13-1.62,0-2.82.37-3.58,1.12-.77.75-1.15,1.91-1.15,3.49v5.44h8.64v5.7h-8.64v26.37h-7.23Z"/><path class="cls-1" d="M532,510.79c-3.07,0-5.82-.73-8.26-2.18-2.43-1.45-4.35-3.43-5.76-5.95-1.41-2.52-2.11-5.33-2.11-8.45s.7-5.98,2.11-8.48,3.33-4.47,5.76-5.92,5.18-2.18,8.26-2.18,5.81.73,8.22,2.18,4.32,3.42,5.73,5.92,2.11,5.3,2.11,8.42-.7,6-2.11,8.51c-1.41,2.52-3.32,4.5-5.73,5.95s-5.15,2.18-8.22,2.18ZM532,504.65c1.75,0,3.3-.46,4.64-1.38s2.4-2.17,3.17-3.74c.77-1.58,1.15-3.35,1.15-5.31s-.38-3.79-1.15-5.34-1.82-2.79-3.17-3.71c-1.34-.92-2.89-1.38-4.64-1.38s-3.31.46-4.67,1.38c-1.37.92-2.43,2.15-3.2,3.71s-1.15,3.34-1.15,5.34.38,3.73,1.15,5.31,1.83,2.83,3.2,3.74c1.37.92,2.92,1.38,4.67,1.38Z"/></g><g class="cls-6"><path class="cls-3" d="M92.03,568.04l-2.42,8.18h-6.1l11.57-35.55h5.2l11.38,35.55h-6.08l-2.39-8.18h-11.16ZM101.75,563.01l-4.08-14.06-4.15,14.06h8.23Z"/><path class="cls-3" d="M119.57,552.71c.5-1.06,1.2-1.89,2.09-2.49s1.96-.9,3.21-.9c.65,0,1.24.07,1.76.22.52.15.97.38,1.34.68.29.23.55.5.78.82.23.32.42.68.59,1.09.23-.37.49-.72.78-1.05s.61-.6.95-.83c.44-.29.93-.52,1.48-.68.54-.16,1.14-.24,1.79-.24.85,0,1.62.14,2.33.43.71.28,1.32.72,1.84,1.31.52.62.92,1.42,1.21,2.41.28.98.43,2.17.43,3.55v19.21h-5.37v-19.26c0-.52-.06-.96-.17-1.33s-.28-.66-.49-.89c-.21-.21-.47-.37-.77-.46-.3-.1-.63-.15-.99-.15s-.7.05-.98.15c-.28.1-.52.24-.73.42-.2.16-.36.35-.49.57-.13.22-.23.47-.29.74v20.21h-5.27v-19.29c0-.52-.05-.96-.16-1.33s-.26-.66-.48-.87c-.21-.21-.46-.37-.74-.46-.29-.1-.61-.15-.96-.15-.39,0-.74.05-1.04.16s-.56.26-.77.48c-.16.15-.31.32-.43.51s-.23.42-.33.66v20.29h-5.37v-26.42h5.08l.17,2.91v-.02Z"/><path class="cls-3" d="M162.53,575.04c-.11-.46-.2-.95-.28-1.45-.41.42-.87.83-1.38,1.21-.51.38-1.09.71-1.72.99-.63.29-1.32.52-2.05.68s-1.52.24-2.37.24c-1.37,0-2.62-.2-3.75-.6-1.13-.4-2.1-.95-2.89-1.65-.81-.68-1.44-1.51-1.89-2.48s-.67-2.01-.67-3.14c0-1.45.29-2.73.87-3.85.58-1.11,1.42-2.04,2.53-2.77,1.03-.68,2.29-1.2,3.8-1.56,1.51-.36,3.21-.54,5.11-.54h4.25v-1.78c0-.68-.12-1.3-.35-1.86-.24-.55-.57-1.03-1.01-1.44-.47-.41-1.05-.72-1.72-.94-.68-.22-1.45-.33-2.33-.33-.8,0-1.49.1-2.09.29-.59.2-1.09.46-1.48.81-.39.31-.68.69-.87,1.13-.19.45-.28.92-.28,1.43h-5.86c.02-1.06.27-2.08.76-3.05s1.2-1.84,2.15-2.59c.91-.76,2.04-1.37,3.38-1.82,1.34-.45,2.88-.67,4.6-.67,1.55,0,2.99.19,4.33.57s2.5.95,3.48,1.7,1.74,1.7,2.29,2.84c.55,1.15.83,2.47.83,3.97v11.74c0,1.19.09,2.26.26,3.21s.42,1.77.74,2.45v.42h-5.96c-.18-.33-.32-.72-.43-1.18v.02ZM157.99,571.73c.66-.2,1.26-.45,1.79-.76.54-.31,1-.66,1.39-1.05s.69-.8.9-1.22v-4.88h-3.76c-1.27,0-2.37.12-3.3.35-.93.24-1.67.57-2.22,1.01-.49.38-.85.82-1.09,1.34-.24.52-.35,1.11-.35,1.76,0,.54.1,1.04.29,1.5.2.46.48.86.85,1.18.37.33.84.58,1.39.77s1.2.28,1.95.28,1.48-.1,2.14-.29h.02Z"/><path class="cls-3" d="M199.5,571.51v4.71h-23.88v-3.83l15.19-17.82h-14.89v-4.76h22.85v3.71l-15.36,17.99h16.09Z"/><path class="cls-3" d="M205.85,557.43c.55-1.63,1.36-3.05,2.42-4.26,1.04-1.2,2.32-2.15,3.83-2.83s3.24-1.03,5.18-1.03,3.67.34,5.19,1.03c1.52.68,2.81,1.63,3.87,2.83,1.04,1.21,1.84,2.62,2.39,4.26s.83,3.42.83,5.33v.51c0,1.94-.28,3.72-.83,5.35s-1.35,3.04-2.39,4.25-2.32,2.15-3.85,2.83c-1.52.68-3.24,1.03-5.16,1.03s-3.67-.34-5.2-1.03c-1.53-.68-2.82-1.63-3.86-2.83-1.06-1.2-1.86-2.62-2.42-4.25-.55-1.63-.83-3.41-.83-5.35v-.51c0-1.92.28-3.7.83-5.33h0ZM211.24,566.65c.25,1.06.65,1.99,1.18,2.78.52.8,1.19,1.43,2,1.89s1.78.7,2.91.7,2.04-.23,2.86-.7c.81-.46,1.48-1.09,2-1.89s.91-1.72,1.16-2.78c.25-1.06.38-2.18.38-3.37v-.51c0-1.16-.13-2.26-.39-3.32s-.64-1.99-1.15-2.78c-.54-.8-1.21-1.43-2.01-1.9-.81-.47-1.77-.71-2.89-.71s-2.06.24-2.87.71c-.81.47-1.47,1.11-1.99,1.9-.54.8-.93,1.73-1.18,2.78-.25,1.06-.38,2.17-.38,3.32v.51c0,1.19.13,2.31.38,3.37h-.01Z"/><path class="cls-3" d="M236.1,549.8h5.27l.37,3.76c.36-.5.75-.97,1.18-1.4.43-.43.89-.82,1.38-1.16.78-.54,1.64-.95,2.56-1.25s1.9-.44,2.93-.44c1.35,0,2.59.2,3.71.59s2.08,1.01,2.88,1.86c.8.85,1.42,1.92,1.86,3.23.44,1.31.66,2.89.66,4.75v16.48h-5.83v-16.38c0-1.09-.12-2-.37-2.73s-.6-1.32-1.07-1.76-1.04-.75-1.71-.94c-.67-.19-1.43-.28-2.29-.28-.72,0-1.38.09-2,.28s-1.18.45-1.68.79c-.39.26-.76.58-1.1.95-.34.38-.64.78-.9,1.22v18.85h-5.83v-26.42h-.02Z"/><path class="cls-3" d="M302.07,568.04l-2.42,8.18h-6.1l11.57-35.55h5.2l11.38,35.55h-6.08l-2.39-8.18h-11.16ZM311.79,563.01l-4.08-14.06-4.15,14.06h8.23,0Z"/><path class="cls-3" d="M323.46,540.67h5.44l2.44,21.83.17,1.39.24-1.46,3.42-21.75h4.49l3.54,21.85.24,1.46.17-1.49,2.47-21.83h5.47l-4.69,35.55h-5.54l-3.61-21.75-.24-1.68-.27,1.68-3.56,21.75h-5.54l-4.64-35.55h0Z"/><path class="cls-3" d="M373.99,564.87c-.34-.63-.82-1.2-1.44-1.71-.65-.47-1.42-.9-2.31-1.28-.89-.38-1.88-.73-2.97-1.04-1.68-.47-3.22-1.05-4.63-1.75-1.41-.69-2.61-1.47-3.6-2.33-.99-.88-1.77-1.88-2.33-2.99s-.84-2.37-.84-3.77c0-1.51.33-2.88.98-4.09.65-1.21,1.53-2.25,2.64-3.11,1.11-.85,2.4-1.49,3.87-1.94s3.02-.67,4.65-.67c1.73,0,3.33.26,4.82.79,1.49.53,2.79,1.27,3.89,2.21,1.11.96,1.98,2.1,2.62,3.43.64,1.33.96,2.79.96,4.41h-5.81c-.08-.89-.27-1.71-.57-2.45-.3-.74-.72-1.38-1.26-1.92-.55-.52-1.23-.93-2.01-1.23-.79-.3-1.7-.45-2.72-.45-.9,0-1.72.12-2.48.35-.76.24-1.41.57-1.97.99-.55.44-.98.97-1.29,1.59s-.46,1.31-.46,2.08c.02.81.23,1.53.63,2.14.41.61.95,1.14,1.64,1.6.7.46,1.5.85,2.4,1.2s1.85.66,2.84.95c1.25.36,2.48.8,3.67,1.33,1.2.53,2.3,1.17,3.31,1.92,1.25.94,2.26,2.07,3.02,3.38.76,1.31,1.14,2.82,1.14,4.53,0,1.58-.33,2.97-.99,4.17-.66,1.21-1.54,2.21-2.65,3-1.12.83-2.43,1.45-3.91,1.87-1.48.41-3.04.62-4.69.62-1.74,0-3.46-.27-5.15-.82s-3.17-1.34-4.42-2.38c-1.16-.98-2.07-2.12-2.75-3.44s-1.02-2.83-1.04-4.54h5.86c.08,1.09.31,2.04.7,2.84.38.8.91,1.47,1.57,1.99.65.54,1.42.94,2.31,1.2.89.26,1.86.39,2.92.39.9,0,1.73-.11,2.5-.32s1.44-.53,2.01-.95c.55-.41,1-.91,1.33-1.51.33-.6.5-1.29.5-2.08,0-.83-.17-1.56-.51-2.2h.02Z"/><path class="cls-3" d="M416.07,557.33c.48-1.65,1.18-3.07,2.09-4.26.9-1.19,1.99-2.11,3.28-2.77,1.29-.66,2.75-.99,4.38-.99,1.46,0,2.75.26,3.85.77s2.07,1.24,2.92,2.18v-13.55h5.83v37.5h-5.3l-.27-2.76c-.85,1.04-1.86,1.84-3.03,2.41-1.17.56-2.52.84-4.05.84-1.61,0-3.06-.34-4.35-1.01s-2.38-1.61-3.27-2.82c-.9-1.19-1.59-2.6-2.08-4.24s-.73-3.41-.73-5.31v-.51c0-2,.24-3.83.72-5.48h0ZM421.53,566.65c.23,1.04.59,1.95,1.07,2.71.49.8,1.11,1.42,1.88,1.87.76.45,1.68.67,2.76.67,1.32,0,2.41-.29,3.27-.87s1.55-1.36,2.08-2.36v-11.35c-.52-.98-1.21-1.75-2.06-2.33s-1.93-.87-3.23-.87c-1.09,0-2.02.23-2.8.68-.77.46-1.4,1.08-1.87,1.88-.5.8-.87,1.72-1.1,2.77-.23,1.05-.34,2.17-.34,3.36v.51c0,1.17.11,2.28.34,3.32h0Z"/><path class="cls-3" d="M453.11,575.73c-1.62-.65-3.01-1.55-4.16-2.71-1.16-1.14-2.05-2.49-2.67-4.04-.63-1.55-.94-3.24-.94-5.04v-1c0-2.07.33-3.94.98-5.62.65-1.68,1.55-3.11,2.69-4.3s2.46-2.1,3.97-2.75c1.51-.64,3.11-.96,4.82-.96,1.9,0,3.59.32,5.05.96s2.69,1.53,3.69,2.67c.99,1.16,1.74,2.53,2.25,4.13.5,1.6.76,3.34.76,5.22v2.51h-18.31v.12c.18,1.16.46,2.12.83,2.91.37.78.89,1.48,1.54,2.1.65.65,1.42,1.16,2.31,1.51.89.36,1.86.54,2.92.54,1.45,0,2.8-.28,4.05-.84s2.29-1.36,3.1-2.4l3.12,3.03c-.88,1.27-2.23,2.41-4.04,3.42s-4.01,1.51-6.58,1.51c-1.95,0-3.74-.33-5.36-.98h-.02ZM455.45,554.5c-.71.3-1.34.73-1.89,1.28-.55.57-1.02,1.25-1.39,2.05-.37.8-.65,1.7-.83,2.71h12.43v-.39c0-.76-.14-1.53-.42-2.28-.28-.76-.67-1.42-1.17-1.99-.49-.55-1.1-1-1.84-1.33s-1.6-.5-2.58-.5c-.83,0-1.6.15-2.31.45h0Z"/><path class="cls-3" d="M487.86,549.8h9.94v4.37h-9.94v12.62c0,.98.12,1.79.35,2.45.24.66.57,1.18.99,1.55.42.39.93.67,1.51.83.59.16,1.23.24,1.93.24.5,0,1.03-.02,1.56-.07s1.06-.11,1.56-.2c.49-.06.95-.14,1.38-.23.43-.09.79-.17,1.09-.23l.63,4.03c-.42.26-.93.48-1.53.67-.59.19-1.23.35-1.92.48s-1.4.23-2.14.3c-.74.07-1.48.11-2.21.11-1.33,0-2.56-.18-3.67-.55-1.12-.37-2.07-.94-2.87-1.72-.8-.76-1.42-1.75-1.87-2.95-.45-1.2-.67-2.65-.67-4.35v-12.99h-6.4v-4.37h6.4v-6.45h5.86v6.45h.02Z"/><path class="cls-3" d="M522.59,575.04c-.11-.46-.2-.95-.28-1.45-.41.42-.87.83-1.38,1.21s-1.09.71-1.72.99c-.63.29-1.32.52-2.05.68s-1.52.24-2.37.24c-1.37,0-2.62-.2-3.75-.6-1.13-.4-2.1-.95-2.89-1.65-.81-.68-1.44-1.51-1.89-2.48s-.67-2.01-.67-3.14c0-1.45.29-2.73.87-3.85.58-1.11,1.42-2.04,2.53-2.77,1.03-.68,2.29-1.2,3.8-1.56,1.51-.36,3.21-.54,5.11-.54h4.25v-1.78c0-.68-.12-1.3-.35-1.86-.24-.55-.57-1.03-1.01-1.44-.47-.41-1.05-.72-1.72-.94-.68-.22-1.45-.33-2.33-.33-.8,0-1.49.1-2.09.29-.59.2-1.09.46-1.48.81-.39.31-.68.69-.87,1.13-.19.45-.28.92-.28,1.43h-5.86c.02-1.06.27-2.08.76-3.05s1.2-1.84,2.15-2.59c.91-.76,2.04-1.37,3.38-1.82,1.34-.45,2.88-.67,4.6-.67,1.55,0,2.99.19,4.33.57s2.5.95,3.48,1.7,1.74,1.7,2.29,2.84c.55,1.15.83,2.47.83,3.97v11.74c0,1.19.09,2.26.26,3.21s.42,1.77.74,2.45v.42h-5.96c-.18-.33-.32-.72-.43-1.18v.02ZM518.05,571.73c.66-.2,1.26-.45,1.79-.76.54-.31,1-.66,1.39-1.05s.69-.8.9-1.22v-4.88h-3.76c-1.27,0-2.37.12-3.3.35-.93.24-1.67.57-2.22,1.01-.49.38-.85.82-1.09,1.34-.24.52-.35,1.11-.35,1.76,0,.54.1,1.04.29,1.5.2.46.48.86.85,1.18.37.33.84.58,1.39.77s1.2.28,1.95.28,1.48-.1,2.14-.29h.02Z"/><path class="cls-3" d="M551.51,549.8v21.58h7.76v4.83h-21.78v-4.83h8.13v-16.72h-8.13v-4.86h14.02ZM545.33,541.66c.16-.4.4-.74.71-1.04.29-.28.65-.49,1.06-.65.42-.16.88-.23,1.4-.23.88,0,1.59.22,2.14.67.54.45.86,1.02.94,1.72.11.72,0,1.34-.37,1.87-.36.53-.88.88-1.56,1.06-.34.31-.75.51-1.22.61s-.99.06-1.56-.12c-.59-.18-1.03-.5-1.33-.96s-.45-1-.45-1.62c0-.47.08-.91.24-1.31h0Z"/><path class="cls-3" d="M581.51,538.72v32.67h8.01v4.83h-22.24v-4.83h8.35v-27.81h-8.35v-4.86h14.23Z"/><path class="cls-3" d="M613.12,567.84c-.2-.36-.54-.7-1.01-1.03-.5-.29-1.16-.57-1.98-.83-.81-.26-1.83-.5-3.05-.73-1.53-.31-2.93-.69-4.19-1.15s-2.35-1.01-3.26-1.66c-.9-.62-1.6-1.35-2.1-2.2-.5-.85-.76-1.83-.76-2.95s.26-2.1.77-3.06c.51-.97,1.25-1.82,2.21-2.55.94-.73,2.09-1.31,3.43-1.73,1.34-.42,2.84-.63,4.48-.63,1.76,0,3.34.22,4.74.65,1.4.43,2.59,1.02,3.56,1.77.96.75,1.7,1.64,2.22,2.66.52,1.03.78,2.13.78,3.32h-5.83c0-.49-.1-.96-.31-1.4-.2-.45-.5-.85-.89-1.21-.46-.42-1.04-.76-1.76-1.01-.72-.25-1.55-.38-2.51-.38-.88,0-1.65.09-2.31.28s-1.2.44-1.62.77c-.42.29-.74.64-.95,1.04-.21.4-.32.82-.32,1.26s.09.87.27,1.23c.18.37.5.69.95.96.42.29,1.01.56,1.77.81s1.71.46,2.87.66c1.61.29,3.08.65,4.42,1.07,1.33.42,2.47.94,3.42,1.56.94.65,1.68,1.42,2.2,2.29.52.88.78,1.92.78,3.12s-.27,2.25-.82,3.22c-.55.98-1.31,1.82-2.31,2.51-1.01.7-2.21,1.25-3.61,1.64-1.4.39-2.95.59-4.66.59-1.9,0-3.59-.25-5.07-.76-1.47-.5-2.71-1.17-3.7-2-1.01-.81-1.77-1.75-2.29-2.81-.52-1.06-.78-2.13-.78-3.22h5.66c.05.81.26,1.5.65,2.06.38.56.87,1.01,1.45,1.35.57.36,1.22.61,1.95.77.73.16,1.47.23,2.22.23,1.01,0,1.89-.11,2.65-.32s1.36-.5,1.82-.85c.37-.29.65-.61.84-.96.19-.35.28-.74.28-1.16,0-.46-.1-.86-.31-1.22h0Z"/></g><g class="cls-6"><path class="cls-3" d="M58.41,625.87c-.34-.63-.82-1.2-1.44-1.71-.65-.47-1.42-.9-2.31-1.28-.89-.38-1.88-.73-2.97-1.04-1.68-.47-3.22-1.05-4.63-1.75-1.41-.69-2.61-1.47-3.6-2.33-.99-.88-1.77-1.88-2.33-2.99s-.84-2.37-.84-3.77c0-1.51.33-2.88.98-4.09.65-1.21,1.53-2.25,2.64-3.11,1.11-.85,2.4-1.49,3.87-1.94,1.47-.45,3.02-.67,4.65-.67,1.73,0,3.33.26,4.82.79,1.49.53,2.79,1.27,3.89,2.21,1.11.96,1.98,2.1,2.62,3.43s.96,2.79.96,4.41h-5.81c-.08-.89-.27-1.71-.57-2.45s-.72-1.38-1.26-1.92c-.55-.52-1.23-.93-2.01-1.23-.79-.3-1.7-.45-2.72-.45-.9,0-1.72.12-2.48.35-.76.24-1.41.57-1.97.99-.55.44-.98.97-1.29,1.59s-.46,1.31-.46,2.08c.02.81.23,1.53.63,2.14.41.61.95,1.14,1.64,1.6.7.46,1.5.85,2.4,1.2s1.85.66,2.84.95c1.25.36,2.48.8,3.67,1.33,1.2.53,2.3,1.17,3.31,1.92,1.25.94,2.26,2.07,3.02,3.38s1.14,2.82,1.14,4.53c0,1.58-.33,2.97-.99,4.17-.66,1.21-1.54,2.21-2.65,3-1.12.83-2.43,1.45-3.91,1.87-1.48.41-3.04.62-4.69.62-1.74,0-3.46-.27-5.15-.82-1.69-.55-3.17-1.34-4.42-2.38-1.16-.98-2.07-2.12-2.75-3.44s-1.02-2.83-1.04-4.54h5.86c.08,1.09.31,2.04.7,2.84.38.8.91,1.47,1.57,1.99.65.54,1.42.94,2.31,1.2.89.26,1.86.39,2.92.39.9,0,1.73-.11,2.5-.32s1.44-.53,2.01-.95c.55-.41,1-.91,1.33-1.51.33-.6.5-1.29.5-2.08,0-.83-.17-1.56-.51-2.2h.02Z"/><path class="cls-3" d="M85.9,610.8v21.58h7.76v4.83h-21.78v-4.83h8.13v-16.72h-8.13v-4.86h14.02ZM79.73,602.66c.16-.4.4-.74.71-1.04.29-.28.65-.49,1.06-.65.42-.16.88-.23,1.4-.23.88,0,1.59.22,2.14.67.54.45.86,1.02.94,1.72.11.72,0,1.34-.37,1.87-.36.53-.88.88-1.56,1.06-.34.31-.75.51-1.22.61s-.99.06-1.56-.12c-.59-.18-1.03-.5-1.33-.96s-.45-1-.45-1.62c0-.47.08-.91.24-1.31h0Z"/><path class="cls-3" d="M100.55,610.8h5.27l.37,3.76c.36-.5.75-.97,1.18-1.4.43-.43.89-.82,1.38-1.16.78-.54,1.64-.95,2.56-1.25s1.9-.44,2.93-.44c1.35,0,2.59.2,3.71.59s2.08,1.01,2.88,1.86c.8.85,1.42,1.92,1.86,3.23s.66,2.89.66,4.75v16.48h-5.83v-16.38c0-1.09-.12-2-.37-2.73s-.6-1.32-1.07-1.76-1.04-.75-1.71-.94-1.43-.28-2.29-.28c-.72,0-1.38.09-2,.28s-1.18.45-1.68.79c-.39.26-.76.58-1.1.95-.34.38-.64.78-.9,1.22v18.85h-5.83v-26.42h-.02Z"/><path class="cls-3" d="M130.53,618.33c.49-1.65,1.2-3.07,2.12-4.26.93-1.19,2.05-2.11,3.36-2.77,1.31-.66,2.79-.99,4.43-.99.98,0,1.86.1,2.66.3s1.52.5,2.17.89c.42.24.82.53,1.2.87.37.33.72.7,1.05,1.09l.24-2.66h5.3v25.68c0,1.77-.29,3.35-.87,4.72-.58,1.38-1.39,2.54-2.43,3.5-1.06.94-2.32,1.66-3.8,2.16-1.47.5-3.1.74-4.87.74-.75,0-1.57-.08-2.47-.24s-1.79-.42-2.69-.76c-.9-.34-1.75-.79-2.56-1.34-.81-.55-1.51-1.22-2.1-2l2.76-3.54c.47.57.98,1.06,1.53,1.48.54.41,1.1.75,1.67,1.01.57.26,1.15.45,1.73.57.59.12,1.18.18,1.78.18,1.04,0,1.97-.15,2.77-.44s1.49-.72,2.06-1.27c.52-.54.92-1.2,1.21-1.98.28-.78.43-1.67.43-2.66v-1.83c-.34.36-.7.69-1.06,1-.37.31-.76.58-1.18.81-.63.36-1.33.63-2.1.82s-1.6.28-2.49.28c-1.63,0-3.09-.34-4.39-1.01s-2.42-1.61-3.34-2.82c-.91-1.19-1.62-2.6-2.11-4.24-.5-1.64-.74-3.41-.74-5.31v-.51c0-2,.24-3.83.73-5.48h0ZM136.01,627.65c.24,1.04.61,1.95,1.14,2.71.5.8,1.15,1.42,1.93,1.87s1.71.67,2.78.67c.67,0,1.27-.07,1.82-.22.54-.15,1.04-.35,1.48-.61.44-.28.83-.61,1.17-1s.64-.82.9-1.29v-11.57c-.26-.49-.57-.93-.94-1.32s-.79-.72-1.26-1c-.42-.23-.9-.41-1.42-.55s-1.09-.21-1.71-.21c-1.09,0-2.03.23-2.81.68-.78.46-1.42,1.08-1.93,1.88-.52.8-.9,1.72-1.15,2.77-.24,1.05-.37,2.17-.37,3.36v.51c0,1.17.12,2.28.35,3.32h.02Z"/><path class="cls-3" d="M175.92,599.72v32.67h8.01v4.83h-22.24v-4.83h8.35v-27.81h-8.35v-4.86h14.23Z"/><path class="cls-3" d="M197.54,636.73c-1.62-.65-3.01-1.55-4.16-2.71-1.16-1.14-2.05-2.49-2.67-4.04-.63-1.55-.94-3.24-.94-5.04v-1c0-2.07.33-3.94.98-5.62s1.55-3.11,2.69-4.3,2.46-2.1,3.97-2.75c1.51-.64,3.11-.96,4.82-.96,1.9,0,3.59.32,5.05.96s2.69,1.53,3.69,2.67c.99,1.16,1.74,2.53,2.25,4.13.5,1.6.76,3.34.76,5.22v2.51h-18.31v.12c.18,1.16.46,2.12.83,2.91.37.78.89,1.48,1.54,2.1.65.65,1.42,1.16,2.31,1.51.89.36,1.86.54,2.92.54,1.45,0,2.8-.28,4.05-.84s2.29-1.36,3.1-2.4l3.12,3.03c-.88,1.27-2.23,2.41-4.04,3.42s-4.01,1.51-6.58,1.51c-1.95,0-3.74-.33-5.36-.98h-.02ZM199.88,615.5c-.71.3-1.34.73-1.89,1.28-.55.57-1.02,1.25-1.39,2.05s-.65,1.7-.83,2.71h12.43v-.39c0-.76-.14-1.53-.42-2.28-.28-.76-.67-1.42-1.17-1.99-.49-.55-1.1-1-1.84-1.33-.74-.33-1.6-.5-2.58-.5-.83,0-1.6.15-2.31.45h0Z"/><path class="cls-3" d="M267.5,637.22l-11.55-24.46-.02,24.46h-5.93v-35.55h5.96l11.47,24.37.05-24.37h5.91v35.55h-5.89Z"/><path class="cls-3" d="M280.34,618.43c.55-1.63,1.36-3.05,2.42-4.26,1.04-1.2,2.32-2.15,3.83-2.83s3.24-1.03,5.18-1.03,3.67.34,5.19,1.03c1.52.68,2.81,1.63,3.87,2.83,1.04,1.21,1.84,2.62,2.39,4.26.55,1.64.83,3.42.83,5.33v.51c0,1.94-.28,3.72-.83,5.35s-1.35,3.04-2.39,4.25-2.32,2.15-3.85,2.83c-1.52.68-3.24,1.03-5.16,1.03s-3.67-.34-5.2-1.03c-1.53-.68-2.82-1.63-3.86-2.83-1.06-1.2-1.86-2.62-2.42-4.25-.55-1.63-.83-3.41-.83-5.35v-.51c0-1.92.28-3.7.83-5.33h0ZM285.72,627.65c.25,1.06.65,1.99,1.18,2.78.52.8,1.19,1.43,2,1.89s1.78.7,2.91.7,2.04-.23,2.86-.7c.81-.46,1.48-1.09,2-1.89s.91-1.72,1.16-2.78c.25-1.06.38-2.18.38-3.37v-.51c0-1.16-.13-2.26-.39-3.32s-.64-1.99-1.15-2.78c-.54-.8-1.21-1.43-2.01-1.9-.81-.47-1.77-.71-2.89-.71s-2.06.24-2.87.71c-.81.47-1.47,1.11-1.99,1.9-.54.8-.93,1.73-1.18,2.78-.25,1.06-.38,2.17-.38,3.32v.51c0,1.19.13,2.31.38,3.37h0Z"/><path class="cls-3" d="M310.53,618.33c.48-1.65,1.18-3.07,2.09-4.26.9-1.19,1.99-2.11,3.28-2.77,1.29-.66,2.75-.99,4.38-.99,1.46,0,2.75.26,3.85.77s2.07,1.24,2.92,2.18v-13.55h5.83v37.5h-5.3l-.27-2.76c-.85,1.04-1.86,1.84-3.03,2.41-1.17.56-2.52.84-4.05.84-1.61,0-3.06-.34-4.35-1.01s-2.38-1.61-3.27-2.82c-.9-1.19-1.59-2.6-2.08-4.24s-.73-3.41-.73-5.31v-.51c0-2,.24-3.83.72-5.48h0ZM315.98,627.65c.23,1.04.59,1.95,1.07,2.71.49.8,1.11,1.42,1.88,1.87.76.45,1.68.67,2.76.67,1.32,0,2.41-.29,3.27-.87s1.55-1.36,2.08-2.36v-11.35c-.52-.98-1.21-1.75-2.06-2.33s-1.93-.87-3.23-.87c-1.09,0-2.02.23-2.8.68-.77.46-1.4,1.08-1.87,1.88-.5.8-.87,1.72-1.1,2.77-.23,1.05-.34,2.17-.34,3.36v.51c0,1.17.11,2.28.34,3.32h0Z"/><path class="cls-3" d="M347.56,636.73c-1.62-.65-3.01-1.55-4.16-2.71-1.16-1.14-2.05-2.49-2.67-4.04-.63-1.55-.94-3.24-.94-5.04v-1c0-2.07.33-3.94.98-5.62.65-1.68,1.55-3.11,2.69-4.3s2.46-2.1,3.97-2.75c1.51-.64,3.11-.96,4.82-.96,1.9,0,3.59.32,5.05.96s2.69,1.53,3.69,2.67c.99,1.16,1.74,2.53,2.25,4.13.5,1.6.76,3.34.76,5.22v2.51h-18.31v.12c.18,1.16.46,2.12.83,2.91.37.78.89,1.48,1.54,2.1.65.65,1.42,1.16,2.31,1.51.89.36,1.86.54,2.92.54,1.45,0,2.8-.28,4.05-.84s2.29-1.36,3.1-2.4l3.12,3.03c-.88,1.27-2.23,2.41-4.04,3.42s-4.01,1.51-6.58,1.51c-1.95,0-3.74-.33-5.36-.98h-.02ZM349.9,615.5c-.71.3-1.34.73-1.89,1.28-.55.57-1.02,1.25-1.39,2.05-.37.8-.65,1.7-.83,2.71h12.43v-.39c0-.76-.14-1.53-.42-2.28-.28-.76-.67-1.42-1.17-1.99-.49-.55-1.1-1-1.84-1.33s-1.6-.5-2.58-.5c-.83,0-1.6.15-2.31.45h0Z"/><path class="cls-3" d="M424.17,625.96c-.25,1.33-.61,2.6-1.09,3.78-.5,1.19-1.13,2.28-1.88,3.28s-1.61,1.86-2.59,2.58c-.94.65-1.99,1.16-3.14,1.54s-2.4.56-3.77.56-2.71-.2-3.89-.6c-1.18-.4-2.23-.95-3.16-1.65-.94-.72-1.77-1.58-2.48-2.59-.71-1.01-1.3-2.12-1.77-3.32-.46-1.16-.8-2.39-1.03-3.7s-.34-2.66-.34-4.04v-4.69c0-1.45.12-2.85.37-4.2.24-1.35.61-2.63,1.1-3.83.47-1.16,1.05-2.22,1.75-3.19.69-.97,1.51-1.81,2.45-2.53.91-.7,1.95-1.24,3.11-1.62,1.16-.38,2.45-.57,3.85-.57s2.72.2,3.91.59,2.25.94,3.2,1.64c.94.7,1.77,1.52,2.47,2.47.7.94,1.29,1.98,1.76,3.1.52,1.21.91,2.49,1.17,3.87s.39,2.8.39,4.28v4.69c0,1.43-.13,2.82-.38,4.15h-.01ZM418.48,614.44c-.09-.86-.24-1.68-.45-2.47-.24-.89-.57-1.71-.96-2.45-.4-.74-.88-1.37-1.45-1.89-.5-.46-1.08-.81-1.73-1.07-.65-.26-1.39-.39-2.22-.39s-1.51.13-2.15.38c-.63.25-1.19.6-1.66,1.04-.57.54-1.05,1.18-1.44,1.92s-.69,1.57-.9,2.48c-.2.78-.34,1.61-.43,2.48s-.13,1.75-.13,2.62v4.74c0,.86.04,1.72.12,2.56.08.85.22,1.66.42,2.44.21.88.5,1.7.87,2.45.37.76.81,1.4,1.33,1.92.5.49,1.09.88,1.75,1.16.66.29,1.42.43,2.28.43s1.58-.14,2.26-.42c.68-.28,1.26-.65,1.75-1.12.57-.54,1.05-1.18,1.43-1.92s.69-1.56.92-2.45c.2-.78.34-1.6.43-2.45.09-.86.14-1.72.16-2.6v-4.74c-.02-.89-.07-1.77-.16-2.64h-.04Z"/><path class="cls-3" d="M430.65,610.8h5.37l.22,2.71c.36-.44.75-.84,1.17-1.2s.88-.67,1.37-.93c.63-.34,1.33-.61,2.1-.79.76-.19,1.58-.28,2.44-.28,1.69,0,3.19.33,4.48.98,1.29.65,2.38,1.57,3.26,2.76.86,1.19,1.52,2.61,1.98,4.26.46,1.65.68,3.47.68,5.46v.51c0,1.9-.22,3.68-.67,5.32s-1.11,3.06-1.99,4.25c-.88,1.21-1.96,2.15-3.25,2.83s-2.76,1.03-4.42,1.03c-.94,0-1.81-.1-2.6-.29-.79-.2-1.52-.48-2.19-.85-.39-.23-.77-.49-1.12-.78-.36-.29-.69-.61-1-.95v12.55h-5.83v-36.59ZM447.54,620.41c-.24-1.05-.6-1.97-1.09-2.75-.5-.78-1.15-1.4-1.93-1.86-.78-.46-1.72-.68-2.81-.68-.6,0-1.16.07-1.68.2s-.98.32-1.39.56c-.47.26-.88.59-1.23.98-.35.39-.66.83-.92,1.32v11.74c.23.46.5.87.83,1.25s.7.7,1.12.98c.44.26.94.47,1.49.62s1.16.23,1.83.23c1.09,0,2.02-.23,2.8-.7.77-.46,1.4-1.09,1.89-1.89.5-.81.87-1.75,1.1-2.8s.34-2.16.34-3.33v-.51c0-1.19-.12-2.31-.35-3.36h0Z"/><path class="cls-3" d="M467.58,636.73c-1.62-.65-3.01-1.55-4.16-2.71-1.16-1.14-2.05-2.49-2.67-4.04-.63-1.55-.94-3.24-.94-5.04v-1c0-2.07.33-3.94.98-5.62.65-1.68,1.55-3.11,2.69-4.3s2.46-2.1,3.97-2.75c1.51-.64,3.11-.96,4.82-.96,1.9,0,3.59.32,5.05.96s2.69,1.53,3.69,2.67c.99,1.16,1.74,2.53,2.25,4.13.5,1.6.76,3.34.76,5.22v2.51h-18.31v.12c.18,1.16.46,2.12.83,2.91.37.78.89,1.48,1.54,2.1.65.65,1.42,1.16,2.31,1.51.89.36,1.86.54,2.92.54,1.45,0,2.8-.28,4.05-.84s2.29-1.36,3.1-2.4l3.12,3.03c-.88,1.27-2.23,2.41-4.04,3.42s-4.01,1.51-6.58,1.51c-1.95,0-3.74-.33-5.36-.98h-.02ZM469.92,615.5c-.71.3-1.34.73-1.89,1.28-.55.57-1.02,1.25-1.39,2.05-.37.8-.65,1.7-.83,2.71h12.43v-.39c0-.76-.14-1.53-.42-2.28-.28-.76-.67-1.42-1.17-1.99-.49-.55-1.1-1-1.84-1.33s-1.6-.5-2.58-.5c-.83,0-1.6.15-2.31.45h0Z"/><path class="cls-3" d="M490.62,610.8h5.27l.37,3.76c.36-.5.75-.97,1.18-1.4.43-.43.89-.82,1.38-1.16.78-.54,1.64-.95,2.56-1.25s1.9-.44,2.93-.44c1.35,0,2.59.2,3.71.59s2.08,1.01,2.88,1.86c.8.85,1.42,1.92,1.86,3.23s.66,2.89.66,4.75v16.48h-5.83v-16.38c0-1.09-.12-2-.37-2.73s-.6-1.32-1.07-1.76-1.04-.75-1.71-.94c-.67-.19-1.43-.28-2.29-.28-.72,0-1.38.09-2,.28s-1.18.45-1.68.79c-.39.26-.76.58-1.1.95-.34.38-.64.78-.9,1.22v18.85h-5.83v-26.42h-.02Z"/><path class="cls-3" d="M538.49,625.87c-.34-.63-.82-1.2-1.44-1.71-.65-.47-1.42-.9-2.31-1.28s-1.88-.73-2.97-1.04c-1.68-.47-3.22-1.05-4.63-1.75-1.41-.69-2.61-1.47-3.6-2.33-.99-.88-1.77-1.88-2.33-2.99s-.84-2.37-.84-3.77c0-1.51.33-2.88.98-4.09.65-1.21,1.53-2.25,2.64-3.11,1.11-.85,2.4-1.49,3.87-1.94s3.02-.67,4.65-.67c1.73,0,3.33.26,4.82.79,1.49.53,2.79,1.27,3.89,2.21,1.11.96,1.98,2.1,2.62,3.43s.96,2.79.96,4.41h-5.81c-.08-.89-.27-1.71-.57-2.45s-.72-1.38-1.26-1.92c-.55-.52-1.23-.93-2.01-1.23-.79-.3-1.7-.45-2.72-.45-.9,0-1.72.12-2.48.35-.76.24-1.41.57-1.97.99-.55.44-.98.97-1.29,1.59s-.46,1.31-.46,2.08c.02.81.23,1.53.63,2.14.41.61.95,1.14,1.64,1.6.7.46,1.5.85,2.4,1.2s1.85.66,2.84.95c1.25.36,2.48.8,3.67,1.33,1.2.53,2.3,1.17,3.31,1.92,1.25.94,2.26,2.07,3.02,3.38s1.14,2.82,1.14,4.53c0,1.58-.33,2.97-.99,4.17-.66,1.21-1.54,2.21-2.65,3-1.12.83-2.43,1.45-3.91,1.87-1.48.41-3.04.62-4.69.62-1.74,0-3.46-.27-5.15-.82s-3.17-1.34-4.42-2.38c-1.16-.98-2.07-2.12-2.75-3.44s-1.02-2.83-1.04-4.54h5.86c.08,1.09.31,2.04.7,2.84.38.8.91,1.47,1.57,1.99.65.54,1.42.94,2.31,1.2s1.86.39,2.92.39c.9,0,1.73-.11,2.5-.32s1.44-.53,2.01-.95c.55-.41,1-.91,1.33-1.51.33-.6.5-1.29.5-2.08,0-.83-.17-1.56-.51-2.2h.02Z"/><path class="cls-3" d="M557.61,613.12c.42-.44.87-.82,1.34-1.15.73-.54,1.54-.95,2.43-1.23.89-.29,1.83-.43,2.82-.43,1.38,0,2.65.2,3.8.61,1.15.41,2.13,1.04,2.94,1.9.81.86,1.44,1.97,1.89,3.31s.67,2.95.67,4.82v16.26h-5.83v-16.31c0-.98-.12-1.83-.35-2.56-.24-.73-.58-1.33-1.04-1.78-.47-.49-1.05-.85-1.72-1.09-.68-.24-1.45-.35-2.33-.35-.68,0-1.33.08-1.94.24s-1.17.4-1.67.71c-.42.24-.82.54-1.18.88s-.69.72-.96,1.15v19.12h-5.83v-37.5h5.83v14.84c.34-.52.72-1,1.15-1.44h-.02Z"/><path class="cls-3" d="M595.99,610.8v21.58h7.76v4.83h-21.78v-4.83h8.13v-16.72h-8.13v-4.86h14.02ZM589.81,602.66c.16-.4.4-.74.71-1.04.29-.28.65-.49,1.06-.65.42-.16.88-.23,1.4-.23.88,0,1.59.22,2.14.67.54.45.86,1.02.94,1.72.11.72,0,1.34-.37,1.87-.36.53-.88.88-1.56,1.06-.34.31-.75.51-1.22.61s-.99.06-1.56-.12c-.59-.18-1.03-.5-1.33-.96s-.45-1-.45-1.62c0-.47.08-.91.24-1.31h0Z"/><path class="cls-3" d="M617.28,615.17h-7.08v-4.37h7.08v-1.61c0-1.72.26-3.24.79-4.55.53-1.31,1.28-2.41,2.26-3.31.98-.88,2.15-1.55,3.53-2,1.38-.46,2.92-.68,4.63-.68.6,0,1.19.03,1.77.09s1.14.13,1.7.21c.46.07.92.14,1.39.23.47.09.95.18,1.44.28l-.46,4.66c-.65-.18-1.39-.33-2.21-.46s-1.75-.2-2.8-.2-2.03.13-2.82.39-1.44.64-1.94,1.15c-.47.47-.83,1.06-1.06,1.76-.24.7-.35,1.51-.35,2.44v1.61h9.79v4.37h-9.79v22.05h-5.86v-22.05h-.01Z"/><path class="cls-3" d="M652.36,610.8h9.94v4.37h-9.94v12.62c0,.98.12,1.79.35,2.45.24.66.57,1.18.99,1.55.42.39.93.67,1.51.83.59.16,1.23.24,1.93.24.5,0,1.03-.02,1.56-.07s1.06-.11,1.56-.2c.49-.06.95-.14,1.38-.23.43-.09.79-.17,1.09-.23l.63,4.03c-.42.26-.93.48-1.53.67-.59.19-1.23.35-1.92.48s-1.4.23-2.14.3-1.48.11-2.21.11c-1.33,0-2.56-.18-3.67-.55-1.12-.37-2.07-.94-2.87-1.72-.8-.76-1.42-1.75-1.87-2.95s-.67-2.65-.67-4.35v-12.99h-6.4v-4.37h6.4v-6.45h5.86v6.45h.02Z"/></g></svg>