<svg version="1.1" viewBox="0.0 0.0 576.0 240.0" fill="none" stroke="none" stroke-linecap="square" stroke-miterlimit="10" xmlns:xlink="http://www.w3.org/1999/xlink" xmlns="http://www.w3.org/2000/svg"><clipPath id="g2d2340f822e_0_67.0"><path d="m0 0l576.0 0l0 240.0l-576.0 0l0 -240.0z" clip-rule="nonzero"/></clipPath><g clip-path="url(#g2d2340f822e_0_67.0)"><path fill="#ffffff" d="m0 0l576.0 0l0 240.0l-576.0 0z" fill-rule="evenodd"/><path fill="#4285f4" d="m212.07948 106.99213l139.2441 0l0 26.078735l-139.2441 0z" fill-rule="evenodd"/><path fill="#ffffff" d="m222.04477 118.14649l0 1.03125l1.734375 0l0 3.5625l-1.734375 0l0 1.03125l4.640625 0l0 -1.03125l-1.65625 0l0 -4.59375l-2.984375 0zm1.609375 -1.46875q0 0.203125 0.09375 0.359375q0.109375 0.140625 0.296875 0.203125q0.171875 0.046875 0.328125 0.015625q0.15625 -0.03125 0.265625 -0.125q0.21875 -0.0625 0.328125 -0.21875q0.109375 -0.171875 0.078125 -0.40625q-0.03125 -0.21875 -0.203125 -0.359375q-0.171875 -0.15625 -0.453125 -0.15625q-0.171875 0 -0.3125 0.0625q-0.125 0.046875 -0.21875 0.125q-0.09375 0.09375 -0.15625 0.234375q-0.046875 0.125 -0.046875 0.265625zm4.5041656 7.09375l1.234375 0l0 -4.015625q0.09375 -0.140625 0.203125 -0.25q0.109375 -0.125 0.234375 -0.21875q0.15625 -0.109375 0.34375 -0.15625q0.203125 -0.0625 0.4375 -0.0625q0.265625 0 0.484375 0.0625q0.21875 0.046875 0.359375 0.1875q0.15625 0.140625 0.234375 0.375q0.078125 0.234375 0.078125 0.59375l0 3.484375l1.25 0l0 -3.515625q0 -0.59375 -0.140625 -1.0q-0.140625 -0.421875 -0.40625 -0.703125q-0.25 -0.265625 -0.609375 -0.390625q-0.359375 -0.125 -0.796875 -0.125q-0.328125 0 -0.625 0.09375q-0.296875 0.09375 -0.53125 0.265625q-0.15625 0.109375 -0.296875 0.25q-0.140625 0.140625 -0.25 0.296875l-0.078125 -0.796875l-1.125 0l0 5.625zm10.066666 -1.53125q0 0.140625 -0.0625 0.25q-0.0625 0.109375 -0.171875 0.203125q-0.15625 0.125 -0.40625 0.1875q-0.234375 0.0625 -0.546875 0.0625q-0.25 0 -0.484375 -0.046875q-0.21875 -0.046875 -0.40625 -0.15625q-0.1875 -0.109375 -0.3125 -0.28125q-0.125 -0.1875 -0.140625 -0.453125l-1.203125 0q0 0.34375 0.15625 0.6875q0.171875 0.34375 0.5 0.59375q0.3125 0.265625 0.78125 0.4375q0.484375 0.15625 1.078125 0.15625q0.546875 0 1.0 -0.125q0.453125 -0.125 0.765625 -0.34375q0.328125 -0.234375 0.5 -0.546875q0.171875 -0.3125 0.171875 -0.6875q0 -0.375 -0.171875 -0.65625q-0.15625 -0.28125 -0.46875 -0.484375q-0.296875 -0.203125 -0.734375 -0.328125q-0.421875 -0.140625 -0.9375 -0.234375q-0.359375 -0.0625 -0.609375 -0.140625q-0.234375 -0.078125 -0.375 -0.171875q-0.140625 -0.09375 -0.203125 -0.203125q-0.046875 -0.125 -0.046875 -0.265625q0 -0.140625 0.0625 -0.265625q0.0625 -0.140625 0.203125 -0.234375q0.140625 -0.09375 0.34375 -0.15625q0.203125 -0.0625 0.484375 -0.0625q0.3125 0 0.53125 0.078125q0.234375 0.078125 0.390625 0.21875q0.125 0.109375 0.1875 0.265625q0.0625 0.140625 0.0625 0.296875l1.25 0q0 -0.390625 -0.171875 -0.71875q-0.171875 -0.328125 -0.46875 -0.5625q-0.3125 -0.234375 -0.765625 -0.375q-0.453125 -0.140625 -1.015625 -0.140625q-0.515625 0 -0.953125 0.140625q-0.421875 0.125 -0.71875 0.359375q-0.3125 0.234375 -0.484375 0.546875q-0.15625 0.3125 -0.15625 0.65625q0 0.359375 0.15625 0.640625q0.171875 0.265625 0.453125 0.453125q0.296875 0.21875 0.6875 0.359375q0.40625 0.140625 0.890625 0.234375q0.390625 0.078125 0.65625 0.171875q0.265625 0.078125 0.421875 0.171875q0.15625 0.09375 0.21875 0.21875q0.0625 0.109375 0.0625 0.25zm5.2072906 -5.46875l-1.234375 0l0 1.375l-1.375 0l0 0.921875l1.375 0l0 2.765625q0 0.546875 0.140625 0.9375q0.140625 0.375 0.390625 0.625q0.25 0.25 0.609375 0.375q0.359375 0.109375 0.78125 0.109375q0.234375 0 0.46875 -0.03125q0.25 -0.015625 0.46875 -0.0625q0.21875 -0.03125 0.40625 -0.09375q0.1875 -0.0625 0.328125 -0.140625l-0.140625 -0.859375q-0.09375 0.015625 -0.234375 0.046875q-0.140625 0.03125 -0.296875 0.046875q-0.15625 0.03125 -0.328125 0.046875q-0.171875 0.015625 -0.328125 0.015625q-0.234375 0 -0.421875 -0.046875q-0.1875 -0.0625 -0.3125 -0.1875q-0.140625 -0.125 -0.21875 -0.328125q-0.078125 -0.21875 -0.078125 -0.53125l0 -2.6875l2.125 0l0 -0.921875l-2.125 0l0 -1.375zm7.5041656 7.0l1.265625 0l0 -0.09375q-0.109375 -0.21875 -0.171875 -0.515625q-0.046875 -0.3125 -0.046875 -0.6875l0 -2.5q0 -0.484375 -0.171875 -0.84375q-0.171875 -0.375 -0.484375 -0.609375q-0.3125 -0.234375 -0.75 -0.359375q-0.421875 -0.125 -0.921875 -0.125q-0.546875 0 -0.984375 0.140625q-0.421875 0.140625 -0.71875 0.390625q-0.296875 0.234375 -0.453125 0.546875q-0.15625 0.3125 -0.15625 0.65625l1.25 0q0 -0.15625 0.046875 -0.296875q0.0625 -0.15625 0.1875 -0.25q0.125 -0.109375 0.3125 -0.171875q0.1875 -0.0625 0.453125 -0.0625q0.28125 0 0.484375 0.078125q0.21875 0.0625 0.375 0.1875q0.140625 0.140625 0.21875 0.3125q0.078125 0.171875 0.078125 0.390625l0 0.390625l-0.90625 0q-0.609375 0 -1.09375 0.109375q-0.484375 0.109375 -0.8125 0.328125q-0.34375 0.234375 -0.53125 0.59375q-0.1875 0.359375 -0.1875 0.8125q0 0.359375 0.140625 0.671875q0.140625 0.3125 0.40625 0.53125q0.25 0.21875 0.609375 0.359375q0.375 0.125 0.8125 0.125q0.265625 0 0.5 -0.0625q0.234375 -0.046875 0.4375 -0.140625q0.203125 -0.09375 0.359375 -0.203125q0.171875 -0.125 0.296875 -0.265625q0.03125 0.15625 0.0625 0.3125q0.03125 0.140625 0.09375 0.25zm-1.515625 -0.890625q-0.234375 0 -0.421875 -0.0625q-0.171875 -0.0625 -0.296875 -0.171875q-0.109375 -0.09375 -0.171875 -0.234375q-0.0625 -0.15625 -0.0625 -0.328125q0 -0.21875 0.0625 -0.375q0.078125 -0.171875 0.234375 -0.296875q0.1875 -0.140625 0.46875 -0.203125q0.296875 -0.078125 0.703125 -0.078125l0.8125 0l0 1.03125q-0.078125 0.140625 -0.203125 0.265625q-0.125 0.125 -0.296875 0.21875q-0.171875 0.109375 -0.390625 0.171875q-0.203125 0.0625 -0.4375 0.0625zm4.5510406 -7.109375l0 1.046875l1.78125 0l0 5.921875l-1.78125 0l0 1.03125l4.7343903 0l0 -1.03125l-1.703125 0l0 -6.96875l-3.0312653 0zm6.3947906 0l0 1.046875l1.78125 0l0 5.921875l-1.78125 0l0 1.03125l4.734375 0l0 -1.03125l-1.703125 0l0 -6.96875l-3.03125 0zm10.863556 5.171875l0 -1.0l-4.1875 0l0 1.0l4.1875 0zm4.1291504 1.9375q-0.390625 0 -0.65625 -0.15625q-0.25 -0.15625 -0.390625 -0.421875q-0.15625 -0.25 -0.234375 -0.578125q-0.0625 -0.328125 -0.0625 -0.671875l0 -0.1875q0 -0.328125 0.0625 -0.65625q0.078125 -0.328125 0.234375 -0.59375q0.15625 -0.25 0.40625 -0.40625q0.25 -0.15625 0.640625 -0.15625q0.265625 0 0.484375 0.09375q0.21875 0.078125 0.375 0.234375q0.15625 0.140625 0.234375 0.34375q0.09375 0.203125 0.09375 0.4375l1.171875 0q0.015625 -0.46875 -0.171875 -0.859375q-0.171875 -0.390625 -0.484375 -0.671875q-0.3125 -0.28125 -0.75 -0.4375q-0.421875 -0.15625 -0.9375 -0.15625q-0.640625 0 -1.125 0.234375q-0.484375 0.21875 -0.8125 0.609375q-0.328125 0.375 -0.5 0.890625q-0.15625 0.515625 -0.15625 1.09375l0 0.1875q0 0.578125 0.15625 1.09375q0.171875 0.515625 0.5 0.890625q0.328125 0.390625 0.8125 0.625q0.484375 0.21875 1.125 0.21875q0.46875 0 0.890625 -0.15625q0.4375 -0.15625 0.765625 -0.421875q0.3125 -0.265625 0.5 -0.625q0.203125 -0.359375 0.1875 -0.765625l-1.171875 0q0 0.203125 -0.09375 0.390625q-0.09375 0.171875 -0.25 0.296875q-0.171875 0.140625 -0.390625 0.21875q-0.21875 0.0625 -0.453125 0.0625zm3.722931 -1.96875l0 0.109375q0 0.609375 0.171875 1.140625q0.1875 0.515625 0.515625 0.890625q0.34375 0.390625 0.828125 0.609375q0.484375 0.21875 1.109375 0.21875q0.609375 0 1.09375 -0.21875q0.484375 -0.21875 0.828125 -0.609375q0.328125 -0.375 0.5 -0.890625q0.1875 -0.53125 0.1875 -1.140625l0 -0.109375q0 -0.625 -0.1875 -1.140625q-0.171875 -0.53125 -0.5 -0.90625q-0.34375 -0.390625 -0.828125 -0.609375q-0.484375 -0.21875 -1.109375 -0.21875q-0.609375 0 -1.09375 0.21875q-0.484375 0.21875 -0.828125 0.609375q-0.328125 0.375 -0.515625 0.90625q-0.171875 0.515625 -0.171875 1.140625zm1.25 0.109375l0 -0.109375q0 -0.375 0.078125 -0.703125q0.078125 -0.34375 0.25 -0.609375q0.171875 -0.25 0.421875 -0.390625q0.25 -0.15625 0.609375 -0.15625q0.359375 0 0.609375 0.15625q0.265625 0.140625 0.4375 0.390625q0.15625 0.265625 0.234375 0.609375q0.09375 0.328125 0.09375 0.703125l0 0.109375q0 0.375 -0.078125 0.71875q-0.078125 0.328125 -0.25 0.578125q-0.171875 0.265625 -0.4375 0.421875q-0.25 0.140625 -0.59375 0.140625q-0.359375 0 -0.625 -0.140625q-0.25 -0.15625 -0.421875 -0.421875q-0.171875 -0.25 -0.25 -0.578125q-0.078125 -0.34375 -0.078125 -0.71875zm5.3791504 2.75l1.234375 0l0 -4.015625q0.09375 -0.140625 0.203125 -0.25q0.109375 -0.125 0.234375 -0.21875q0.15625 -0.109375 0.34375 -0.15625q0.203125 -0.0625 0.4375 -0.0625q0.265625 0 0.484375 0.0625q0.21875 0.046875 0.359375 0.1875q0.15625 0.140625 0.234375 0.375q0.078125 0.234375 0.078125 0.59375l0 3.484375l1.25 0l0 -3.515625q0 -0.59375 -0.140625 -1.0q-0.140625 -0.421875 -0.40625 -0.703125q-0.25 -0.265625 -0.609375 -0.390625q-0.359375 -0.125 -0.796875 -0.125q-0.328125 0 -0.625 0.09375q-0.296875 0.09375 -0.53125 0.265625q-0.15625 0.109375 -0.296875 0.25q-0.140625 0.140625 -0.25 0.296875l-0.078125 -0.796875l-1.125 0l0 5.625zm7.801056 0l1.25 0l0 -4.703125l2.09375 0l0 -0.921875l-2.09375 0l0 -0.34375q0 -0.296875 0.078125 -0.515625q0.078125 -0.234375 0.21875 -0.390625q0.171875 -0.15625 0.421875 -0.234375q0.25 -0.09375 0.59375 -0.09375q0.34375 0 0.59375 0.046875q0.265625 0.046875 0.484375 0.09375l0.09375 -0.984375q-0.15625 -0.03125 -0.3125 -0.0625q-0.140625 -0.03125 -0.296875 -0.046875q-0.171875 -0.03125 -0.359375 -0.046875q-0.1875 -0.015625 -0.375 -0.015625q-0.546875 0 -0.984375 0.140625q-0.4375 0.140625 -0.75 0.421875q-0.3125 0.296875 -0.484375 0.71875q-0.171875 0.40625 -0.171875 0.96875l0 0.34375l-1.5 0l0 0.921875l1.5 0l0 4.703125zm5.2697754 -5.625l0 1.03125l1.734375 0l0 3.5625l-1.734375 0l0 1.03125l4.640625 0l0 -1.03125l-1.65625 0l0 -4.59375l-2.984375 0zm1.609375 -1.46875q0 0.203125 0.09375 0.359375q0.109375 0.140625 0.296875 0.203125q0.171875 0.046875 0.328125 0.015625q0.15625 -0.03125 0.265625 -0.125q0.21875 -0.0625 0.328125 -0.21875q0.109375 -0.171875 0.078125 -0.40625q-0.03125 -0.21875 -0.203125 -0.359375q-0.171875 -0.15625 -0.453125 -0.15625q-0.171875 0 -0.3125 0.0625q-0.125 0.046875 -0.21875 0.125q-0.09375 0.09375 -0.15625 0.234375q-0.046875 0.125 -0.046875 0.265625zm4.332306 4.234375l0 0.109375q0 0.609375 0.15625 1.140625q0.171875 0.515625 0.453125 0.890625q0.296875 0.390625 0.71875 0.609375q0.421875 0.21875 0.9375 0.21875q0.28125 0 0.515625 -0.0625q0.25 -0.0625 0.453125 -0.171875q0.140625 -0.078125 0.25 -0.171875q0.125 -0.109375 0.234375 -0.21875l0 0.390625q0 0.3125 -0.09375 0.5625q-0.09375 0.25 -0.25 0.421875q-0.1875 0.1875 -0.453125 0.28125q-0.25 0.09375 -0.578125 0.09375q-0.203125 0 -0.390625 -0.046875q-0.171875 -0.03125 -0.359375 -0.125q-0.1875 -0.078125 -0.359375 -0.21875q-0.171875 -0.125 -0.328125 -0.3125l-0.578125 0.765625q0.1875 0.25 0.4375 0.421875q0.265625 0.171875 0.546875 0.28125q0.296875 0.109375 0.578125 0.15625q0.28125 0.0625 0.515625 0.0625q0.578125 0 1.046875 -0.15625q0.46875 -0.15625 0.8125 -0.46875q0.328125 -0.296875 0.515625 -0.75q0.1875 -0.4375 0.1875 -1.0l0 -5.46875l-1.140625 0l-0.046875 0.5625q-0.109375 -0.125 -0.234375 -0.234375q-0.109375 -0.109375 -0.25 -0.1875q-0.203125 -0.125 -0.46875 -0.1875q-0.25 -0.0625 -0.5625 -0.0625q-0.515625 0 -0.9375 0.21875q-0.421875 0.203125 -0.71875 0.578125q-0.296875 0.390625 -0.453125 0.921875q-0.15625 0.515625 -0.15625 1.15625zm1.25 0.109375l0 -0.109375q0 -0.375 0.078125 -0.703125q0.078125 -0.34375 0.25 -0.59375q0.15625 -0.265625 0.40625 -0.40625q0.25 -0.140625 0.59375 -0.140625q0.203125 0 0.359375 0.046875q0.171875 0.03125 0.3125 0.109375q0.15625 0.09375 0.265625 0.21875q0.125 0.125 0.203125 0.28125l0 2.453125q-0.078125 0.15625 -0.1875 0.28125q-0.109375 0.125 -0.25 0.21875q-0.140625 0.078125 -0.328125 0.125q-0.171875 0.046875 -0.375 0.046875q-0.34375 0 -0.59375 -0.140625q-0.25 -0.140625 -0.40625 -0.40625q-0.171875 -0.234375 -0.25 -0.5625q-0.078125 -0.34375 -0.078125 -0.71875zm6.8635254 2.0q0 0.359375 0.234375 0.609375q0.234375 0.25 0.65625 0.25q0.421875 0 0.65625 -0.25q0.25 -0.25 0.25 -0.609375q0 -0.359375 -0.234375 -0.609375q-0.234375 -0.265625 -0.671875 -0.265625q-0.4375 0 -0.671875 0.265625q-0.21875 0.25 -0.21875 0.609375zm5.551056 3.03125q0.40625 0 0.71875 -0.15625q0.3125 -0.140625 0.53125 -0.34375q0.21875 -0.21875 0.359375 -0.46875q0.15625 -0.234375 0.25 -0.453125l2.859375 -6.484375l-1.375 0l-1.359375 3.453125l-0.234375 0.59375l-0.1875 -0.609375l-1.40625 -3.4375l-1.359375 0l2.390625 5.375l-0.34375 0.671875q-0.0625 0.109375 -0.125 0.21875q-0.0625 0.109375 -0.171875 0.234375q-0.109375 0.140625 -0.265625 0.25q-0.140625 0.109375 -0.3125 0.109375q-0.09375 0 -0.234375 -0.015625q-0.125 0 -0.21875 -0.015625l-0.171875 0.984375q0.140625 0.03125 0.296875 0.0625q0.171875 0.03125 0.359375 0.03125zm9.2854 -2.28125l1.265625 0l0 -0.09375q-0.109375 -0.21875 -0.171875 -0.515625q-0.046875 -0.3125 -0.046875 -0.6875l0 -2.5q0 -0.484375 -0.171875 -0.84375q-0.171875 -0.375 -0.484375 -0.609375q-0.3125 -0.234375 -0.75 -0.359375q-0.421875 -0.125 -0.921875 -0.125q-0.546875 0 -0.984375 0.140625q-0.421875 0.140625 -0.71875 0.390625q-0.296875 0.234375 -0.453125 0.546875q-0.15625 0.3125 -0.15625 0.65625l1.25 0q0 -0.15625 0.046875 -0.296875q0.0625 -0.15625 0.1875 -0.25q0.125 -0.109375 0.3125 -0.171875q0.1875 -0.0625 0.453125 -0.0625q0.28125 0 0.484375 0.078125q0.21875 0.0625 0.375 0.1875q0.140625 0.140625 0.21875 0.3125q0.078125 0.171875 0.078125 0.390625l0 0.390625l-0.90625 0q-0.609375 0 -1.09375 0.109375q-0.484375 0.109375 -0.8125 0.328125q-0.34375 0.234375 -0.53125 0.59375q-0.1875 0.359375 -0.1875 0.8125q0 0.359375 0.140625 0.671875q0.140625 0.3125 0.40625 0.53125q0.25 0.21875 0.609375 0.359375q0.375 0.125 0.8125 0.125q0.265625 0 0.5 -0.0625q0.234375 -0.046875 0.4375 -0.140625q0.203125 -0.09375 0.359375 -0.203125q0.171875 -0.125 0.296875 -0.265625q0.03125 0.15625 0.0625 0.3125q0.03125 0.140625 0.09375 0.25zm-1.515625 -0.890625q-0.234375 0 -0.421875 -0.0625q-0.171875 -0.0625 -0.296875 -0.171875q-0.109375 -0.09375 -0.171875 -0.234375q-0.0625 -0.15625 -0.0625 -0.328125q0 -0.21875 0.0625 -0.375q0.078125 -0.171875 0.234375 -0.296875q0.1875 -0.140625 0.46875 -0.203125q0.296875 -0.078125 0.703125 -0.078125l0.8125 0l0 1.03125q-0.078125 0.140625 -0.203125 0.265625q-0.125 0.125 -0.296875 0.21875q-0.171875 0.109375 -0.390625 0.171875q-0.203125 0.0625 -0.4375 0.0625zm5.019806 -4.734375l-1.078125 0l0 5.625l1.140625 0l0 -4.328125q0.03125 -0.078125 0.0625 -0.140625q0.046875 -0.0625 0.09375 -0.109375q0.078125 -0.0625 0.171875 -0.09375q0.09375 -0.03125 0.21875 -0.03125q0.109375 0 0.203125 0.03125q0.09375 0.03125 0.15625 0.09375q0.078125 0.0625 0.109375 0.1875q0.03125 0.109375 0.03125 0.28125l0 4.109375l1.125 0l0 -4.171875q0 -0.0625 0 -0.078125q0 -0.03125 0 -0.0625q0.015625 -0.078125 0.046875 -0.140625q0.046875 -0.078125 0.109375 -0.140625q0.078125 -0.046875 0.15625 -0.078125q0.09375 -0.03125 0.21875 -0.03125q0.109375 0 0.203125 0.03125q0.09375 0.03125 0.171875 0.09375q0.0625 0.078125 0.09375 0.203125q0.046875 0.109375 0.046875 0.265625l0 4.109375l1.140625 0l0 -4.09375q0 -0.4375 -0.09375 -0.75q-0.09375 -0.328125 -0.25 -0.515625q-0.171875 -0.1875 -0.40625 -0.28125q-0.21875 -0.09375 -0.484375 -0.09375q-0.21875 0 -0.390625 0.0625q-0.171875 0.046875 -0.3125 0.140625q-0.109375 0.0625 -0.203125 0.171875q-0.09375 0.109375 -0.171875 0.21875q-0.046875 -0.125 -0.125 -0.21875q-0.0625 -0.109375 -0.15625 -0.1875q-0.125 -0.09375 -0.296875 -0.140625q-0.15625 -0.046875 -0.375 -0.046875q-0.390625 0 -0.671875 0.203125q-0.28125 0.1875 -0.453125 0.515625l-0.03125 -0.609375zm5.9260254 -2.375l0 1.046875l1.78125 0l0 5.921875l-1.78125 0l0 1.03125l4.734375 0l0 -1.03125l-1.703125 0l0 -6.96875l-3.03125 0z" fill-rule="nonzero"/><path fill="#000000" fill-opacity="0.0" d="m149.89764 120.0l31.090973 0l0 0.06299591l31.08226 0" fill-rule="evenodd"/><path stroke="#000000" stroke-width="2.0" stroke-linejoin="round" stroke-linecap="butt" d="m149.89764 120.0l31.090973 0l0 0.06299591l19.082275 0" fill-rule="evenodd"/><path fill="#000000" stroke="#000000" stroke-width="2.0" stroke-linecap="butt" d="m200.07089 123.366455l9.076187 -3.3034592l-9.076187 -3.3034668z" fill-rule="evenodd"/><path fill="#eeeeee" d="m10.653555 25.055119l139.2441 0l0 189.88977l-139.2441 0z" fill-rule="evenodd"/><path stroke="#000000" stroke-width="1.0" stroke-linejoin="round" stroke-linecap="butt" d="m10.653555 25.055119l139.2441 0l0 189.88977l-139.2441 0z" fill-rule="evenodd"/><path fill="#000000" d="m50.725506 77.865q-0.8125 0 -1.515625 -0.296875q-0.703125 -0.296875 -1.234375 -0.828125q-0.53125 -0.53125 -0.828125 -1.21875q-0.28125 -0.703125 -0.28125 -1.515625q0 -0.8125 0.28125 -1.5q0.296875 -0.703125 0.828125 -1.21875q0.53125 -0.53125 1.234375 -0.828125q0.703125 -0.296875 1.515625 -0.296875q0.5625 0 1.09375 0.171875q0.546875 0.15625 1.0 0.453125q0.46875 0.28125 0.8125 0.703125l-0.859375 0.84375q-0.390625 -0.515625 -0.921875 -0.765625q-0.53125 -0.25 -1.125 -0.25q-0.546875 0 -1.015625 0.203125q-0.453125 0.203125 -0.8125 0.578125q-0.34375 0.359375 -0.53125 0.84375q-0.1875 0.484375 -0.1875 1.0625q0 0.578125 0.1875 1.078125q0.1875 0.484375 0.53125 0.859375q0.359375 0.359375 0.8125 0.5625q0.46875 0.203125 1.015625 0.203125q0.59375 0 1.125 -0.265625q0.53125 -0.265625 0.921875 -0.75l0.859375 0.828125q-0.34375 0.421875 -0.8125 0.71875q-0.453125 0.296875 -1.0 0.46875q-0.53125 0.15625 -1.09375 0.15625zm4.048294 -0.125l0 -7.640625l1.203125 -0.21875l0 7.859375l-1.203125 0zm4.4979095 0.078125q-0.546875 0 -0.96875 -0.234375q-0.40625 -0.25 -0.65625 -0.671875q-0.234375 -0.421875 -0.234375 -1.0l0 -3.515625l1.21875 0l0 3.171875q0 0.59375 0.3125 0.9375q0.3125 0.34375 0.859375 0.34375q0.359375 0 0.640625 -0.15625q0.296875 -0.15625 0.515625 -0.484375l0 -3.8125l1.203125 0l0 5.34375l-1.203125 0l0 -0.859375q-0.3125 0.46875 -0.734375 0.703125q-0.421875 0.234375 -0.953125 0.234375zm6.2019997 0.03125q-0.6875 0 -1.28125 -0.1875q-0.5937538 -0.1875 -1.0156288 -0.546875l0.5625 -0.796875q0.5312538 0.328125 0.9218788 0.46875q0.390625 0.140625 0.796875 0.140625q0.484375 0 0.78125 -0.203125q0.296875 -0.203125 0.296875 -0.515625q0 -0.25 -0.1875 -0.390625q-0.171875 -0.140625 -0.5625 -0.21875l-0.9375 -0.15625q-0.78125 -0.15625 -1.1718788 -0.515625q-0.375 -0.359375 -0.375 -0.953125q0 -0.5 0.265625 -0.875q0.265625 -0.375 0.7187538 -0.578125q0.46875 -0.203125 1.09375 -0.203125q0.546875 0 1.0625 0.15625q0.53125 0.15625 1.03125 0.484375l-0.5625 0.796875q-0.40625 -0.265625 -0.8125 -0.390625q-0.390625 -0.125 -0.796875 -0.125q-0.421875 0 -0.671875 0.171875q-0.25 0.15625 -0.25 0.453125q0 0.25 0.15625 0.390625q0.171875 0.125 0.59375 0.1875l0.953125 0.1875q0.796875 0.140625 1.171875 0.515625q0.390625 0.359375 0.390625 0.96875q0 0.484375 -0.28125 0.875q-0.28125 0.390625 -0.78125 0.625q-0.484375 0.234375 -1.109375 0.234375zm5.4821167 0q-0.8125 0 -1.234375 -0.375q-0.40625 -0.390625 -0.40625 -1.125l0 -2.984375l-1.0625 0l0 -0.96875l1.0625 0l0 -1.46875l1.203125 -0.25l0 1.71875l1.484375 0l0 0.96875l-1.484375 0l0 2.71875q0 0.40625 0.171875 0.578125q0.171875 0.15625 0.578125 0.15625q0.171875 0 0.328125 -0.03125q0.15625 -0.03125 0.390625 -0.109375l0 1.015625q-0.21875 0.078125 -0.5 0.109375q-0.28125 0.046875 -0.53125 0.046875zm4.5139008 0q-0.765625 0 -1.390625 -0.359375q-0.625 -0.375 -0.984375 -1.0q-0.359375 -0.625 -0.359375 -1.421875q0 -0.78125 0.34375 -1.390625q0.34375 -0.625 0.921875 -0.984375q0.59375 -0.375 1.328125 -0.375q0.75 0 1.3125 0.359375q0.5625 0.359375 0.890625 0.984375q0.328125 0.609375 0.328125 1.40625l0 0.296875l-3.9375 0q0.0625 0.4375 0.28125 0.78125q0.21875 0.328125 0.5625 0.515625q0.34375 0.1875 0.75 0.1875q0.375 0 0.703125 -0.125q0.34375 -0.140625 0.5625 -0.375l0.796875 0.71875q-0.5 0.40625 -1.0 0.59375q-0.5 0.1875 -1.109375 0.1875zm-1.546875 -3.234375l2.796875 0q-0.0625 -0.375 -0.265625 -0.671875q-0.1875 -0.3125 -0.484375 -0.46875q-0.296875 -0.171875 -0.640625 -0.171875q-0.359375 0 -0.65625 0.171875q-0.28125 0.15625 -0.484375 0.453125q-0.1875 0.296875 -0.265625 0.6875zm5.1685944 3.125l0 -5.34375l1.203125 0l0 1.15625q0.234375 -0.609375 0.609375 -0.921875q0.375 -0.328125 0.859375 -0.328125q0.140625 0.015625 0.25 0.03125q0.125 0.015625 0.265625 0.078125l0 1.0625q-0.140625 -0.078125 -0.3125 -0.109375q-0.171875 -0.03125 -0.34375 -0.03125q-0.4375 0 -0.78125 0.234375q-0.34375 0.234375 -0.546875 0.65625l0 3.515625l-1.203125 0zm6.726242 0l0 -7.453125l1.25 0l3.890625 5.421875l-0.015625 -5.421875l1.203125 0l0 7.453125l-1.140625 0l-4.0 -5.578125l0.015625 5.578125l-1.203125 0zm9.471573 0.09375q-0.546875 0 -0.984375 -0.203125q-0.421875 -0.203125 -0.671875 -0.578125q-0.234375 -0.375 -0.234375 -0.84375q0 -0.484375 0.25 -0.828125q0.25 -0.359375 0.703125 -0.546875q0.46875 -0.1875 1.09375 -0.1875q0.375 0 0.734375 0.078125q0.359375 0.078125 0.703125 0.25l0 -0.59375q0 -0.53125 -0.3125 -0.796875q-0.296875 -0.265625 -0.90625 -0.265625q-0.34375 0 -0.71875 0.109375q-0.375 0.09375 -0.84375 0.3125l-0.421875 -0.875q1.171875 -0.546875 2.21875 -0.546875q1.03125 0 1.59375 0.515625q0.578125 0.5 0.578125 1.421875l0 3.484375l-1.1875 0l0 -0.546875q-0.34375 0.328125 -0.734375 0.484375q-0.390625 0.15625 -0.859375 0.15625zm-0.765625 -1.65625q0 0.375 0.296875 0.59375q0.296875 0.21875 0.8125 0.21875q0.359375 0 0.671875 -0.109375q0.3125 -0.125 0.578125 -0.34375l0 -0.859375q-0.28125 -0.125 -0.578125 -0.1875q-0.296875 -0.078125 -0.640625 -0.078125q-0.53125 0 -0.84375 0.203125q-0.296875 0.203125 -0.296875 0.5625zm5.0172424 1.5625l0 -5.34375l1.203125 0l0 0.84375q0.296875 -0.453125 0.6875 -0.6875q0.40625 -0.234375 0.890625 -0.234375q0.546875 0 0.953125 0.28125q0.421875 0.265625 0.625 0.734375q0.3125 -0.5 0.75 -0.75q0.453125 -0.265625 1.015625 -0.265625q0.515625 0 0.90625 0.25q0.40625 0.234375 0.625 0.671875q0.21875 0.4375 0.21875 1.0l0 3.5l-1.203125 0l0 -3.234375q0 -0.5625 -0.296875 -0.890625q-0.28125 -0.328125 -0.78125 -0.328125q-0.328125 0 -0.59375 0.15625q-0.265625 0.15625 -0.46875 0.484375q0 0.078125 0 0.15625q0.015625 0.078125 0.015625 0.15625l0 3.5l-1.21875 0l0 -3.234375q0 -0.5625 -0.296875 -0.890625q-0.28125 -0.328125 -0.78125 -0.328125q-0.640625 0 -1.046875 0.609375l0 3.84375l-1.203125 0zm11.819351 0.109375q-0.765625 0 -1.390625 -0.359375q-0.625 -0.375 -0.984375 -1.0q-0.359375 -0.625 -0.359375 -1.421875q0 -0.78125 0.34375 -1.390625q0.34375 -0.625 0.921875 -0.984375q0.59375 -0.375 1.328125 -0.375q0.75 0 1.3125 0.359375q0.5625 0.359375 0.890625 0.984375q0.328125 0.609375 0.328125 1.40625l0 0.296875l-3.9375 0q0.0625 0.4375 0.28125 0.78125q0.21875 0.328125 0.5625 0.515625q0.34375 0.1875 0.75 0.1875q0.375 0 0.703125 -0.125q0.34375 -0.140625 0.5625 -0.375l0.796875 0.71875q-0.5 0.40625 -1.0 0.59375q-0.5 0.1875 -1.109375 0.1875zm-1.546875 -3.234375l2.796875 0q-0.0625 -0.375 -0.265625 -0.671875q-0.1875 -0.3125 -0.484375 -0.46875q-0.296875 -0.171875 -0.640625 -0.171875q-0.359375 0 -0.65625 0.171875q-0.28125 0.15625 -0.484375 0.453125q-0.1875 0.296875 -0.265625 0.6875z" fill-rule="nonzero"/><path fill="#188038" d="m66.796745 86.96l0 0.09375q0 0.53125 0.125 1.0q0.140625 0.453125 0.390625 0.78125q0.234375 0.34375 0.59375 0.53125q0.359375 0.1875 0.8125 0.1875q0.40625 0 0.71875 -0.15625q0.328125 -0.171875 0.5625 -0.453125l0.0625 0.515625l1.140625 0l0 -7.0l-1.28125 0l0 2.515625q-0.21875 -0.25 -0.515625 -0.390625q-0.296875 -0.140625 -0.671875 -0.140625q-0.46875 0 -0.828125 0.1875q-0.359375 0.171875 -0.609375 0.5q-0.25 0.34375 -0.375 0.8125q-0.125 0.453125 -0.125 1.015625zm1.265625 0.09375l0 -0.09375q0 -0.3125 0.046875 -0.578125q0.0625 -0.28125 0.171875 -0.484375q0.125 -0.1875 0.3125 -0.296875q0.1875 -0.125 0.453125 -0.125q0.328125 0 0.53125 0.140625q0.21875 0.125 0.34375 0.375l0 2.0q-0.125 0.25 -0.34375 0.390625q-0.203125 0.140625 -0.53125 0.140625q-0.28125 0 -0.46875 -0.109375q-0.171875 -0.125 -0.296875 -0.3125q-0.125 -0.203125 -0.171875 -0.46875q-0.046875 -0.265625 -0.046875 -0.578125zm4.8009186 -2.515625l0 1.03125l1.390625 0l0 2.859375l-1.390625 0l0 1.03125l4.015625 0l0 -1.03125l-1.34375 0l0 -3.890625l-2.671875 0zm1.3125 -1.265625q0 0.140625 0.046875 0.265625q0.046875 0.125 0.140625 0.21875q0.109375 0.09375 0.234375 0.140625q0.140625 0.046875 0.296875 0.046875q0.34375 0 0.53125 -0.1875q0.203125 -0.1875 0.203125 -0.484375q0 -0.296875 -0.203125 -0.484375q-0.1875 -0.1875 -0.53125 -0.1875q-0.15625 0 -0.296875 0.046875q-0.125 0.046875 -0.234375 0.140625q-0.09375 0.078125 -0.140625 0.21875q-0.046875 0.125 -0.046875 0.265625zm7.1290436 4.828125q0 0.125 -0.0625 0.21875q-0.0625 0.09375 -0.171875 0.171875q-0.125 0.0625 -0.3125 0.109375q-0.171875 0.046875 -0.421875 0.046875q-0.203125 0 -0.40625 -0.03125q-0.1875 -0.046875 -0.328125 -0.140625q-0.15625 -0.09375 -0.25 -0.234375q-0.09375 -0.140625 -0.109375 -0.34375l-1.203125 0q0 0.296875 0.140625 0.59375q0.15625 0.296875 0.4375 0.53125q0.28125 0.234375 0.703125 0.390625q0.4375 0.140625 0.984375 0.140625q0.515625 0 0.921875 -0.109375q0.40625 -0.109375 0.703125 -0.3125q0.28125 -0.203125 0.4375 -0.46875q0.15625 -0.28125 0.15625 -0.609375q0 -0.359375 -0.15625 -0.609375q-0.15625 -0.265625 -0.4375 -0.4375q-0.265625 -0.1875 -0.65625 -0.296875q-0.375 -0.109375 -0.828125 -0.1875q-0.3125 -0.046875 -0.515625 -0.109375q-0.1875 -0.0625 -0.3125 -0.140625q-0.109375 -0.0625 -0.15625 -0.15625q-0.046875 -0.09375 -0.046875 -0.203125q0 -0.109375 0.046875 -0.203125q0.0625 -0.109375 0.15625 -0.1875q0.109375 -0.078125 0.28125 -0.125q0.171875 -0.046875 0.40625 -0.046875q0.28125 0 0.46875 0.078125q0.1875 0.0625 0.3125 0.171875q0.078125 0.09375 0.109375 0.203125q0.046875 0.109375 0.046875 0.21875l1.265625 0q0 -0.328125 -0.15625 -0.625q-0.140625 -0.296875 -0.421875 -0.5q-0.296875 -0.21875 -0.703125 -0.328125q-0.40625 -0.125 -0.921875 -0.125q-0.484375 0 -0.890625 0.125q-0.390625 0.125 -0.65625 0.328125q-0.28125 0.203125 -0.421875 0.484375q-0.140625 0.28125 -0.140625 0.578125q0 0.328125 0.140625 0.5625q0.140625 0.234375 0.390625 0.421875q0.265625 0.1875 0.625 0.328125q0.359375 0.125 0.78125 0.203125q0.34375 0.0625 0.5625 0.125q0.234375 0.0625 0.359375 0.140625q0.140625 0.078125 0.1875 0.171875q0.0625 0.078125 0.0625 0.1875zm4.5977936 0.4375q-0.3125 0 -0.515625 -0.125q-0.1875 -0.125 -0.296875 -0.328125q-0.125 -0.203125 -0.171875 -0.46875q-0.046875 -0.265625 -0.046875 -0.546875l0 -0.140625q0 -0.28125 0.046875 -0.546875q0.046875 -0.265625 0.171875 -0.46875q0.109375 -0.203125 0.296875 -0.328125q0.203125 -0.125 0.5 -0.125q0.21875 0 0.390625 0.078125q0.171875 0.0625 0.296875 0.1875q0.109375 0.125 0.171875 0.296875q0.078125 0.15625 0.0625 0.328125l1.1875 0q0.015625 -0.4375 -0.140625 -0.78125q-0.15625 -0.359375 -0.4375 -0.609375q-0.28125 -0.25 -0.671875 -0.375q-0.375 -0.140625 -0.828125 -0.140625q-0.578125 0 -1.015625 0.203125q-0.421875 0.1875 -0.71875 0.515625q-0.28125 0.34375 -0.4375 0.796875q-0.140625 0.453125 -0.140625 0.96875l0 0.140625q0 0.515625 0.140625 0.96875q0.15625 0.453125 0.453125 0.796875q0.28125 0.328125 0.703125 0.53125q0.4375 0.1875 1.015625 0.1875q0.421875 0 0.796875 -0.125q0.390625 -0.140625 0.671875 -0.375q0.296875 -0.234375 0.453125 -0.5625q0.171875 -0.328125 0.15625 -0.71875l-1.1875 0q0.015625 0.171875 -0.0625 0.3125q-0.0625 0.140625 -0.203125 0.25q-0.125 0.09375 -0.296875 0.15625q-0.15625 0.046875 -0.34375 0.046875zm3.2384186 -1.59375l0 0.109375q0 0.53125 0.15625 1.0q0.15625 0.453125 0.453125 0.78125q0.296875 0.34375 0.734375 0.53125q0.4375 0.1875 0.984375 0.1875q0.5625 0 0.984375 -0.1875q0.4375 -0.1875 0.734375 -0.53125q0.296875 -0.328125 0.453125 -0.78125q0.15625 -0.46875 0.15625 -1.0l0 -0.109375q0 -0.53125 -0.15625 -0.984375q-0.15625 -0.46875 -0.453125 -0.796875q-0.296875 -0.34375 -0.734375 -0.53125q-0.4375 -0.1875 -0.984375 -0.1875q-0.5625 0 -1.0 0.1875q-0.421875 0.1875 -0.71875 0.53125q-0.296875 0.328125 -0.453125 0.796875q-0.15625 0.453125 -0.15625 0.984375zm1.265625 0.109375l0 -0.109375q0 -0.296875 0.0625 -0.5625q0.0625 -0.265625 0.1875 -0.46875q0.125 -0.203125 0.328125 -0.328125q0.203125 -0.125 0.484375 -0.125q0.28125 0 0.484375 0.125q0.203125 0.125 0.328125 0.328125q0.125 0.203125 0.171875 0.46875q0.0625 0.265625 0.0625 0.5625l0 0.109375q0 0.296875 -0.0625 0.578125q-0.046875 0.265625 -0.171875 0.46875q-0.125 0.203125 -0.328125 0.328125q-0.203125 0.109375 -0.484375 0.109375q-0.28125 0 -0.484375 -0.109375q-0.203125 -0.125 -0.328125 -0.328125q-0.125 -0.203125 -0.1875 -0.46875q-0.0625 -0.28125 -0.0625 -0.578125z" fill-rule="nonzero"/><path fill="#000000" d="m48.52045 112.74l0 -7.453125l3.328125 0q0.6875 0 1.21875 0.25q0.546875 0.234375 0.828125 0.6875q0.296875 0.4375 0.296875 1.015625q0 0.578125 -0.328125 1.015625q-0.328125 0.421875 -0.890625 0.640625q0.6875 0.203125 1.078125 0.671875q0.390625 0.453125 0.390625 1.09375q0 0.625 -0.3125 1.09375q-0.296875 0.46875 -0.859375 0.734375q-0.546875 0.25 -1.28125 0.25l-3.46875 0zm1.28125 -4.3125l1.90625 0q0.5625 0 0.875 -0.28125q0.328125 -0.296875 0.328125 -0.78125q0 -0.46875 -0.328125 -0.75q-0.3125 -0.296875 -0.875 -0.296875l-1.90625 0l0 2.109375zm0 3.265625l2.03125 0q0.609375 0 0.96875 -0.3125q0.359375 -0.3125 0.359375 -0.828125q0 -0.515625 -0.359375 -0.828125q-0.359375 -0.3125 -0.96875 -0.3125l-2.03125 0l0 2.28125zm7.6043243 1.140625q-0.546875 0 -0.984375 -0.203125q-0.421875 -0.203125 -0.671875 -0.578125q-0.234375 -0.375 -0.234375 -0.84375q0 -0.484375 0.25 -0.828125q0.25 -0.359375 0.703125 -0.546875q0.46875 -0.1875 1.09375 -0.1875q0.375 0 0.734375 0.078125q0.359375 0.078125 0.703125 0.25l0 -0.59375q0 -0.53125 -0.3125 -0.796875q-0.296875 -0.265625 -0.90625 -0.265625q-0.34375 0 -0.71875 0.109375q-0.375 0.09375 -0.84375 0.3125l-0.421875 -0.875q1.171875 -0.546875 2.21875 -0.546875q1.03125 0 1.59375 0.515625q0.578125 0.5 0.578125 1.421875l0 3.484375l-1.1875 0l0 -0.546875q-0.34375 0.328125 -0.734375 0.484375q-0.390625 0.15625 -0.859375 0.15625zm-0.765625 -1.65625q0 0.375 0.296875 0.59375q0.296875 0.21875 0.8125 0.21875q0.359375 0 0.671875 -0.109375q0.3125 -0.125 0.578125 -0.34375l0 -0.859375q-0.28125 -0.125 -0.578125 -0.1875q-0.296875 -0.078125 -0.640625 -0.078125q-0.53125 0 -0.84375 0.203125q-0.296875 0.203125 -0.296875 0.5625zm6.8297424 1.671875q-0.6875 0 -1.28125 -0.1875q-0.59375 -0.1875 -1.015625 -0.546875l0.5625 -0.796875q0.53125 0.328125 0.921875 0.46875q0.390625 0.140625 0.796875 0.140625q0.484375 0 0.7812538 -0.203125q0.296875 -0.203125 0.296875 -0.515625q0 -0.25 -0.1875 -0.390625q-0.171875 -0.140625 -0.5625038 -0.21875l-0.9375 -0.15625q-0.78125 -0.15625 -1.171875 -0.515625q-0.375 -0.359375 -0.375 -0.953125q0 -0.5 0.265625 -0.875q0.265625 -0.375 0.71875 -0.578125q0.46875 -0.203125 1.09375 -0.203125q0.546875 0 1.0625038 0.15625q0.53125 0.15625 1.03125 0.484375l-0.5625 0.796875q-0.40625 -0.265625 -0.8125 -0.390625q-0.3906288 -0.125 -0.7968788 -0.125q-0.421875 0 -0.671875 0.171875q-0.25 0.15625 -0.25 0.453125q0 0.25 0.15625 0.390625q0.171875 0.125 0.59375 0.1875l0.9531288 0.1875q0.796875 0.140625 1.171875 0.515625q0.390625 0.359375 0.390625 0.96875q0 0.484375 -0.28125 0.875q-0.28125 0.390625 -0.78125 0.625q-0.484375 0.234375 -1.1093788 0.234375zm5.829609 0q-0.765625 0 -1.390625 -0.359375q-0.625 -0.375 -0.984375 -1.0q-0.359375 -0.625 -0.359375 -1.421875q0 -0.78125 0.34375 -1.390625q0.34375 -0.625 0.921875 -0.984375q0.59375 -0.375 1.328125 -0.375q0.75 0 1.3125 0.359375q0.5625 0.359375 0.890625 0.984375q0.328125 0.609375 0.328125 1.40625l0 0.296875l-3.9375 0q0.0625 0.4375 0.28125 0.78125q0.21875 0.328125 0.5625 0.515625q0.34375 0.1875 0.75 0.1875q0.375 0 0.703125 -0.125q0.34375 -0.140625 0.5625 -0.375l0.796875 0.71875q-0.5 0.40625 -1.0 0.59375q-0.5 0.1875 -1.109375 0.1875zm-1.546875 -3.234375l2.796875 0q-0.0625 -0.375 -0.265625 -0.671875q-0.1875 -0.3125 -0.484375 -0.46875q-0.296875 -0.171875 -0.640625 -0.171875q-0.359375 0 -0.65625 0.171875q-0.28125 0.15625 -0.484375 0.453125q-0.1875 0.296875 -0.265625 0.6875zm8.988144 2.015625l1.484375 0q0.671875 0 1.203125 -0.34375q0.546875 -0.34375 0.859375 -0.9375q0.328125 -0.609375 0.328125 -1.34375q0 -0.734375 -0.328125 -1.328125q-0.3125 -0.59375 -0.859375 -0.9375q-0.53125 -0.34375 -1.203125 -0.34375l-1.484375 0l0 5.234375zm-1.28125 1.109375l0 -7.453125l2.734375 0q0.8125 0 1.484375 0.28125q0.6875 0.28125 1.1875 0.796875q0.515625 0.5 0.78125 1.1875q0.28125 0.671875 0.28125 1.453125q0 0.796875 -0.28125 1.46875q-0.265625 0.671875 -0.78125 1.1875q-0.5 0.5 -1.1875 0.796875q-0.671875 0.28125 -1.484375 0.28125l-2.734375 0zm10.203888 0.09375q-0.765625 0 -1.375 -0.359375q-0.609375 -0.359375 -0.96875 -0.984375q-0.34375 -0.625 -0.34375 -1.421875q0 -0.78125 0.34375 -1.40625q0.359375 -0.625 0.96875 -0.984375q0.609375 -0.359375 1.375 -0.359375q0.765625 0 1.359375 0.359375q0.609375 0.359375 0.953125 0.984375q0.359375 0.625 0.359375 1.40625q0 0.796875 -0.359375 1.421875q-0.34375 0.625 -0.953125 0.984375q-0.59375 0.359375 -1.359375 0.359375zm0 -1.015625q0.4375 0 0.765625 -0.21875q0.34375 -0.234375 0.53125 -0.625q0.1875 -0.40625 0.1875 -0.90625q0 -0.5 -0.1875 -0.875q-0.1875 -0.390625 -0.53125 -0.625q-0.328125 -0.234375 -0.765625 -0.234375q-0.4375 0 -0.78125 0.234375q-0.34375 0.234375 -0.53125 0.625q-0.1875 0.375 -0.1875 0.875q0 0.515625 0.1875 0.90625q0.1875 0.390625 0.53125 0.625q0.34375 0.21875 0.78125 0.21875zm3.924347 0.921875l0 -5.34375l1.203125 0l0 0.84375q0.296875 -0.453125 0.6875 -0.6875q0.40625 -0.234375 0.890625 -0.234375q0.546875 0 0.953125 0.28125q0.421875 0.265625 0.625 0.734375q0.3125 -0.5 0.75 -0.75q0.453125 -0.265625 1.015625 -0.265625q0.515625 0 0.90625 0.25q0.40625 0.234375 0.625 0.671875q0.21875 0.4375 0.21875 1.0l0 3.5l-1.203125 0l0 -3.234375q0 -0.5625 -0.296875 -0.890625q-0.28125 -0.328125 -0.78125 -0.328125q-0.328125 0 -0.59375 0.15625q-0.265625 0.15625 -0.46875 0.484375q0 0.078125 0 0.15625q0.015625 0.078125 0.015625 0.15625l0 3.5l-1.21875 0l0 -3.234375q0 -0.5625 -0.296875 -0.890625q-0.28125 -0.328125 -0.78125 -0.328125q-0.640625 0 -1.046875 0.609375l0 3.84375l-1.203125 0zm10.944351 0.09375q-0.546875 0 -0.984375 -0.203125q-0.421875 -0.203125 -0.671875 -0.578125q-0.234375 -0.375 -0.234375 -0.84375q0 -0.484375 0.25 -0.828125q0.25 -0.359375 0.703125 -0.546875q0.46875 -0.1875 1.09375 -0.1875q0.375 0 0.734375 0.078125q0.359375 0.078125 0.703125 0.25l0 -0.59375q0 -0.53125 -0.3125 -0.796875q-0.296875 -0.265625 -0.90625 -0.265625q-0.34375 0 -0.71875 0.109375q-0.375 0.09375 -0.84375 0.3125l-0.421875 -0.875q1.171875 -0.546875 2.21875 -0.546875q1.03125 0 1.59375 0.515625q0.578125 0.5 0.578125 1.421875l0 3.484375l-1.1875 0l0 -0.546875q-0.34375 0.328125 -0.734375 0.484375q-0.390625 0.15625 -0.859375 0.15625zm-0.765625 -1.65625q0 0.375 0.296875 0.59375q0.296875 0.21875 0.8125 0.21875q0.359375 0 0.671875 -0.109375q0.3125 -0.125 0.578125 -0.34375l0 -0.859375q-0.28125 -0.125 -0.578125 -0.1875q-0.296875 -0.078125 -0.640625 -0.078125q-0.53125 0 -0.84375 0.203125q-0.296875 0.203125 -0.296875 0.5625zm5.0016174 1.5625l0 -5.34375l1.203125 0l0 5.34375l-1.203125 0zm0.609375 -6.421875q-0.3125 0 -0.53125 -0.21875q-0.21875 -0.21875 -0.21875 -0.515625q0 -0.3125 0.21875 -0.53125q0.21875 -0.21875 0.53125 -0.21875q0.3125 0 0.53125 0.21875q0.21875 0.21875 0.21875 0.515625q0 0.3125 -0.21875 0.53125q-0.21875 0.21875 -0.53125 0.21875zm2.0916595 6.421875l0 -5.34375l1.203125 0l0 0.875q0.3125 -0.46875 0.734375 -0.703125q0.421875 -0.25 0.953125 -0.25q0.546875 0 0.953125 0.25q0.421875 0.234375 0.65625 0.65625q0.25 0.421875 0.25 1.0l0 3.515625l-1.21875 0l0 -3.171875q0 -0.59375 -0.328125 -0.9375q-0.3125 -0.34375 -0.84375 -0.34375q-0.359375 0 -0.65625 0.171875q-0.296875 0.15625 -0.5 0.484375l0 3.796875l-1.203125 0z" fill-rule="nonzero"/><path fill="#188038" d="m72.785164 117.46l0 1.03125l1.46875 0l0 4.9375l-1.46875 0l0 1.03125l4.171875 0l0 -1.03125l-1.421875 0l0 -5.96875l-2.75 0zm8.410294 7.0l1.28125 0l0 -0.078125q-0.09375 -0.1875 -0.140625 -0.4375q-0.046875 -0.265625 -0.046875 -0.65625l0 -2.125q0 -0.421875 -0.171875 -0.75q-0.15625 -0.328125 -0.4375 -0.546875q-0.28125 -0.203125 -0.671875 -0.3125q-0.375 -0.109375 -0.828125 -0.109375q-0.484375 0 -0.875 0.125q-0.390625 0.125 -0.65625 0.328125q-0.265625 0.21875 -0.40625 0.5q-0.125 0.28125 -0.125 0.59375l1.265625 0q0 -0.125 0.03125 -0.234375q0.046875 -0.109375 0.125 -0.1875q0.09375 -0.078125 0.234375 -0.125q0.140625 -0.0625 0.34375 -0.0625q0.234375 0 0.40625 0.0625q0.171875 0.0625 0.28125 0.15625q0.109375 0.109375 0.15625 0.25q0.0625 0.140625 0.0625 0.3125l0 0.28125l-0.703125 0q-0.546875 0 -0.96875 0.109375q-0.421875 0.09375 -0.71875 0.28125q-0.3125 0.203125 -0.46875 0.515625q-0.15625 0.3125 -0.15625 0.734375q0 0.3125 0.125 0.59375q0.125 0.265625 0.34375 0.453125q0.234375 0.203125 0.546875 0.3125q0.328125 0.109375 0.703125 0.109375q0.234375 0 0.421875 -0.046875q0.203125 -0.046875 0.375 -0.125q0.171875 -0.0625 0.296875 -0.15625q0.140625 -0.109375 0.25 -0.21875q0.015625 0.125 0.046875 0.25q0.03125 0.109375 0.078125 0.203125zm-1.203125 -0.890625q-0.171875 0 -0.3125 -0.03125q-0.140625 -0.046875 -0.21875 -0.125q-0.09375 -0.078125 -0.140625 -0.1875q-0.046875 -0.109375 -0.046875 -0.25q0 -0.171875 0.0625 -0.3125q0.0625 -0.140625 0.1875 -0.25q0.140625 -0.09375 0.34375 -0.140625q0.203125 -0.0625 0.5 -0.0625l0.65625 0l0 0.84375q-0.0625 0.09375 -0.15625 0.1875q-0.09375 0.09375 -0.21875 0.171875q-0.140625 0.0625 -0.3125 0.109375q-0.15625 0.046875 -0.34375 0.046875zm8.160294 -1.515625l0 -0.109375q0 -0.4375 -0.078125 -0.828125q-0.078125 -0.390625 -0.234375 -0.703125q-0.109375 -0.203125 -0.25 -0.359375q-0.140625 -0.171875 -0.296875 -0.296875q-0.21875 -0.15625 -0.484375 -0.234375q-0.265625 -0.078125 -0.578125 -0.078125q-0.234375 0 -0.4375 0.046875q-0.203125 0.046875 -0.359375 0.140625q-0.125 0.0625 -0.234375 0.15625q-0.09375 0.078125 -0.1875 0.1875l0 -2.515625l-1.265625 0l0 7.0l1.140625 0l0.0625 -0.53125q0.0625 0.109375 0.15625 0.203125q0.09375 0.078125 0.1875 0.140625q0.1875 0.140625 0.421875 0.203125q0.234375 0.078125 0.515625 0.078125q0.3125 0 0.578125 -0.078125q0.265625 -0.078125 0.46875 -0.234375q0.234375 -0.15625 0.40625 -0.390625q0.171875 -0.25 0.28125 -0.546875q0.09375 -0.265625 0.140625 -0.578125q0.046875 -0.328125 0.046875 -0.671875zm-1.265625 -0.109375l0 0.109375q0 0.1875 -0.015625 0.359375q-0.015625 0.171875 -0.046875 0.328125q-0.046875 0.203125 -0.140625 0.375q-0.078125 0.15625 -0.21875 0.25q-0.109375 0.078125 -0.25 0.125q-0.125 0.03125 -0.296875 0.03125q-0.203125 0 -0.359375 -0.046875q-0.140625 -0.046875 -0.25 -0.125q-0.109375 -0.0625 -0.1875 -0.15625q-0.0625 -0.09375 -0.109375 -0.21875l0 -1.953125q0.046875 -0.09375 0.09375 -0.171875q0.046875 -0.078125 0.109375 -0.125q0.125 -0.125 0.296875 -0.1875q0.171875 -0.0625 0.390625 -0.0625q0.171875 0 0.296875 0.046875q0.140625 0.03125 0.25 0.109375q0.15625 0.109375 0.234375 0.265625q0.078125 0.140625 0.125 0.328125q0.046875 0.171875 0.0625 0.359375q0.015625 0.171875 0.015625 0.359375z" fill-rule="nonzero"/><path fill="#000000" d="m48.243725 147.74l0 -7.453125l3.34375 0q0.75 0 1.3125 0.296875q0.5625 0.28125 0.859375 0.8125q0.3125 0.515625 0.3125 1.203125q0 0.671875 -0.3125 1.1875q-0.296875 0.515625 -0.859375 0.8125q-0.5625 0.296875 -1.3125 0.296875l-2.0625 0l0 2.84375l-1.28125 0zm1.28125 -3.890625l1.859375 0q0.671875 0 1.03125 -0.34375q0.375 -0.34375 0.375 -0.90625q0 -0.5625 -0.375 -0.90625q-0.359375 -0.34375 -1.03125 -0.34375l-1.859375 0l0 2.5zm5.813797 3.890625l0 -7.640625l1.203125 -0.21875l0 7.859375l-1.203125 0zm4.2947845 0.09375q-0.546875 0 -0.984375 -0.203125q-0.421875 -0.203125 -0.671875 -0.578125q-0.234375 -0.375 -0.234375 -0.84375q0 -0.484375 0.25 -0.828125q0.25 -0.359375 0.703125 -0.546875q0.46875 -0.1875 1.09375 -0.1875q0.375 0 0.734375 0.078125q0.359375 0.078125 0.703125 0.25l0 -0.59375q0 -0.53125 -0.3125 -0.796875q-0.296875 -0.265625 -0.90625 -0.265625q-0.34375 0 -0.71875 0.109375q-0.375 0.09375 -0.84375 0.3125l-0.421875 -0.875q1.171875 -0.546875 2.21875 -0.546875q1.03125 0 1.59375 0.515625q0.578125 0.5 0.578125 1.421875l0 3.484375l-1.1875 0l0 -0.546875q-0.34375 0.328125 -0.734375 0.484375q-0.390625 0.15625 -0.859375 0.15625zm-0.765625 -1.65625q0 0.375 0.296875 0.59375q0.296875 0.21875 0.8125 0.21875q0.359375 0 0.671875 -0.109375q0.3125 -0.125 0.578125 -0.34375l0 -0.859375q-0.28125 -0.125 -0.578125 -0.1875q-0.296875 -0.078125 -0.640625 -0.078125q-0.53125 0 -0.84375 0.203125q-0.296875 0.203125 -0.296875 0.5625zm7.1541176 1.671875q-0.8125 0 -1.234375 -0.375q-0.40625 -0.390625 -0.40625 -1.125l0 -2.984375l-1.0625038 0l0 -0.96875l1.0625038 0l0 -1.46875l1.203125 -0.25l0 1.71875l1.484375 0l0 0.96875l-1.484375 0l0 2.71875q0 0.40625 0.171875 0.578125q0.171875 0.15625 0.578125 0.15625q0.171875 0 0.328125 -0.03125q0.15625 -0.03125 0.390625 -0.109375l0 1.015625q-0.21875 0.078125 -0.5 0.109375q-0.28125 0.046875 -0.53125 0.046875zm2.9402618 -0.109375l0 -4.375l-1.15625 0l0 -0.96875l1.15625 0l0 -0.90625q0 -0.875 0.46875 -1.328125q0.484375 -0.46875 1.375 -0.46875q0.21875 0 0.4375 0.03125q0.21875 0.015625 0.359375 0.0625l0 1.03125q-0.203125 -0.046875 -0.34375 -0.0625q-0.125 -0.015625 -0.296875 -0.015625q-0.40625 0 -0.609375 0.1875q-0.1875 0.171875 -0.1875 0.578125l0 0.890625l1.4375 0l0 0.96875l-1.4375 0l0 4.375l-1.203125 0zm5.8851776 0.09375q-0.765625 0 -1.375 -0.359375q-0.609375 -0.359375 -0.96875 -0.984375q-0.34375 -0.625 -0.34375 -1.421875q0 -0.78125 0.34375 -1.40625q0.359375 -0.625 0.96875 -0.984375q0.609375 -0.359375 1.375 -0.359375q0.765625 0 1.359375 0.359375q0.609375 0.359375 0.953125 0.984375q0.359375 0.625 0.359375 1.40625q0 0.796875 -0.359375 1.421875q-0.34375 0.625 -0.953125 0.984375q-0.59375 0.359375 -1.359375 0.359375zm0 -1.015625q0.4375 0 0.765625 -0.21875q0.34375 -0.234375 0.53125 -0.625q0.1875 -0.40625 0.1875 -0.90625q0 -0.5 -0.1875 -0.875q-0.1875 -0.390625 -0.53125 -0.625q-0.328125 -0.234375 -0.765625 -0.234375q-0.4375 0 -0.78125 0.234375q-0.34375 0.234375 -0.53125 0.625q-0.1875 0.375 -0.1875 0.875q0 0.515625 0.1875 0.90625q0.1875 0.390625 0.53125 0.625q0.34375 0.21875 0.78125 0.21875zm3.924347 0.921875l0 -5.34375l1.203125 0l0 1.15625q0.234375 -0.609375 0.609375 -0.921875q0.375 -0.328125 0.859375 -0.328125q0.140625 0.015625 0.25 0.03125q0.125 0.015625 0.265625 0.078125l0 1.0625q-0.140625 -0.078125 -0.3125 -0.109375q-0.171875 -0.03125 -0.34375 -0.03125q-0.4375 0 -0.78125 0.234375q-0.34375 0.234375 -0.546875 0.65625l0 3.515625l-1.203125 0zm4.1879425 0l0 -5.34375l1.203125 0l0 0.84375q0.296875 -0.453125 0.6875 -0.6875q0.40625 -0.234375 0.890625 -0.234375q0.546875 0 0.953125 0.28125q0.421875 0.265625 0.625 0.734375q0.3125 -0.5 0.75 -0.75q0.453125 -0.265625 1.015625 -0.265625q0.515625 0 0.90625 0.25q0.40625 0.234375 0.625 0.671875q0.21875 0.4375 0.21875 1.0l0 3.5l-1.203125 0l0 -3.234375q0 -0.5625 -0.296875 -0.890625q-0.28125 -0.328125 -0.78125 -0.328125q-0.328125 0 -0.59375 0.15625q-0.265625 0.15625 -0.46875 0.484375q0 0.078125 0 0.15625q0.015625 0.078125 0.015625 0.15625l0 3.5l-1.21875 0l0 -3.234375q0 -0.5625 -0.296875 -0.890625q-0.28125 -0.328125 -0.78125 -0.328125q-0.640625 0 -1.046875 0.609375l0 3.84375l-1.203125 0zm11.717026 0l0 -5.34375l1.203125 0l0 5.34375l-1.203125 0zm0.609375 -6.421875q-0.3125 0 -0.53125 -0.21875q-0.21875 -0.21875 -0.21875 -0.515625q0 -0.3125 0.21875 -0.53125q0.21875 -0.21875 0.53125 -0.21875q0.3125 0 0.53125 0.21875q0.21875 0.21875 0.21875 0.515625q0 0.3125 -0.21875 0.53125q-0.21875 0.21875 -0.53125 0.21875zm2.0916595 6.421875l0 -5.34375l1.203125 0l0 0.875q0.3125 -0.46875 0.734375 -0.703125q0.421875 -0.25 0.953125 -0.25q0.546875 0 0.953125 0.25q0.421875 0.234375 0.65625 0.65625q0.25 0.421875 0.25 1.0l0 3.515625l-1.21875 0l0 -3.171875q0 -0.59375 -0.328125 -0.9375q-0.3125 -0.34375 -0.84375 -0.34375q-0.359375 0 -0.65625 0.171875q-0.296875 0.15625 -0.5 0.484375l0 3.796875l-1.203125 0zm6.760742 0l0 -4.375l-1.15625 0l0 -0.96875l1.15625 0l0 -0.90625q0 -0.875 0.46875 -1.328125q0.484375 -0.46875 1.375 -0.46875q0.21875 0 0.4375 0.03125q0.21875 0.015625 0.359375 0.0625l0 1.03125q-0.203125 -0.046875 -0.34375 -0.0625q-0.125 -0.015625 -0.296875 -0.015625q-0.40625 0 -0.609375 0.1875q-0.1875 0.171875 -0.1875 0.578125l0 0.890625l1.4375 0l0 0.96875l-1.4375 0l0 4.375l-1.203125 0zm5.8851776 0.09375q-0.765625 0 -1.375 -0.359375q-0.609375 -0.359375 -0.96875 -0.984375q-0.34375 -0.625 -0.34375 -1.421875q0 -0.78125 0.34375 -1.40625q0.359375 -0.625 0.96875 -0.984375q0.609375 -0.359375 1.375 -0.359375q0.765625 0 1.359375 0.359375q0.609375 0.359375 0.953125 0.984375q0.359375 0.625 0.359375 1.40625q0 0.796875 -0.359375 1.421875q-0.34375 0.625 -0.953125 0.984375q-0.59375 0.359375 -1.359375 0.359375zm0 -1.015625q0.4375 0 0.765625 -0.21875q0.34375 -0.234375 0.53125 -0.625q0.1875 -0.40625 0.1875 -0.90625q0 -0.5 -0.1875 -0.875q-0.1875 -0.390625 -0.53125 -0.625q-0.328125 -0.234375 -0.765625 -0.234375q-0.4375 0 -0.78125 0.234375q-0.34375 0.234375 -0.53125 0.625q-0.1875 0.375 -0.1875 0.875q0 0.515625 0.1875 0.90625q0.1875 0.390625 0.53125 0.625q0.34375 0.21875 0.78125 0.21875z" fill-rule="nonzero"/><path fill="#188038" d="m33.754833 158.06937l0.390625 1.390625l1.34375 0l-2.125 -6.625l-1.171875 0l-2.171873 6.625l1.34375 0l0.40625 -1.390625l1.9843731 0zm-1.671875 -1.078125l0.6875 -2.453125l0.6875 2.453125l-1.375 0zm4.8477936 -2.453125l-1.09375 0l0 4.921875l1.15625 0l0 -3.6875q0.015625 -0.0625 0.046875 -0.109375q0.03125 -0.046875 0.0625 -0.09375q0.046875 -0.046875 0.109375 -0.0625q0.0625 -0.03125 0.15625 -0.03125q0.0625 0 0.125 0.015625q0.0625 0.015625 0.125 0.0625q0.03125 0.0625 0.0625 0.15625q0.03125 0.078125 0.03125 0.21875l0 3.53125l1.109375 0l0 -3.640625q0 -0.046875 0 -0.078125q0 -0.03125 0 -0.046875q0.03125 -0.046875 0.0625 -0.078125q0.03125 -0.046875 0.078125 -0.078125q0.046875 -0.03125 0.09375 -0.046875q0.0625 -0.015625 0.140625 -0.015625q0.0625 0 0.125 0.015625q0.078125 0.015625 0.125 0.0625q0.046875 0.0625 0.078125 0.15625q0.03125 0.09375 0.03125 0.234375l0 3.515625l1.140625 0l0 -3.515625q0 -0.40625 -0.078125 -0.6875q-0.078125 -0.296875 -0.21875 -0.46875q-0.140625 -0.1875 -0.34375 -0.265625q-0.1875 -0.078125 -0.40625 -0.078125q-0.1875 0 -0.34375 0.046875q-0.140625 0.046875 -0.25 0.125q-0.09375 0.0625 -0.1875 0.15625q-0.078125 0.078125 -0.140625 0.1875q-0.03125 -0.109375 -0.09375 -0.1875q-0.0625 -0.09375 -0.140625 -0.15625q-0.09375 -0.09375 -0.234375 -0.125q-0.140625 -0.046875 -0.3125 -0.046875q-0.34375 0 -0.59375 0.1875q-0.25 0.171875 -0.390625 0.5l-0.03125 -0.59375zm7.8790436 4.921875l1.28125 0l0 -0.078125q-0.09375 -0.1875 -0.140625 -0.4375q-0.046875 -0.265625 -0.046875 -0.65625l0 -2.125q0 -0.421875 -0.171875 -0.75q-0.15625 -0.328125 -0.4375 -0.546875q-0.28125 -0.203125 -0.671875 -0.3125q-0.375 -0.109375 -0.828125 -0.109375q-0.484375 0 -0.875 0.125q-0.390625 0.125 -0.65625 0.328125q-0.265625 0.21875 -0.40625 0.5q-0.125 0.28125 -0.125 0.59375l1.265625 0q0 -0.125 0.03125 -0.234375q0.046875 -0.109375 0.125 -0.1875q0.09375 -0.078125 0.234375 -0.125q0.140625 -0.0625 0.34375 -0.0625q0.234375 0 0.40625 0.0625q0.171875 0.0625 0.28125 0.15625q0.109375 0.109375 0.15625 0.25q0.0625 0.140625 0.0625 0.3125l0 0.28125l-0.703125 0q-0.546875 0 -0.96875 0.109375q-0.421875 0.09375 -0.71875 0.28125q-0.3125 0.203125 -0.46875 0.515625q-0.15625 0.3125 -0.15625 0.734375q0 0.3125 0.125 0.59375q0.125 0.265625 0.34375 0.453125q0.234375 0.203125 0.546875 0.3125q0.328125 0.109375 0.703125 0.109375q0.234375 0 0.421875 -0.046875q0.203125 -0.046875 0.375 -0.125q0.171875 -0.0625 0.296875 -0.15625q0.140625 -0.109375 0.25 -0.21875q0.015625 0.125 0.046875 0.25q0.03125 0.109375 0.078125 0.203125zm-1.203125 -0.890625q-0.171875 0 -0.3125 -0.03125q-0.140625 -0.046875 -0.21875 -0.125q-0.09375 -0.078125 -0.140625 -0.1875q-0.046875 -0.109375 -0.046875 -0.25q0 -0.171875 0.0625 -0.3125q0.0625 -0.140625 0.1875 -0.25q0.140625 -0.09375 0.34375 -0.140625q0.203125 -0.0625 0.5 -0.0625l0.65625 0l0 0.84375q-0.0625 0.09375 -0.15625 0.1875q-0.09375 0.09375 -0.21875 0.171875q-0.140625 0.0625 -0.3125 0.109375q-0.15625 0.046875 -0.34375 0.046875zm5.3477936 -0.125l2.796875 -3.15625l0 -0.75l-4.46875 0l0 1.015625l2.703125 0l-2.765625 3.125l0 0.78125l4.640625 0l0 -1.015625l-2.90625 0zm3.8009186 -1.5l0 0.109375q0 0.53125 0.15625 1.0q0.15625 0.453125 0.453125 0.78125q0.296875 0.34375 0.734375 0.53125q0.4375 0.1875 0.984375 0.1875q0.5625 0 0.984375 -0.1875q0.4375 -0.1875 0.734375 -0.53125q0.296875 -0.328125 0.453125 -0.78125q0.15625 -0.46875 0.15625 -1.0l0 -0.109375q0 -0.53125 -0.15625 -0.984375q-0.15625 -0.46875 -0.453125 -0.796875q-0.296875 -0.34375 -0.734375 -0.53125q-0.4375 -0.1875 -0.984375 -0.1875q-0.5625 0 -1.0 0.1875q-0.421875 0.1875 -0.71875 0.53125q-0.296875 0.328125 -0.453125 0.796875q-0.15625 0.453125 -0.15625 0.984375zm1.265625 0.109375l0 -0.109375q0 -0.296875 0.0625 -0.5625q0.0625 -0.265625 0.1875 -0.46875q0.125 -0.203125 0.328125 -0.328125q0.203125 -0.125 0.484375 -0.125q0.28125 0 0.484375 0.125q0.203125 0.125 0.328125 0.328125q0.125 0.203125 0.171875 0.46875q0.0625 0.265625 0.0625 0.5625l0 0.109375q0 0.296875 -0.0625 0.578125q-0.046875 0.265625 -0.171875 0.46875q-0.125 0.203125 -0.328125 0.328125q-0.203125 0.109375 -0.484375 0.109375q-0.28125 0 -0.484375 -0.109375q-0.203125 -0.125 -0.328125 -0.328125q-0.125 -0.203125 -0.1875 -0.46875q-0.0625 -0.28125 -0.0625 -0.578125zm4.5040436 2.40625l1.265625 0l0 -3.5q0.078125 -0.109375 0.140625 -0.1875q0.078125 -0.078125 0.1875 -0.140625q0.109375 -0.078125 0.265625 -0.109375q0.15625 -0.046875 0.328125 -0.046875q0.21875 0 0.390625 0.046875q0.171875 0.03125 0.296875 0.140625q0.125 0.109375 0.1875 0.296875q0.078125 0.1875 0.078125 0.484375l0 3.015625l1.265625 0l0 -3.03125q0 -0.546875 -0.125 -0.921875q-0.125 -0.375 -0.359375 -0.609375q-0.21875 -0.234375 -0.53125 -0.34375q-0.3125 -0.109375 -0.6875 -0.109375q-0.28125 0 -0.546875 0.078125q-0.265625 0.078125 -0.484375 0.234375q-0.125 0.09375 -0.234375 0.21875q-0.109375 0.109375 -0.203125 0.234375l-0.078125 -0.671875l-1.15625 0l0 4.921875zm14.414341 -1.390625l0.390625 1.390625l1.34375 0l-2.125 -6.625l-1.171875 0l-2.171875 6.625l1.34375 0l0.40625 -1.390625l1.984375 0zm-1.671875 -1.078125l0.6875 -2.453125l0.6875 2.453125l-1.375 0zm4.4415436 2.46875l1.15625 0l0.546875 -3.578125l0.0625 -0.34375l0.046875 0.34375l0.578125 3.578125l1.15625 0l0.921875 -6.625l-1.171875 0l-0.453125 3.703125l-0.03125 0.28125l-0.046875 -0.265625l-0.546875 -3.71875l-0.921875 0l-0.53125 3.6875l-0.03125 0.265625l-0.03125 -0.25l-0.453125 -3.703125l-1.15625 0l0.90625 6.625zm8.613419 -1.734375q0 0.1875 -0.078125 0.34375q-0.078125 0.140625 -0.21875 0.234375q-0.125 0.109375 -0.328125 0.171875q-0.203125 0.0625 -0.453125 0.0625q-0.28125 0 -0.53125 -0.0625q-0.234375 -0.078125 -0.40625 -0.203125q-0.171875 -0.140625 -0.265625 -0.359375q-0.09375 -0.21875 -0.109375 -0.515625l-1.25 0q0 0.515625 0.1875 0.90625q0.203125 0.375 0.546875 0.65625q0.359375 0.296875 0.84375 0.453125q0.484375 0.140625 0.984375 0.140625q0.5 0 0.921875 -0.125q0.4375 -0.125 0.75 -0.359375q0.3125 -0.234375 0.484375 -0.5625q0.171875 -0.34375 0.171875 -0.78125q0 -0.515625 -0.234375 -0.890625q-0.21875 -0.390625 -0.609375 -0.6875q-0.265625 -0.171875 -0.578125 -0.3125q-0.3125 -0.140625 -0.65625 -0.234375q-0.3125 -0.078125 -0.5625 -0.171875q-0.25 -0.109375 -0.4375 -0.234375q-0.171875 -0.125 -0.265625 -0.265625q-0.09375 -0.15625 -0.09375 -0.34375q0 -0.171875 0.0625 -0.328125q0.078125 -0.15625 0.21875 -0.265625q0.125 -0.109375 0.328125 -0.171875q0.203125 -0.0625 0.453125 -0.0625q0.28125 0 0.484375 0.078125q0.203125 0.078125 0.34375 0.203125q0.140625 0.140625 0.203125 0.328125q0.078125 0.1875 0.09375 0.40625l1.25 0q0 -0.453125 -0.171875 -0.8125q-0.171875 -0.375 -0.484375 -0.65625q-0.3125 -0.265625 -0.75 -0.40625q-0.421875 -0.15625 -0.9375 -0.15625q-0.5 0 -0.9375 0.125q-0.421875 0.125 -0.734375 0.375q-0.3125 0.234375 -0.5 0.578125q-0.171875 0.34375 -0.171875 0.765625q0 0.359375 0.125 0.671875q0.140625 0.3125 0.40625 0.5625q0.265625 0.25 0.671875 0.46875q0.421875 0.21875 0.96875 0.359375q0.359375 0.109375 0.59375 0.21875q0.25 0.109375 0.390625 0.234375q0.15625 0.140625 0.21875 0.296875q0.0625 0.15625 0.0625 0.328125zm7.664337 -0.765625l0 0.09375q0 0.53125 0.125 1.0q0.140625 0.453125 0.390625 0.78125q0.234375 0.34375 0.59375 0.53125q0.359375 0.1875 0.8125 0.1875q0.40625 0 0.71875 -0.15625q0.328125 -0.171875 0.5625 -0.453125l0.0625 0.515625l1.140625 0l0 -7.0l-1.28125 0l0 2.515625q-0.21875 -0.25 -0.515625 -0.390625q-0.296875 -0.140625 -0.671875 -0.140625q-0.46875 0 -0.828125 0.1875q-0.359375 0.171875 -0.609375 0.5q-0.25 0.34375 -0.375 0.8125q-0.125 0.453125 -0.125 1.015625zm1.265625 0.09375l0 -0.09375q0 -0.3125 0.046875 -0.578125q0.0625 -0.28125 0.171875 -0.484375q0.125 -0.1875 0.3125 -0.296875q0.1875 -0.125 0.453125 -0.125q0.328125 0 0.53125 0.140625q0.21875 0.125 0.34375 0.375l0 2.0q-0.125 0.25 -0.34375 0.390625q-0.203125 0.140625 -0.53125 0.140625q-0.28125 0 -0.46875 -0.109375q-0.171875 -0.125 -0.296875 -0.3125q-0.125 -0.203125 -0.171875 -0.46875q-0.046875 -0.265625 -0.046875 -0.578125zm6.8477936 2.5q0.71875 0 1.234375 -0.28125q0.53125 -0.28125 0.765625 -0.625l-0.625 -0.671875q-0.21875 0.28125 -0.578125 0.421875q-0.34375 0.140625 -0.71875 0.140625q-0.265625 0 -0.484375 -0.078125q-0.21875 -0.09375 -0.390625 -0.234375q-0.171875 -0.15625 -0.28125 -0.328125q-0.09375 -0.1875 -0.15625 -0.484375l0 0l3.34375 0l0 -0.546875q0 -0.546875 -0.15625 -0.984375q-0.140625 -0.453125 -0.4375 -0.765625q-0.28125 -0.328125 -0.703125 -0.5q-0.421875 -0.171875 -0.953125 -0.171875q-0.515625 0 -0.953125 0.1875q-0.4375 0.1875 -0.75 0.515625q-0.328125 0.34375 -0.5 0.8125q-0.171875 0.46875 -0.171875 1.03125l0 0.171875q0 0.5 0.171875 0.9375q0.1875 0.4375 0.515625 0.75q0.328125 0.328125 0.796875 0.515625q0.46875 0.1875 1.03125 0.1875zm-0.140625 -4.09375q0.234375 0 0.421875 0.078125q0.1875 0.078125 0.3125 0.203125q0.125 0.140625 0.1875 0.3125q0.078125 0.171875 0.078125 0.375l0 0.109375l-2.078125 0q0.046875 -0.25 0.140625 -0.4375q0.09375 -0.203125 0.234375 -0.34375q0.125 -0.140625 0.296875 -0.21875q0.1875 -0.078125 0.40625 -0.078125zm5.6759186 -2.140625l-1.265625 0l0 1.21875l-1.125 0l0 0.921875l1.125 0l0 2.25q0 0.484375 0.125 0.84375q0.125 0.34375 0.359375 0.5625q0.234375 0.21875 0.5625 0.328125q0.328125 0.109375 0.734375 0.109375q0.21875 0 0.421875 -0.03125q0.21875 -0.015625 0.421875 -0.046875q0.203125 -0.03125 0.375 -0.078125q0.1875 -0.0625 0.3125 -0.140625l-0.125 -0.875q-0.078125 0.015625 -0.203125 0.046875q-0.125 0.015625 -0.25 0.03125q-0.140625 0.03125 -0.296875 0.046875q-0.15625 0.015625 -0.296875 0.015625q-0.203125 0 -0.375 -0.046875q-0.15625 -0.046875 -0.265625 -0.15625q-0.109375 -0.109375 -0.171875 -0.28125q-0.0625 -0.1875 -0.0625 -0.453125l0 -2.125l1.84375 0l0 -0.921875l-1.84375 0l0 -1.21875zm6.3477936 6.140625l1.28125 0l0 -0.078125q-0.09375 -0.1875 -0.140625 -0.4375q-0.046875 -0.265625 -0.046875 -0.65625l0 -2.125q0 -0.421875 -0.171875 -0.75q-0.15625 -0.328125 -0.4375 -0.546875q-0.28125 -0.203125 -0.671875 -0.3125q-0.375 -0.109375 -0.828125 -0.109375q-0.484375 0 -0.875 0.125q-0.390625 0.125 -0.65625 0.328125q-0.265625 0.21875 -0.40625 0.5q-0.125 0.28125 -0.125 0.59375l1.265625 0q0 -0.125 0.03125 -0.234375q0.046875 -0.109375 0.125 -0.1875q0.09375 -0.078125 0.234375 -0.125q0.140625 -0.0625 0.34375 -0.0625q0.234375 0 0.40625 0.0625q0.171875 0.0625 0.28125 0.15625q0.109375 0.109375 0.15625 0.25q0.0625 0.140625 0.0625 0.3125l0 0.28125l-0.703125 0q-0.546875 0 -0.96875 0.109375q-0.421875 0.09375 -0.71875 0.28125q-0.3125 0.203125 -0.46875 0.515625q-0.15625 0.3125 -0.15625 0.734375q0 0.3125 0.125 0.59375q0.125 0.265625 0.34375 0.453125q0.234375 0.203125 0.546875 0.3125q0.328125 0.109375 0.703125 0.109375q0.234375 0 0.421875 -0.046875q0.203125 -0.046875 0.375 -0.125q0.171875 -0.0625 0.296875 -0.15625q0.140625 -0.109375 0.25 -0.21875q0.015625 0.125 0.046875 0.25q0.03125 0.109375 0.078125 0.203125zm-1.203125 -0.890625q-0.171875 0 -0.3125 -0.03125q-0.140625 -0.046875 -0.21875 -0.125q-0.09375 -0.078125 -0.140625 -0.1875q-0.046875 -0.109375 -0.046875 -0.25q0 -0.171875 0.0625 -0.3125q0.0625 -0.140625 0.1875 -0.25q0.140625 -0.09375 0.34375 -0.140625q0.203125 -0.0625 0.5 -0.0625l0.65625 0l0 0.84375q-0.0625 0.09375 -0.15625 0.1875q-0.09375 0.09375 -0.21875 0.171875q-0.140625 0.0625 -0.3125 0.109375q-0.15625 0.046875 -0.34375 0.046875zm4.0665436 -4.03125l0 1.03125l1.390625 0l0 2.859375l-1.390625 0l0 1.03125l4.015625 0l0 -1.03125l-1.34375 0l0 -3.890625l-2.671875 0zm1.3125 -1.265625q0 0.140625 0.046875 0.265625q0.046875 0.125 0.140625 0.21875q0.109375 0.09375 0.234375 0.140625q0.140625 0.046875 0.296875 0.046875q0.34375 0 0.53125 -0.1875q0.203125 -0.1875 0.203125 -0.484375q0 -0.296875 -0.203125 -0.484375q-0.1875 -0.1875 -0.53125 -0.1875q-0.15625 0 -0.296875 0.046875q-0.125 0.046875 -0.234375 0.140625q-0.09375 0.078125 -0.140625 0.21875q-0.046875 0.125 -0.046875 0.265625zm4.2071686 -0.8125l0 1.03125l1.46875 0l0 4.9375l-1.46875 0l0 1.03125l4.171875 0l0 -1.03125l-1.421875 0l0 -5.96875l-2.75 0zm8.519669 5.640625q0 0.125 -0.0625 0.21875q-0.0625 0.09375 -0.171875 0.171875q-0.125 0.0625 -0.3125 0.109375q-0.171875 0.046875 -0.421875 0.046875q-0.203125 0 -0.40625 -0.03125q-0.1875 -0.046875 -0.328125 -0.140625q-0.15625 -0.09375 -0.25 -0.234375q-0.09375 -0.140625 -0.109375 -0.34375l-1.203125 0q0 0.296875 0.140625 0.59375q0.15625 0.296875 0.4375 0.53125q0.28125 0.234375 0.703125 0.390625q0.4375 0.140625 0.984375 0.140625q0.515625 0 0.921875 -0.109375q0.40625 -0.109375 0.703125 -0.3125q0.28125 -0.203125 0.4375 -0.46875q0.15625 -0.28125 0.15625 -0.609375q0 -0.359375 -0.15625 -0.609375q-0.15625 -0.265625 -0.4375 -0.4375q-0.265625 -0.1875 -0.65625 -0.296875q-0.375 -0.109375 -0.828125 -0.1875q-0.3125 -0.046875 -0.515625 -0.109375q-0.1875 -0.0625 -0.3125 -0.140625q-0.109375 -0.0625 -0.15625 -0.15625q-0.046875 -0.09375 -0.046875 -0.203125q0 -0.109375 0.046875 -0.203125q0.0625 -0.109375 0.15625 -0.1875q0.109375 -0.078125 0.28125 -0.125q0.171875 -0.046875 0.40625 -0.046875q0.28125 0 0.46875 0.078125q0.1875 0.0625 0.3125 0.171875q0.078125 0.09375 0.109375 0.203125q0.046875 0.109375 0.046875 0.21875l1.265625 0q0 -0.328125 -0.15625 -0.625q-0.140625 -0.296875 -0.421875 -0.5q-0.296875 -0.21875 -0.703125 -0.328125q-0.40625 -0.125 -0.921875 -0.125q-0.484375 0 -0.890625 0.125q-0.390625 0.125 -0.65625 0.328125q-0.28125 0.203125 -0.421875 0.484375q-0.140625 0.28125 -0.140625 0.578125q0 0.328125 0.140625 0.5625q0.140625 0.234375 0.390625 0.421875q0.265625 0.1875 0.625 0.328125q0.359375 0.125 0.78125 0.203125q0.34375 0.0625 0.5625 0.125q0.234375 0.0625 0.359375 0.140625q0.140625 0.078125 0.1875 0.171875q0.0625 0.078125 0.0625 0.1875z" fill-rule="nonzero"/><path fill="#188038" d="m25.545645 168.72562q0 0.1875 -0.078125 0.34375q-0.078125 0.140625 -0.21875 0.234375q-0.125 0.109375 -0.328125 0.171875q-0.203125 0.0625 -0.453125 0.0625q-0.28125 0 -0.53125 -0.0625q-0.234375 -0.078125 -0.40625 -0.203125q-0.171875 -0.140625 -0.265625 -0.359375q-0.09375 -0.21875 -0.109375 -0.515625l-1.25 0q0 0.515625 0.1875 0.90625q0.203125 0.375 0.546875 0.65625q0.359375 0.296875 0.84375 0.453125q0.484375 0.140625 0.984375 0.140625q0.5 0 0.921875 -0.125q0.4375 -0.125 0.75 -0.359375q0.3125 -0.234375 0.484375 -0.5625q0.171875 -0.34375 0.171875 -0.78125q0 -0.515625 -0.234375 -0.890625q-0.21875 -0.390625 -0.609375 -0.6875q-0.265625 -0.171875 -0.578125 -0.3125q-0.3125 -0.140625 -0.65625 -0.234375q-0.3125 -0.078125 -0.5625 -0.171875q-0.25 -0.109375 -0.4375 -0.234375q-0.171875 -0.125 -0.265625 -0.265625q-0.09375 -0.15625 -0.09375 -0.34375q0 -0.171875 0.0625 -0.328125q0.078125 -0.15625 0.21875 -0.265625q0.125 -0.109375 0.328125 -0.171875q0.203125 -0.0625 0.453125 -0.0625q0.28125 0 0.484375 0.078125q0.203125 0.078125 0.34375 0.203125q0.140625 0.140625 0.203125 0.328125q0.078125 0.1875 0.09375 0.40625l1.25 0q0 -0.453125 -0.171875 -0.8125q-0.171875 -0.375 -0.484375 -0.65625q-0.3125 -0.265625 -0.75 -0.40625q-0.421875 -0.15625 -0.9375 -0.15625q-0.5 0 -0.9375 0.125q-0.421875 0.125 -0.734375 0.375q-0.3125 0.234375 -0.5 0.578125q-0.171875 0.34375 -0.171875 0.765625q0 0.359375 0.125 0.671875q0.140625 0.3125 0.40625 0.5625q0.265625 0.25 0.671875 0.46875q0.421875 0.21875 0.96875 0.359375q0.359375 0.109375 0.59375 0.21875q0.25 0.109375 0.390625 0.234375q0.15625 0.140625 0.21875 0.296875q0.0625 0.15625 0.0625 0.328125zm2.5352936 -3.1875l0 1.03125l1.390625 0l0 2.859375l-1.390625 0l0 1.03125l4.015623 0l0 -1.03125l-1.3437481 0l0 -3.890625l-2.671875 0zm1.3125 -1.265625q0 0.140625 0.046875 0.265625q0.046875 0.125 0.140625 0.21875q0.109375 0.09375 0.234375 0.140625q0.140625 0.046875 0.296875 0.046875q0.34375 0 0.53125 -0.1875q0.203125 -0.1875 0.203125 -0.484375q0 -0.296875 -0.203125 -0.484375q-0.1875 -0.1875 -0.53125 -0.1875q-0.15625 0 -0.296875 0.046875q-0.125 0.046875 -0.234375 0.140625q-0.09375 0.078125 -0.140625 0.21875q-0.046875 0.125 -0.046875 0.265625zm3.9415417 6.1875l1.265625 0l0 -3.5q0.078125 -0.109375 0.140625 -0.1875q0.078125 -0.078125 0.1875 -0.140625q0.109375 -0.078125 0.265625 -0.109375q0.15625 -0.046875 0.328125 -0.046875q0.21875 0 0.390625 0.046875q0.171875 0.03125 0.296875 0.140625q0.125 0.109375 0.1875 0.296875q0.078125 0.1875 0.078125 0.484375l0 3.015625l1.265625 0l0 -3.03125q0 -0.546875 -0.125 -0.921875q-0.125 -0.375 -0.359375 -0.609375q-0.21875 -0.234375 -0.53125 -0.34375q-0.3125 -0.109375 -0.6875 -0.109375q-0.28125 0 -0.546875 0.078125q-0.265625 0.078125 -0.484375 0.234375q-0.125 0.09375 -0.234375 0.21875q-0.109375 0.109375 -0.203125 0.234375l-0.078125 -0.671875l-1.15625 0l0 4.921875zm5.4727936 -2.5l0 0.09375q0 0.53125 0.140625 1.0q0.140625 0.453125 0.390625 0.78125q0.265625 0.34375 0.625 0.53125q0.375 0.1875 0.828125 0.1875q0.234375 0 0.4375 -0.0625q0.203125 -0.046875 0.375 -0.125q0.109375 -0.0625 0.203125 -0.140625q0.109375 -0.09375 0.203125 -0.1875l0 0.28125q0 0.25 -0.078125 0.4375q-0.0625 0.203125 -0.203125 0.34375q-0.140625 0.15625 -0.359375 0.234375q-0.21875 0.078125 -0.484375 0.078125q-0.1875 0 -0.34375 -0.046875q-0.15625 -0.03125 -0.3125 -0.09375q-0.15625 -0.0625 -0.296875 -0.171875q-0.140625 -0.109375 -0.265625 -0.25l-0.5625 0.765625q0.15625 0.203125 0.375 0.34375q0.234375 0.15625 0.484375 0.25q0.25 0.09375 0.5 0.140625q0.25 0.046875 0.484375 0.046875q0.515625 0 0.9375 -0.140625q0.4375 -0.140625 0.75 -0.40625q0.296875 -0.265625 0.46875 -0.65625q0.171875 -0.390625 0.171875 -0.890625l0 -4.765625l-1.15625 0l-0.046875 0.46875q-0.09375 -0.125 -0.203125 -0.21875q-0.109375 -0.09375 -0.234375 -0.15625q-0.171875 -0.09375 -0.375 -0.140625q-0.203125 -0.046875 -0.453125 -0.046875q-0.46875 0 -0.84375 0.1875q-0.359375 0.171875 -0.625 0.5q-0.25 0.34375 -0.390625 0.8125q-0.140625 0.453125 -0.140625 1.015625zm1.265625 0.09375l0 -0.09375q0 -0.3125 0.0625 -0.578125q0.0625 -0.28125 0.203125 -0.484375q0.125 -0.1875 0.3125 -0.296875q0.203125 -0.125 0.46875 -0.125q0.15625 0 0.28125 0.03125q0.125 0.015625 0.21875 0.0625q0.125 0.0625 0.21875 0.15625q0.09375 0.09375 0.171875 0.234375l0 2.078125q-0.0625 0.109375 -0.15625 0.203125q-0.078125 0.09375 -0.203125 0.15625q-0.109375 0.0625 -0.25 0.09375q-0.125 0.03125 -0.28125 0.03125q-0.265625 0 -0.46875 -0.109375q-0.203125 -0.125 -0.328125 -0.3125q-0.125 -0.203125 -0.1875 -0.46875q-0.0625 -0.265625 -0.0625 -0.578125zm4.7227936 -4.59375l0 1.03125l1.46875 0l0 4.9375l-1.46875 0l0 1.03125l4.171875 0l0 -1.03125l-1.421875 0l0 -5.96875l-2.75 0zm7.7227936 7.09375q0.71875 0 1.234375 -0.28125q0.53125 -0.28125 0.765625 -0.625l-0.625 -0.671875q-0.21875 0.28125 -0.578125 0.421875q-0.34375 0.140625 -0.71875 0.140625q-0.265625 0 -0.484375 -0.078125q-0.21875 -0.09375 -0.390625 -0.234375q-0.171875 -0.15625 -0.28125 -0.328125q-0.09375 -0.1875 -0.15625 -0.484375l0 0l3.34375 0l0 -0.546875q0 -0.546875 -0.15625 -0.984375q-0.140625 -0.453125 -0.4375 -0.765625q-0.28125 -0.328125 -0.703125 -0.5q-0.421875 -0.171875 -0.953125 -0.171875q-0.515625 0 -0.953125 0.1875q-0.4375 0.1875 -0.75 0.515625q-0.328125 0.34375 -0.5 0.8125q-0.171875 0.46875 -0.171875 1.03125l0 0.171875q0 0.5 0.171875 0.9375q0.1875 0.4375 0.515625 0.75q0.328125 0.328125 0.796875 0.515625q0.46875 0.1875 1.03125 0.1875zm-0.140625 -4.09375q0.234375 0 0.421875 0.078125q0.1875 0.078125 0.3125 0.203125q0.125 0.140625 0.1875 0.3125q0.078125 0.171875 0.078125 0.375l0 0.109375l-2.078125 0q0.046875 -0.25 0.140625 -0.4375q0.09375 -0.203125 0.234375 -0.34375q0.125 -0.140625 0.296875 -0.21875q0.1875 -0.078125 0.40625 -0.078125zm13.273716 4.0l0 -6.625l-1.28125 0l0 4.25l-1.8437538 -4.25l-1.28125 0l0 6.625l1.28125 0l0 -4.28125l1.8437538 4.28125l1.28125 0zm1.0977936 -2.515625l0 0.109375q0 0.53125 0.15625 1.0q0.15625 0.453125 0.453125 0.78125q0.296875 0.34375 0.734375 0.53125q0.4375 0.1875 0.984375 0.1875q0.5625 0 0.984375 -0.1875q0.4375 -0.1875 0.734375 -0.53125q0.296875 -0.328125 0.453125 -0.78125q0.15625 -0.46875 0.15625 -1.0l0 -0.109375q0 -0.53125 -0.15625 -0.984375q-0.15625 -0.46875 -0.453125 -0.796875q-0.296875 -0.34375 -0.734375 -0.53125q-0.4375 -0.1875 -0.984375 -0.1875q-0.5625 0 -1.0 0.1875q-0.421875 0.1875 -0.71875 0.53125q-0.296875 0.328125 -0.453125 0.796875q-0.15625 0.453125 -0.15625 0.984375zm1.265625 0.109375l0 -0.109375q0 -0.296875 0.0625 -0.5625q0.0625 -0.265625 0.1875 -0.46875q0.125 -0.203125 0.328125 -0.328125q0.203125 -0.125 0.484375 -0.125q0.28125 0 0.484375 0.125q0.203125 0.125 0.328125 0.328125q0.125 0.203125 0.171875 0.46875q0.0625 0.265625 0.0625 0.5625l0 0.109375q0 0.296875 -0.0625 0.578125q-0.046875 0.265625 -0.171875 0.46875q-0.125 0.203125 -0.328125 0.328125q-0.203125 0.109375 -0.484375 0.109375q-0.28125 0 -0.484375 -0.109375q-0.203125 -0.125 -0.328125 -0.328125q-0.125 -0.203125 -0.1875 -0.46875q-0.0625 -0.28125 -0.0625 -0.578125zm4.3790436 -0.09375l0 0.09375q0 0.53125 0.125 1.0q0.140625 0.453125 0.390625 0.78125q0.234375 0.34375 0.59375 0.53125q0.359375 0.1875 0.8125 0.1875q0.40625 0 0.71875 -0.15625q0.328125 -0.171875 0.5625 -0.453125l0.0625 0.515625l1.140625 0l0 -7.0l-1.28125 0l0 2.515625q-0.21875 -0.25 -0.515625 -0.390625q-0.296875 -0.140625 -0.671875 -0.140625q-0.46875 0 -0.828125 0.1875q-0.359375 0.171875 -0.609375 0.5q-0.25 0.34375 -0.375 0.8125q-0.125 0.453125 -0.125 1.015625zm1.265625 0.09375l0 -0.09375q0 -0.3125 0.046875 -0.578125q0.0625 -0.28125 0.171875 -0.484375q0.125 -0.1875 0.3125 -0.296875q0.1875 -0.125 0.453125 -0.125q0.328125 0 0.53125 0.140625q0.21875 0.125 0.34375 0.375l0 2.0q-0.125 0.25 -0.34375 0.390625q-0.203125 0.140625 -0.53125 0.140625q-0.28125 0 -0.46875 -0.109375q-0.171875 -0.125 -0.296875 -0.3125q-0.125 -0.203125 -0.171875 -0.46875q-0.046875 -0.265625 -0.046875 -0.578125zm6.8477936 2.5q0.71875 0 1.234375 -0.28125q0.53125 -0.28125 0.765625 -0.625l-0.625 -0.671875q-0.21875 0.28125 -0.578125 0.421875q-0.34375 0.140625 -0.71875 0.140625q-0.265625 0 -0.484375 -0.078125q-0.21875 -0.09375 -0.390625 -0.234375q-0.171875 -0.15625 -0.28125 -0.328125q-0.09375 -0.1875 -0.15625 -0.484375l0 0l3.34375 0l0 -0.546875q0 -0.546875 -0.15625 -0.984375q-0.140625 -0.453125 -0.4375 -0.765625q-0.28125 -0.328125 -0.703125 -0.5q-0.421875 -0.171875 -0.953125 -0.171875q-0.515625 0 -0.953125 0.1875q-0.4375 0.1875 -0.75 0.515625q-0.328125 0.34375 -0.5 0.8125q-0.171875 0.46875 -0.171875 1.03125l0 0.171875q0 0.5 0.171875 0.9375q0.1875 0.4375 0.515625 0.75q0.328125 0.328125 0.796875 0.515625q0.46875 0.1875 1.03125 0.1875zm-0.140625 -4.09375q0.234375 0 0.421875 0.078125q0.1875 0.078125 0.3125 0.203125q0.125 0.140625 0.1875 0.3125q0.078125 0.171875 0.078125 0.375l0 0.109375l-2.078125 0q0.046875 -0.25 0.140625 -0.4375q0.09375 -0.203125 0.234375 -0.34375q0.125 -0.140625 0.296875 -0.21875q0.1875 -0.078125 0.40625 -0.078125zm13.523712 1.171875l0 -0.96875q0 -0.453125 -0.078125 -0.84375q-0.078125 -0.40625 -0.25 -0.75q-0.140625 -0.296875 -0.34375 -0.53125q-0.203125 -0.25 -0.46875 -0.421875q-0.265625 -0.1875 -0.609375 -0.28125q-0.328125 -0.09375 -0.71875 -0.09375q-0.375 0 -0.703125 0.09375q-0.3125 0.09375 -0.578125 0.265625q-0.265625 0.1875 -0.46875 0.453125q-0.203125 0.25 -0.34375 0.5625q-0.140625 0.328125 -0.21875 0.71875q-0.078125 0.390625 -0.078125 0.828125l0 0.96875q0 0.40625 0.0625 0.78125q0.078125 0.359375 0.203125 0.6875q0.140625 0.328125 0.34375 0.609375q0.21875 0.265625 0.484375 0.453125q0.265625 0.1875 0.59375 0.296875q0.328125 0.09375 0.71875 0.09375q0.359375 0 0.671875 -0.09375q0.3125 -0.09375 0.578125 -0.25q0.296875 -0.171875 0.515625 -0.4375q0.234375 -0.28125 0.390625 -0.609375q0.140625 -0.328125 0.21875 -0.71875q0.078125 -0.390625 0.078125 -0.8125zm-1.296875 -0.96875l0 0.96875q0 0.25 -0.03125 0.484375q-0.015625 0.21875 -0.0625 0.40625q-0.0625 0.25 -0.171875 0.453125q-0.109375 0.1875 -0.265625 0.3125q-0.125 0.09375 -0.28125 0.15625q-0.15625 0.046875 -0.34375 0.046875q-0.203125 0 -0.359375 -0.046875q-0.15625 -0.0625 -0.28125 -0.171875q-0.140625 -0.125 -0.234375 -0.3125q-0.09375 -0.203125 -0.140625 -0.453125q-0.046875 -0.1875 -0.078125 -0.40625q-0.015625 -0.234375 -0.015625 -0.46875l0 -0.96875q0 -0.265625 0.015625 -0.484375q0.03125 -0.234375 0.078125 -0.4375q0.0625 -0.25 0.15625 -0.4375q0.109375 -0.203125 0.265625 -0.328125q0.125 -0.09375 0.265625 -0.125q0.140625 -0.046875 0.3125 -0.046875q0.1875 0 0.34375 0.046875q0.15625 0.046875 0.28125 0.140625q0.15625 0.125 0.265625 0.328125q0.109375 0.1875 0.1875 0.421875q0.046875 0.203125 0.0625 0.4375q0.03125 0.21875 0.03125 0.484375zm2.3321686 5.6875l1.265625 0l0 -2.3125q0.09375 0.09375 0.1875 0.171875q0.09375 0.078125 0.203125 0.140625q0.171875 0.09375 0.375 0.140625q0.21875 0.0625 0.453125 0.0625q0.46875 0 0.828125 -0.1875q0.359375 -0.203125 0.609375 -0.53125q0.234375 -0.34375 0.359375 -0.796875q0.125 -0.453125 0.125 -1.0l0 -0.09375q0 -0.5625 -0.125 -1.015625q-0.125 -0.46875 -0.359375 -0.796875q-0.25 -0.328125 -0.609375 -0.5q-0.359375 -0.1875 -0.828125 -0.1875q-0.234375 0 -0.4375 0.046875q-0.1875 0.046875 -0.359375 0.125q-0.125 0.078125 -0.25 0.1875q-0.109375 0.09375 -0.21875 0.203125l-0.046875 -0.46875l-1.171875 0l0 6.8125zm3.140625 -4.40625l0 0.09375q0 0.3125 -0.0625 0.578125q-0.046875 0.265625 -0.15625 0.484375q-0.125 0.203125 -0.3125 0.328125q-0.1875 0.109375 -0.453125 0.109375q-0.171875 0 -0.3125 -0.03125q-0.125 -0.046875 -0.234375 -0.109375q-0.109375 -0.0625 -0.203125 -0.15625q-0.078125 -0.09375 -0.140625 -0.21875l0 -2.0625q0.0625 -0.125 0.15625 -0.21875q0.09375 -0.09375 0.203125 -0.15625q0.109375 -0.0625 0.234375 -0.078125q0.125 -0.03125 0.28125 -0.03125q0.265625 0 0.453125 0.109375q0.203125 0.109375 0.328125 0.3125q0.109375 0.203125 0.15625 0.46875q0.0625 0.265625 0.0625 0.578125zm4.8321686 2.609375q0.71875 0 1.234375 -0.28125q0.53125 -0.28125 0.765625 -0.625l-0.625 -0.671875q-0.21875 0.28125 -0.578125 0.421875q-0.34375 0.140625 -0.71875 0.140625q-0.265625 0 -0.484375 -0.078125q-0.21875 -0.09375 -0.390625 -0.234375q-0.171875 -0.15625 -0.28125 -0.328125q-0.09375 -0.1875 -0.15625 -0.484375l0 0l3.34375 0l0 -0.546875q0 -0.546875 -0.15625 -0.984375q-0.140625 -0.453125 -0.4375 -0.765625q-0.28125 -0.328125 -0.703125 -0.5q-0.421875 -0.171875 -0.953125 -0.171875q-0.515625 0 -0.953125 0.1875q-0.4375 0.1875 -0.75 0.515625q-0.328125 0.34375 -0.5 0.8125q-0.171875 0.46875 -0.171875 1.03125l0 0.171875q0 0.5 0.171875 0.9375q0.1875 0.4375 0.515625 0.75q0.328125 0.328125 0.796875 0.515625q0.46875 0.1875 1.03125 0.1875zm-0.140625 -4.09375q0.234375 0 0.421875 0.078125q0.1875 0.078125 0.3125 0.203125q0.125 0.140625 0.1875 0.3125q0.078125 0.171875 0.078125 0.375l0 0.109375l-2.078125 0q0.046875 -0.25 0.140625 -0.4375q0.09375 -0.203125 0.234375 -0.34375q0.125 -0.140625 0.296875 -0.21875q0.1875 -0.078125 0.40625 -0.078125zm3.3477936 4.0l1.265625 0l0 -3.5q0.078125 -0.109375 0.140625 -0.1875q0.078125 -0.078125 0.1875 -0.140625q0.109375 -0.078125 0.265625 -0.109375q0.15625 -0.046875 0.328125 -0.046875q0.21875 0 0.390625 0.046875q0.171875 0.03125 0.296875 0.140625q0.125 0.109375 0.1875 0.296875q0.078125 0.1875 0.078125 0.484375l0 3.015625l1.265625 0l0 -3.03125q0 -0.546875 -0.125 -0.921875q-0.125 -0.375 -0.359375 -0.609375q-0.21875 -0.234375 -0.53125 -0.34375q-0.3125 -0.109375 -0.6875 -0.109375q-0.28125 0 -0.546875 0.078125q-0.265625 0.078125 -0.484375 0.234375q-0.125 0.09375 -0.234375 0.21875q-0.109375 0.109375 -0.203125 0.234375l-0.078125 -0.671875l-1.15625 0l0 4.921875zm9.004044 -1.734375q0 0.1875 -0.078125 0.34375q-0.078125 0.140625 -0.21875 0.234375q-0.125 0.109375 -0.328125 0.171875q-0.203125 0.0625 -0.453125 0.0625q-0.28125 0 -0.53125 -0.0625q-0.234375 -0.078125 -0.40625 -0.203125q-0.171875 -0.140625 -0.265625 -0.359375q-0.09375 -0.21875 -0.109375 -0.515625l-1.25 0q0 0.515625 0.1875 0.90625q0.203125 0.375 0.546875 0.65625q0.359375 0.296875 0.84375 0.453125q0.484375 0.140625 0.984375 0.140625q0.5 0 0.921875 -0.125q0.4375 -0.125 0.75 -0.359375q0.3125 -0.234375 0.484375 -0.5625q0.171875 -0.34375 0.171875 -0.78125q0 -0.515625 -0.234375 -0.890625q-0.21875 -0.390625 -0.609375 -0.6875q-0.265625 -0.171875 -0.578125 -0.3125q-0.3125 -0.140625 -0.65625 -0.234375q-0.3125 -0.078125 -0.5625 -0.171875q-0.25 -0.109375 -0.4375 -0.234375q-0.171875 -0.125 -0.265625 -0.265625q-0.09375 -0.15625 -0.09375 -0.34375q0 -0.171875 0.0625 -0.328125q0.078125 -0.15625 0.21875 -0.265625q0.125 -0.109375 0.328125 -0.171875q0.203125 -0.0625 0.453125 -0.0625q0.28125 0 0.484375 0.078125q0.203125 0.078125 0.34375 0.203125q0.140625 0.140625 0.203125 0.328125q0.078125 0.1875 0.09375 0.40625l1.25 0q0 -0.453125 -0.171875 -0.8125q-0.171875 -0.375 -0.484375 -0.65625q-0.3125 -0.265625 -0.75 -0.40625q-0.421875 -0.15625 -0.9375 -0.15625q-0.5 0 -0.9375 0.125q-0.421875 0.125 -0.734375 0.375q-0.3125 0.234375 -0.5 0.578125q-0.171875 0.34375 -0.171875 0.765625q0 0.359375 0.125 0.671875q0.140625 0.3125 0.40625 0.5625q0.265625 0.25 0.671875 0.46875q0.421875 0.21875 0.96875 0.359375q0.359375 0.109375 0.59375 0.21875q0.25 0.109375 0.390625 0.234375q0.15625 0.140625 0.21875 0.296875q0.0625 0.15625 0.0625 0.328125zm3.4571686 -2.515625l0 -2.75l-1.265625 0l0 7.0l1.265625 0l0 -3.5625q0.078125 -0.09375 0.15625 -0.171875q0.09375 -0.078125 0.203125 -0.125q0.125 -0.0625 0.265625 -0.09375q0.140625 -0.03125 0.3125 -0.03125q0.21875 0 0.390625 0.0625q0.171875 0.046875 0.296875 0.171875q0.125 0.109375 0.1875 0.3125q0.078125 0.1875 0.078125 0.4375l0 3.0l1.265625 0l0 -2.984375q0 -0.546875 -0.140625 -0.921875q-0.125 -0.390625 -0.359375 -0.640625q-0.234375 -0.234375 -0.5625 -0.34375q-0.3125 -0.125 -0.703125 -0.125q-0.265625 0 -0.5 0.078125q-0.234375 0.078125 -0.4375 0.21875q-0.125 0.09375 -0.25 0.21875q-0.109375 0.109375 -0.203125 0.25zm4.6759186 -0.671875l0 1.03125l1.390625 0l0 2.859375l-1.390625 0l0 1.03125l4.015625 0l0 -1.03125l-1.34375 0l0 -3.890625l-2.671875 0zm1.3125 -1.265625q0 0.140625 0.046875 0.265625q0.046875 0.125 0.140625 0.21875q0.109375 0.09375 0.234375 0.140625q0.140625 0.046875 0.296875 0.046875q0.34375 0 0.53125 -0.1875q0.203125 -0.1875 0.203125 -0.484375q0 -0.296875 -0.203125 -0.484375q-0.1875 -0.1875 -0.53125 -0.1875q-0.15625 0 -0.296875 0.046875q-0.125 0.046875 -0.234375 0.140625q-0.09375 0.078125 -0.140625 0.21875q-0.046875 0.125 -0.046875 0.265625zm5.175911 6.1875l1.265625 0l0 -4.0l1.78125 0l0 -0.921875l-1.78125 0l0 -0.28125q0 -0.21875 0.046875 -0.390625q0.0625 -0.171875 0.1875 -0.28125q0.125 -0.140625 0.34375 -0.21875q0.234375 -0.078125 0.546875 -0.078125q0.296875 0 0.515625 0.03125q0.21875 0.03125 0.390625 0.0625l0.078125 -0.984375q-0.15625 -0.03125 -0.296875 -0.046875q-0.140625 -0.03125 -0.28125 -0.046875q-0.140625 -0.015625 -0.296875 -0.03125q-0.140625 -0.015625 -0.296875 -0.015625q-0.5 0 -0.921875 0.140625q-0.40625 0.125 -0.6875 0.375q-0.296875 0.25 -0.453125 0.625q-0.140625 0.375 -0.140625 0.859375l0 0.28125l-1.296875 0l0 0.921875l1.296875 0l0 4.0zm6.6915436 -6.140625l-1.265625 0l0 1.21875l-1.125 0l0 0.921875l1.125 0l0 2.25q0 0.484375 0.125 0.84375q0.125 0.34375 0.359375 0.5625q0.234375 0.21875 0.5625 0.328125q0.328125 0.109375 0.734375 0.109375q0.21875 0 0.421875 -0.03125q0.21875 -0.015625 0.421875 -0.046875q0.203125 -0.03125 0.375 -0.078125q0.1875 -0.0625 0.3125 -0.140625l-0.125 -0.875q-0.078125 0.015625 -0.203125 0.046875q-0.125 0.015625 -0.25 0.03125q-0.140625 0.03125 -0.296875 0.046875q-0.15625 0.015625 -0.296875 0.015625q-0.203125 0 -0.375 -0.046875q-0.15625 -0.046875 -0.265625 -0.15625q-0.109375 -0.109375 -0.171875 -0.28125q-0.0625 -0.1875 -0.0625 -0.453125l0 -2.125l1.84375 0l0 -0.921875l-1.84375 0l0 -1.21875z" fill-rule="nonzero"/></g></svg>