<svg width="2488" height="931" xmlns="http://www.w3.org/2000/svg" xmlns:xlink="http://www.w3.org/1999/xlink" xml:space="preserve" overflow="hidden"><g transform="translate(-87 -1090)"><g><rect x="976" y="1533" width="709" height="269" fill="#4285F4" fill-opacity="1"/><text fill="#FFFFFF" fill-opacity="1" font-family="Roboto Mono Medium,Roboto Mono Medium_MSFontService,sans-serif" font-style="normal" font-variant="normal" font-weight="500" font-stretch="normal" font-size="55" text-anchor="start" direction="ltr" writing-mode="lr-tb" unicode-bidi="normal" text-decoration="none" transform="matrix(1 0 0 1 1014.97 1687)">install</text><text fill="#FFFFFF" fill-opacity="1" font-family="Roboto Mono Medium,Roboto Mono Medium_MSFontService,sans-serif" font-style="normal" font-variant="normal" font-weight="500" font-stretch="normal" font-size="55" text-anchor="start" direction="ltr" writing-mode="lr-tb" unicode-bidi="normal" text-decoration="none" transform="matrix(1 0 0 1 1247.57 1687)">-</text><text fill="#FFFFFF" fill-opacity="1" font-family="Roboto Mono Medium,Roboto Mono Medium_MSFontService,sans-serif" font-style="normal" font-variant="normal" font-weight="500" font-stretch="normal" font-size="55" text-anchor="start" direction="ltr" writing-mode="lr-tb" unicode-bidi="normal" text-decoration="none" transform="matrix(1 0 0 1 1280.8 1687)">config.yaml</text><path d="M799.5 1665.06 887.846 1665.06C889.745 1665.06 891.284 1666.6 891.284 1668.5L891.284 1668.72 887.846 1665.28 953.276 1665.28 953.276 1672.15 887.846 1672.15C885.948 1672.15 884.409 1670.62 884.409 1668.72L884.409 1668.5 887.846 1671.94 799.5 1671.94ZM948.693 1654.97 976.193 1668.72 948.693 1682.47Z" fill="#000000" fill-rule="nonzero" fill-opacity="1"/><rect x="90.4999" y="1317.5" width="709" height="702" stroke="#000000" stroke-width="3.4375" stroke-linecap="butt" stroke-linejoin="round" stroke-miterlimit="10" stroke-opacity="1" fill="#EEEEEE" fill-opacity="1"/><text fill="#000000" fill-opacity="1" font-family="1 Medium,1 Medium_MSFontService,sans-serif" font-style="normal" font-variant="normal" font-weight="500" font-stretch="normal" font-size="64" text-anchor="start" direction="ltr" writing-mode="lr-tb" unicode-bidi="normal" text-decoration="none" transform="matrix(1 0 0 1 239.251 1430)">Cluster Name</text><text fill="#188038" fill-opacity="1" font-family="Roboto Mono,Roboto Mono_MSFontService,sans-serif" font-style="normal" font-variant="normal" font-weight="700" font-stretch="normal" font-size="50" text-anchor="start" direction="ltr" writing-mode="lr-tb" unicode-bidi="normal" text-decoration="none" transform="matrix(1 0 0 1 368.455 1496)">disco</text><text fill="#000000" fill-opacity="1" font-family="1 Medium,1 Medium_MSFontService,sans-serif" font-style="normal" font-variant="normal" font-weight="500" font-stretch="normal" font-size="64" text-anchor="start" direction="ltr" writing-mode="lr-tb" unicode-bidi="normal" text-decoration="none" transform="matrix(1 0 0 1 247.845 1628)">Base Domain</text><text fill="#188038" fill-opacity="1" font-family="Roboto Mono,Roboto Mono_MSFontService,sans-serif" font-style="normal" font-variant="normal" font-weight="700" font-stretch="normal" font-size="50" text-anchor="start" direction="ltr" writing-mode="lr-tb" unicode-bidi="normal" text-decoration="none" transform="matrix(1 0 0 1 398.82 1694)">lab</text><text fill="#000000" fill-opacity="1" font-family="1 Medium,1 Medium_MSFontService,sans-serif" font-style="normal" font-variant="normal" font-weight="500" font-stretch="normal" font-size="64" text-anchor="start" direction="ltr" writing-mode="lr-tb" unicode-bidi="normal" text-decoration="none" transform="matrix(1 0 0 1 244.407 1826)">Platform info</text><text fill="#188038" fill-opacity="1" font-family="Roboto Mono,Roboto Mono_MSFontService,sans-serif" font-style="normal" font-variant="normal" font-weight="700" font-stretch="normal" font-size="50" text-anchor="start" direction="ltr" writing-mode="lr-tb" unicode-bidi="normal" text-decoration="none" transform="matrix(1 0 0 1 171.074 1892)">Amazon AWS details</text><text fill="#188038" fill-opacity="1" font-family="Roboto Mono,Roboto Mono_MSFontService,sans-serif" font-style="normal" font-variant="normal" font-weight="700" font-stretch="normal" font-size="50" text-anchor="start" direction="ltr" writing-mode="lr-tb" unicode-bidi="normal" text-decoration="none" transform="matrix(1 0 0 1 125.539 1953)">Single Node OpenShift</text><rect x="1862.5" y="1092.5" width="710" height="245" stroke="#000000" stroke-width="3.4375" stroke-linecap="butt" stroke-linejoin="round" stroke-miterlimit="10" stroke-opacity="1" fill="#EEEEEE" fill-opacity="1"/><text fill="#000000" fill-opacity="1" font-family="1 Medium,1 Medium_MSFontService,sans-serif" font-style="normal" font-variant="normal" font-weight="500" font-stretch="normal" font-size="64" text-anchor="start" direction="ltr" writing-mode="lr-tb" unicode-bidi="normal" text-decoration="none" transform="matrix(1 0 0 1 1988.05 1205)">SSH Public Key</text><text fill="#188038" fill-opacity="1" font-family="Roboto Mono,Roboto Mono_MSFontService,sans-serif" font-style="normal" font-variant="normal" font-weight="700" font-stretch="normal" font-size="50" text-anchor="start" direction="ltr" writing-mode="lr-tb" unicode-bidi="normal" text-decoration="none" transform="matrix(1 0 0 1 2019.56 1271)">for debugging</text><rect x="1862.5" y="1394.5" width="710" height="246" stroke="#000000" stroke-width="3.4375" stroke-linecap="butt" stroke-linejoin="round" stroke-miterlimit="10" stroke-opacity="1" fill="#EEEEEE" fill-opacity="1"/><text fill="#000000" fill-opacity="1" font-family="1 Medium,1 Medium_MSFontService,sans-serif" font-style="normal" font-variant="normal" font-weight="500" font-stretch="normal" font-size="64" text-anchor="start" direction="ltr" writing-mode="lr-tb" unicode-bidi="normal" text-decoration="none" transform="matrix(1 0 0 1 2053.63 1507)">Pull Secret</text><text fill="#188038" fill-opacity="1" font-family="14,14_MSFontService,sans-serif" font-style="normal" font-variant="normal" font-weight="700" font-stretch="normal" font-size="50" text-anchor="start" direction="ltr" writing-mode="lr-tb" unicode-bidi="normal" text-decoration="none" transform="matrix(1 0 0 1 1952.52 1572)">mirror</text><text fill="#188038" fill-opacity="1" font-family="14,14_MSFontService,sans-serif" font-style="normal" font-variant="normal" font-weight="700" font-stretch="normal" font-size="50" text-anchor="start" direction="ltr" writing-mode="lr-tb" unicode-bidi="normal" text-decoration="none" transform="matrix(1 0 0 1 2110.65 1572)">-</text><text fill="#188038" fill-opacity="1" font-family="14,14_MSFontService,sans-serif" font-style="normal" font-variant="normal" font-weight="700" font-stretch="normal" font-size="50" text-anchor="start" direction="ltr" writing-mode="lr-tb" unicode-bidi="normal" text-decoration="none" transform="matrix(1 0 0 1 2134.14 1572)">registry creds</text><rect x="1862.5" y="1696.5" width="710" height="246" stroke="#000000" stroke-width="3.4375" stroke-linecap="butt" stroke-linejoin="round" stroke-miterlimit="10" stroke-opacity="1" fill="#EEEEEE" fill-opacity="1"/><text fill="#000000" fill-opacity="1" font-family="1 Medium,1 Medium_MSFontService,sans-serif" font-style="normal" font-variant="normal" font-weight="500" font-stretch="normal" font-size="64" text-anchor="start" direction="ltr" writing-mode="lr-tb" unicode-bidi="normal" text-decoration="none" transform="matrix(1 0 0 1 2008.11 1809)">Image Mirrors</text><text fill="#188038" fill-opacity="1" font-family="14,14_MSFontService,sans-serif" font-style="normal" font-variant="normal" font-weight="700" font-stretch="normal" font-size="50" text-anchor="start" direction="ltr" writing-mode="lr-tb" unicode-bidi="normal" text-decoration="none" transform="matrix(1 0 0 1 1939.06 1874)">imageContentSources</text><path d="M0-3.4375 88.3465-3.4375C90.2449-3.4375 91.784-1.89848 91.784 0L91.784 453.317 88.3465 449.879 153.776 449.879 153.776 456.754 88.3465 456.754C86.448 456.754 84.909 455.215 84.909 453.317L84.909 0 88.3465 3.4375 0 3.4375ZM149.193 439.567 176.693 453.317 149.193 467.067Z" fill="#000000" fill-rule="nonzero" fill-opacity="1" transform="matrix(-1 0 0 1 1862.19 1215.5)"/><path d="M0-3.4375 88.3465-3.4375C90.2449-3.4375 91.784-1.89848 91.784 0L91.784 151.033 88.3465 147.596 153.776 147.596 153.776 154.471 88.3465 154.471C86.448 154.471 84.909 152.932 84.909 151.033L84.909 0 88.3465 3.4375 0 3.4375ZM149.193 137.283 176.693 151.033 149.193 164.783Z" fill="#000000" fill-rule="nonzero" fill-opacity="1" transform="matrix(-1 0 0 1 1862.19 1517.5)"/><path d="M1862.19 1823.19 1773.85 1823.19C1771.95 1823.19 1770.41 1821.65 1770.41 1819.75L1770.41 1668.5 1773.85 1671.94 1708.42 1671.94 1708.42 1665.06 1773.85 1665.06C1775.74 1665.06 1777.28 1666.6 1777.28 1668.5L1777.28 1819.75 1773.85 1816.31 1862.19 1816.31ZM1713 1682.25 1685.5 1668.5 1713 1654.75Z" fill="#000000" fill-rule="nonzero" fill-opacity="1"/></g></g></svg>