<svg version="1.1" viewBox="0.0 0.0 960.0 720.0" fill="none" stroke="none" stroke-linecap="square" stroke-miterlimit="10" xmlns:xlink="http://www.w3.org/1999/xlink" xmlns="http://www.w3.org/2000/svg"><clipPath id="g2d1efea3905_0_192.0"><path d="m0 0l960.0 0l0 720.0l-960.0 0l0 -720.0z" clip-rule="nonzero"/></clipPath><g clip-path="url(#g2d1efea3905_0_192.0)"><path fill="#ffffff" d="m0 0l960.0 0l0 720.0l-960.0 0z" fill-rule="evenodd"/><path fill="#4285f4" d="m283.88452 446.042l206.4252 0l0 78.2677l-206.4252 0z" fill-rule="evenodd"/><path fill="#ffffff" d="m297.5229 482.58273l0 1.546875l2.609375 0l0 5.359375l-2.609375 0l0 1.546875l6.96875 0l0 -1.546875l-2.484375 0l0 -6.90625l-4.484375 0zm2.4375 -2.1875q0 0.296875 0.140625 0.515625q0.140625 0.21875 0.421875 0.3125q0.28125 0.078125 0.5 0.03125q0.234375 -0.046875 0.390625 -0.1875q0.328125 -0.09375 0.5 -0.34375q0.171875 -0.25 0.125 -0.59375q-0.046875 -0.34375 -0.3125 -0.546875q-0.25 -0.21875 -0.671875 -0.21875q-0.25 0 -0.453125 0.078125q-0.203125 0.0625 -0.34375 0.203125q-0.140625 0.140625 -0.21875 0.328125q-0.078125 0.1875 -0.078125 0.421875zm6.7421875 10.640625l1.859375 0l0 -6.03125q0.125 -0.21875 0.28125 -0.390625q0.171875 -0.1875 0.359375 -0.3125q0.25 -0.15625 0.546875 -0.25q0.296875 -0.09375 0.640625 -0.09375q0.40625 0 0.71875 0.09375q0.328125 0.09375 0.5625 0.296875q0.21875 0.21875 0.328125 0.578125q0.125 0.34375 0.125 0.859375l0 5.25l1.875 0l0 -5.28125q0 -0.890625 -0.21875 -1.515625q-0.203125 -0.625 -0.59375 -1.03125q-0.375 -0.40625 -0.921875 -0.59375q-0.53125 -0.1875 -1.1875 -0.1875q-0.484375 0 -0.9375 0.140625q-0.4375 0.140625 -0.8125 0.390625q-0.234375 0.171875 -0.453125 0.375q-0.203125 0.203125 -0.375 0.453125l-0.109375 -1.203125l-1.6875 0l0 8.453125zm15.1171875 -2.296875q0 0.203125 -0.09375 0.375q-0.078125 0.171875 -0.265625 0.3125q-0.21875 0.171875 -0.578125 0.28125q-0.359375 0.09375 -0.84375 0.09375q-0.359375 0 -0.71875 -0.078125q-0.34375 -0.078125 -0.625 -0.25q-0.28125 -0.15625 -0.46875 -0.421875q-0.171875 -0.28125 -0.203125 -0.671875l-1.8125 0q0 0.53125 0.25 1.046875q0.25 0.5 0.734375 0.890625q0.484375 0.390625 1.1875 0.640625q0.703125 0.25 1.625 0.25q0.8125 0 1.484375 -0.1875q0.671875 -0.203125 1.15625 -0.53125q0.484375 -0.34375 0.734375 -0.8125q0.265625 -0.46875 0.265625 -1.03125q0 -0.578125 -0.25 -1.0q-0.25 -0.421875 -0.703125 -0.734375q-0.453125 -0.296875 -1.09375 -0.5q-0.640625 -0.203125 -1.40625 -0.34375q-0.5625 -0.09375 -0.921875 -0.203125q-0.359375 -0.125 -0.5625 -0.265625q-0.21875 -0.125 -0.3125 -0.296875q-0.078125 -0.1875 -0.078125 -0.40625q0 -0.203125 0.09375 -0.390625q0.109375 -0.203125 0.3125 -0.34375q0.203125 -0.15625 0.515625 -0.234375q0.3125 -0.09375 0.734375 -0.09375q0.46875 0 0.8125 0.125q0.34375 0.109375 0.5625 0.3125q0.1875 0.171875 0.28125 0.390625q0.09375 0.21875 0.09375 0.453125l1.875 0q0 -0.578125 -0.25 -1.0625q-0.25 -0.5 -0.71875 -0.859375q-0.46875 -0.359375 -1.140625 -0.5625q-0.671875 -0.203125 -1.515625 -0.203125q-0.78125 0 -1.4375 0.203125q-0.640625 0.203125 -1.09375 0.546875q-0.453125 0.359375 -0.703125 0.828125q-0.25 0.453125 -0.25 0.96875q0 0.546875 0.234375 0.953125q0.25 0.40625 0.6875 0.703125q0.4375 0.3125 1.03125 0.53125q0.609375 0.21875 1.34375 0.359375q0.59375 0.109375 0.984375 0.234375q0.390625 0.125 0.625 0.265625q0.234375 0.15625 0.328125 0.328125q0.09375 0.171875 0.09375 0.390625zm7.8359375 -8.21875l-1.875 0l0 2.0625l-2.046875 0l0 1.390625l2.046875 0l0 4.15625q0 0.8125 0.203125 1.390625q0.21875 0.578125 0.609375 0.953125q0.375 0.375 0.90625 0.5625q0.546875 0.171875 1.1875 0.171875q0.34375 0 0.703125 -0.046875q0.359375 -0.03125 0.6875 -0.09375q0.328125 -0.0625 0.609375 -0.15625q0.28125 -0.09375 0.484375 -0.21875l-0.203125 -1.28125q-0.140625 0.03125 -0.34375 0.078125q-0.203125 0.03125 -0.4375 0.0625q-0.25 0.046875 -0.515625 0.078125q-0.25 0.015625 -0.484375 0.015625q-0.34375 0 -0.625 -0.078125q-0.28125 -0.078125 -0.484375 -0.265625q-0.203125 -0.1875 -0.3125 -0.5q-0.109375 -0.3125 -0.109375 -0.78125l0 -4.046875l3.171875 0l0 -1.390625l-3.171875 0l0 -2.0625zm11.2421875 10.515625l1.90625 0l0 -0.140625q-0.15625 -0.328125 -0.234375 -0.78125q-0.078125 -0.453125 -0.078125 -1.03125l0 -3.75q0 -0.71875 -0.265625 -1.265625q-0.265625 -0.5625 -0.734375 -0.921875q-0.46875 -0.359375 -1.125 -0.53125q-0.640625 -0.1875 -1.375 -0.1875q-0.828125 0 -1.484375 0.21875q-0.640625 0.203125 -1.078125 0.578125q-0.453125 0.359375 -0.6875 0.828125q-0.234375 0.46875 -0.234375 0.96875l1.875 0q0 -0.234375 0.078125 -0.453125q0.09375 -0.21875 0.28125 -0.359375q0.1875 -0.171875 0.46875 -0.265625q0.296875 -0.09375 0.671875 -0.09375q0.421875 0 0.75 0.109375q0.328125 0.109375 0.546875 0.296875q0.21875 0.203125 0.328125 0.46875q0.109375 0.265625 0.109375 0.59375l0 0.5625l-1.359375 0q-0.90625 0 -1.640625 0.171875q-0.71875 0.171875 -1.203125 0.5q-0.53125 0.359375 -0.8125 0.890625q-0.28125 0.53125 -0.28125 1.234375q0 0.53125 0.21875 1.0q0.21875 0.46875 0.609375 0.796875q0.375 0.328125 0.921875 0.53125q0.546875 0.1875 1.203125 0.1875q0.40625 0 0.75 -0.078125q0.359375 -0.078125 0.65625 -0.21875q0.3125 -0.140625 0.546875 -0.3125q0.25 -0.1875 0.453125 -0.390625q0.03125 0.234375 0.078125 0.46875q0.0625 0.21875 0.140625 0.375zm-2.265625 -1.34375q-0.359375 0 -0.625 -0.09375q-0.265625 -0.09375 -0.453125 -0.25q-0.171875 -0.15625 -0.265625 -0.375q-0.09375 -0.21875 -0.09375 -0.484375q0 -0.3125 0.109375 -0.5625q0.109375 -0.25 0.34375 -0.421875q0.265625 -0.21875 0.703125 -0.328125q0.453125 -0.109375 1.0625 -0.109375l1.203125 0l0 1.5625q-0.09375 0.203125 -0.28125 0.390625q-0.1875 0.1875 -0.453125 0.328125q-0.25 0.15625 -0.578125 0.25q-0.3125 0.09375 -0.671875 0.09375zm6.8359375 -10.65625l0 1.546875l2.671875 0l0 8.90625l-2.671875 0l0 1.546875l7.109375 0l0 -1.546875l-2.5625 0l0 -10.453125l-4.546875 0zm9.6015625 0l0 1.546875l2.671875 0l0 8.90625l-2.671875 0l0 1.546875l7.109375 0l0 -1.546875l-2.5625 0l0 -10.453125l-4.546875 0zm16.304688 7.75l0 -1.515625l-6.28125 0l0 1.515625l6.28125 0zm6.2109375 2.90625q-0.578125 0 -0.96875 -0.234375q-0.390625 -0.234375 -0.625 -0.625q-0.234375 -0.375 -0.328125 -0.875q-0.09375 -0.5 -0.09375 -1.015625l0 -0.265625q0 -0.515625 0.09375 -1.0q0.09375 -0.5 0.34375 -0.875q0.21875 -0.390625 0.609375 -0.625q0.390625 -0.234375 0.96875 -0.234375q0.390625 0 0.71875 0.140625q0.328125 0.125 0.578125 0.34375q0.234375 0.234375 0.359375 0.546875q0.125 0.296875 0.125 0.640625l1.765625 0q0 -0.703125 -0.265625 -1.28125q-0.25 -0.59375 -0.71875 -1.015625q-0.46875 -0.421875 -1.125 -0.65625q-0.65625 -0.234375 -1.421875 -0.234375q-0.96875 0 -1.703125 0.34375q-0.71875 0.328125 -1.21875 0.90625q-0.484375 0.578125 -0.734375 1.359375q-0.25 0.765625 -0.25 1.640625l0 0.265625q0 0.875 0.25 1.65625q0.25 0.765625 0.75 1.34375q0.484375 0.578125 1.203125 0.921875q0.734375 0.34375 1.71875 0.34375q0.703125 0 1.328125 -0.234375q0.640625 -0.234375 1.140625 -0.640625q0.484375 -0.390625 0.765625 -0.9375q0.28125 -0.546875 0.28125 -1.15625l-1.765625 0q0 0.3125 -0.140625 0.578125q-0.140625 0.265625 -0.390625 0.46875q-0.25 0.1875 -0.578125 0.296875q-0.3125 0.109375 -0.671875 0.109375zm5.5859375 -2.96875l0 0.171875q0 0.921875 0.265625 1.703125q0.265625 0.78125 0.765625 1.359375q0.5 0.578125 1.234375 0.921875q0.734375 0.328125 1.671875 0.328125q0.921875 0 1.640625 -0.328125q0.734375 -0.34375 1.234375 -0.921875q0.5 -0.578125 0.765625 -1.359375q0.265625 -0.78125 0.265625 -1.703125l0 -0.171875q0 -0.921875 -0.265625 -1.703125q-0.265625 -0.78125 -0.765625 -1.359375q-0.5 -0.578125 -1.234375 -0.90625q-0.734375 -0.328125 -1.65625 -0.328125q-0.9375 0 -1.671875 0.328125q-0.71875 0.328125 -1.21875 0.90625q-0.5 0.578125 -0.765625 1.359375q-0.265625 0.78125 -0.265625 1.703125zm1.859375 0.171875l0 -0.171875q0 -0.546875 0.125 -1.046875q0.125 -0.515625 0.375 -0.90625q0.25 -0.375 0.640625 -0.59375q0.390625 -0.234375 0.921875 -0.234375q0.53125 0 0.921875 0.234375q0.390625 0.21875 0.640625 0.59375q0.25 0.390625 0.375 0.90625q0.125 0.5 0.125 1.046875l0 0.171875q0 0.5625 -0.125 1.078125q-0.125 0.5 -0.375 0.890625q-0.25 0.375 -0.640625 0.609375q-0.390625 0.21875 -0.90625 0.21875q-0.546875 0 -0.9375 -0.21875q-0.390625 -0.234375 -0.640625 -0.609375q-0.25 -0.390625 -0.375 -0.890625q-0.125 -0.515625 -0.125 -1.078125zm8.0859375 4.140625l1.859375 0l0 -6.03125q0.125 -0.21875 0.28125 -0.390625q0.171875 -0.1875 0.359375 -0.3125q0.25 -0.15625 0.546875 -0.25q0.296875 -0.09375 0.640625 -0.09375q0.40625 0 0.71875 0.09375q0.328125 0.09375 0.5625 0.296875q0.21875 0.21875 0.328125 0.578125q0.125 0.34375 0.125 0.859375l0 5.25l1.875 0l0 -5.28125q0 -0.890625 -0.21875 -1.515625q-0.203125 -0.625 -0.59375 -1.03125q-0.375 -0.40625 -0.921875 -0.59375q-0.53125 -0.1875 -1.1875 -0.1875q-0.484375 0 -0.9375 0.140625q-0.4375 0.140625 -0.8125 0.390625q-0.234375 0.171875 -0.453125 0.375q-0.203125 0.203125 -0.375 0.453125l-0.109375 -1.203125l-1.6875 0l0 8.453125zm11.7265625 0l1.875 0l0 -7.0625l3.125 0l0 -1.390625l-3.125 0l0 -0.515625q0 -0.453125 0.109375 -0.78125q0.109375 -0.34375 0.34375 -0.5625q0.234375 -0.25 0.609375 -0.375q0.390625 -0.125 0.90625 -0.125q0.5 0 0.890625 0.0625q0.40625 0.0625 0.71875 0.15625l0.140625 -1.5q-0.234375 -0.046875 -0.46875 -0.078125q-0.21875 -0.046875 -0.4375 -0.078125q-0.265625 -0.046875 -0.546875 -0.0625q-0.265625 -0.03125 -0.5625 -0.03125q-0.8125 0 -1.484375 0.21875q-0.65625 0.21875 -1.125 0.640625q-0.46875 0.421875 -0.71875 1.0625q-0.25 0.625 -0.25 1.453125l0 0.515625l-2.265625 0l0 1.390625l2.265625 0l0 7.0625zm7.8984375 -8.453125l0 1.546875l2.609375 0l0 5.359375l-2.609375 0l0 1.546875l6.96875 0l0 -1.546875l-2.484375 0l0 -6.90625l-4.484375 0zm2.4375 -2.1875q0 0.296875 0.140625 0.515625q0.140625 0.21875 0.421875 0.3125q0.28125 0.078125 0.5 0.03125q0.234375 -0.046875 0.390625 -0.1875q0.328125 -0.09375 0.5 -0.34375q0.171875 -0.25 0.125 -0.59375q-0.046875 -0.34375 -0.3125 -0.546875q-0.25 -0.21875 -0.671875 -0.21875q-0.25 0 -0.453125 0.078125q-0.203125 0.0625 -0.34375 0.203125q-0.140625 0.140625 -0.21875 0.328125q-0.078125 0.1875 -0.078125 0.421875zm6.4921875 6.34375l0 0.171875q0 0.90625 0.234375 1.703125q0.25 0.78125 0.6875 1.34375q0.4375 0.578125 1.0625 0.90625q0.625 0.328125 1.40625 0.328125q0.4375 0 0.796875 -0.09375q0.375 -0.09375 0.671875 -0.265625q0.203125 -0.109375 0.375 -0.25q0.1875 -0.15625 0.34375 -0.328125l0 0.59375q0 0.484375 -0.140625 0.859375q-0.125 0.375 -0.375 0.625q-0.28125 0.265625 -0.671875 0.40625q-0.375 0.140625 -0.875 0.140625q-0.296875 0 -0.578125 -0.0625q-0.28125 -0.046875 -0.546875 -0.171875q-0.28125 -0.125 -0.546875 -0.328125q-0.25 -0.203125 -0.484375 -0.46875l-0.875 1.125q0.28125 0.375 0.671875 0.640625q0.390625 0.265625 0.8125 0.4375q0.4375 0.15625 0.859375 0.234375q0.4375 0.078125 0.796875 0.078125q0.84375 0 1.546875 -0.234375q0.71875 -0.234375 1.21875 -0.6875q0.5 -0.46875 0.78125 -1.125q0.28125 -0.65625 0.28125 -1.515625l0 -8.21875l-1.703125 0l-0.078125 0.84375q-0.15625 -0.1875 -0.34375 -0.34375q-0.171875 -0.15625 -0.375 -0.28125q-0.3125 -0.1875 -0.703125 -0.28125q-0.375 -0.09375 -0.84375 -0.09375q-0.78125 0 -1.421875 0.3125q-0.625 0.3125 -1.0625 0.890625q-0.453125 0.5625 -0.6875 1.359375q-0.234375 0.796875 -0.234375 1.75zm1.875 0.171875l0 -0.171875q0 -0.5625 0.109375 -1.0625q0.125 -0.515625 0.375 -0.890625q0.25 -0.390625 0.625 -0.609375q0.375 -0.21875 0.890625 -0.21875q0.296875 0 0.546875 0.078125q0.25 0.0625 0.453125 0.171875q0.234375 0.125 0.40625 0.3125q0.171875 0.1875 0.296875 0.421875l0 3.703125q-0.125 0.234375 -0.296875 0.421875q-0.15625 0.1875 -0.359375 0.3125q-0.21875 0.125 -0.484375 0.203125q-0.25 0.0625 -0.578125 0.0625q-0.515625 0 -0.890625 -0.203125q-0.375 -0.21875 -0.609375 -0.609375q-0.25 -0.359375 -0.375 -0.859375q-0.109375 -0.5 -0.109375 -1.0625zm10.3046875 3.0q0 0.53125 0.34375 0.90625q0.359375 0.375 1.0 0.375q0.640625 0 1.0 -0.359375q0.359375 -0.375 0.359375 -0.921875q0 -0.546875 -0.359375 -0.921875q-0.359375 -0.390625 -1.0 -0.390625q-0.65625 0 -1.0 0.390625q-0.34375 0.375 -0.34375 0.921875zm8.3359375 4.546875q0.609375 0 1.0625 -0.21875q0.46875 -0.21875 0.8125 -0.53125q0.328125 -0.3125 0.546875 -0.6875q0.234375 -0.375 0.375 -0.703125l4.296875 -9.734375l-2.078125 0l-2.03125 5.1875l-0.359375 0.90625l-0.28125 -0.9375l-2.109375 -5.15625l-2.046875 0l3.59375 8.078125l-0.53125 1.015625q-0.078125 0.171875 -0.1875 0.328125q-0.09375 0.15625 -0.25 0.359375q-0.15625 0.203125 -0.375 0.359375q-0.21875 0.15625 -0.5 0.15625q-0.125 0 -0.328125 -0.015625q-0.1875 0 -0.34375 -0.015625l-0.265625 1.46875q0.234375 0.046875 0.46875 0.09375q0.25 0.046875 0.53125 0.046875zm13.9296875 -3.421875l1.90625 0l0 -0.140625q-0.15625 -0.328125 -0.234375 -0.78125q-0.078125 -0.453125 -0.078125 -1.03125l0 -3.75q0 -0.71875 -0.265625 -1.265625q-0.265625 -0.5625 -0.734375 -0.921875q-0.46875 -0.359375 -1.125 -0.53125q-0.640625 -0.1875 -1.375 -0.1875q-0.828125 0 -1.484375 0.21875q-0.640625 0.203125 -1.078125 0.578125q-0.453125 0.359375 -0.6875 0.828125q-0.234375 0.46875 -0.234375 0.96875l1.875 0q0 -0.234375 0.078125 -0.453125q0.09375 -0.21875 0.28125 -0.359375q0.1875 -0.171875 0.46875 -0.265625q0.296875 -0.09375 0.671875 -0.09375q0.421875 0 0.75 0.109375q0.328125 0.109375 0.546875 0.296875q0.21875 0.203125 0.328125 0.46875q0.109375 0.265625 0.109375 0.59375l0 0.5625l-1.359375 0q-0.90625 0 -1.640625 0.171875q-0.71875 0.171875 -1.203125 0.5q-0.53125 0.359375 -0.8125 0.890625q-0.28125 0.53125 -0.28125 1.234375q0 0.53125 0.21875 1.0q0.21875 0.46875 0.609375 0.796875q0.375 0.328125 0.921875 0.53125q0.546875 0.1875 1.203125 0.1875q0.40625 0 0.75 -0.078125q0.359375 -0.078125 0.65625 -0.21875q0.3125 -0.140625 0.546875 -0.3125q0.25 -0.1875 0.453125 -0.390625q0.03125 0.234375 0.078125 0.46875q0.0625 0.21875 0.140625 0.375zm-2.265625 -1.34375q-0.359375 0 -0.625 -0.09375q-0.265625 -0.09375 -0.453125 -0.25q-0.171875 -0.15625 -0.265625 -0.375q-0.09375 -0.21875 -0.09375 -0.484375q0 -0.3125 0.109375 -0.5625q0.109375 -0.25 0.34375 -0.421875q0.265625 -0.21875 0.703125 -0.328125q0.453125 -0.109375 1.0625 -0.109375l1.203125 0l0 1.5625q-0.09375 0.203125 -0.28125 0.390625q-0.1875 0.1875 -0.453125 0.328125q-0.25 0.15625 -0.578125 0.25q-0.3125 0.09375 -0.671875 0.09375zm7.5390625 -7.109375l-1.625 0l0 8.453125l1.71875 0l0 -6.5q0.046875 -0.109375 0.09375 -0.203125q0.0625 -0.09375 0.140625 -0.171875q0.109375 -0.09375 0.25 -0.140625q0.140625 -0.0625 0.328125 -0.0625q0.171875 0 0.3125 0.046875q0.140625 0.046875 0.234375 0.15625q0.109375 0.09375 0.15625 0.28125q0.046875 0.171875 0.046875 0.421875l0 6.171875l1.6875 0l0 -6.28125q0 -0.078125 0 -0.109375q0 -0.046875 0 -0.078125q0.03125 -0.140625 0.09375 -0.234375q0.0625 -0.109375 0.15625 -0.1875q0.109375 -0.09375 0.234375 -0.140625q0.140625 -0.046875 0.3125 -0.046875q0.171875 0 0.3125 0.046875q0.15625 0.046875 0.25 0.15625q0.109375 0.109375 0.15625 0.28125q0.0625 0.171875 0.0625 0.421875l0 6.171875l1.71875 0l0 -6.15625q0 -0.65625 -0.140625 -1.125q-0.140625 -0.484375 -0.390625 -0.78125q-0.25 -0.28125 -0.59375 -0.40625q-0.328125 -0.140625 -0.734375 -0.140625q-0.3125 0 -0.578125 0.078125q-0.265625 0.078125 -0.46875 0.21875q-0.171875 0.109375 -0.3125 0.265625q-0.140625 0.15625 -0.25 0.328125q-0.078125 -0.1875 -0.1875 -0.34375q-0.109375 -0.15625 -0.25 -0.265625q-0.171875 -0.140625 -0.421875 -0.203125q-0.25 -0.078125 -0.5625 -0.078125q-0.609375 0 -1.03125 0.296875q-0.421875 0.28125 -0.671875 0.78125l-0.046875 -0.921875zm8.8984375 -3.546875l0 1.546875l2.671875 0l0 8.90625l-2.671875 0l0 1.546875l7.109375 0l0 -1.546875l-2.5625 0l0 -10.453125l-4.546875 0z" fill-rule="nonzero"/><path fill="#000000" fill-opacity="0.0" d="m232.48294 485.17584l25.700775 0l0 0.06298828l25.700806 0" fill-rule="evenodd"/><path stroke="#000000" stroke-width="2.0" stroke-linejoin="round" stroke-linecap="butt" d="m232.48294 485.17584l25.700775 0l0 0.06298828l13.700806 0" fill-rule="evenodd"/><path fill="#000000" stroke="#000000" stroke-width="2.0" stroke-linecap="butt" d="m271.88452 488.5423l9.076202 -3.3034668l-9.076202 -3.3034363z" fill-rule="evenodd"/><path fill="#eeeeee" d="m26.057743 383.0971l206.4252 0l0 204.15747l-206.4252 0z" fill-rule="evenodd"/><path stroke="#000000" stroke-width="1.0" stroke-linejoin="round" stroke-linecap="butt" d="m26.057743 383.0971l206.4252 0l0 204.15747l-206.4252 0z" fill-rule="evenodd"/><path fill="#000000" d="m77.52546 416.29898q-1.421875 0 -2.65625 -0.515625q-1.21875 -0.515625 -2.140625 -1.4375q-0.921875 -0.921875 -1.4375 -2.140625q-0.515625 -1.21875 -0.515625 -2.640625q0 -1.421875 0.515625 -2.640625q0.515625 -1.21875 1.4375 -2.140625q0.921875 -0.921875 2.140625 -1.4375q1.234375 -0.515625 2.65625 -0.515625q1.015625 0 1.9375 0.28125q0.9375 0.28125 1.75 0.796875q0.8125 0.515625 1.40625 1.25l-1.484375 1.453125q-0.703125 -0.875 -1.640625 -1.3125q-0.921875 -0.453125 -1.96875 -0.453125q-0.953125 0 -1.765625 0.359375q-0.8125 0.34375 -1.421875 1.0q-0.59375 0.640625 -0.9375 1.5q-0.328125 0.859375 -0.328125 1.859375q0 1.015625 0.328125 1.875q0.34375 0.84375 0.9375 1.5q0.609375 0.640625 1.421875 1.0q0.8125 0.34375 1.765625 0.34375q1.046875 0 1.96875 -0.453125q0.9375 -0.453125 1.640625 -1.3125l1.484375 1.453125q-0.59375 0.71875 -1.40625 1.25q-0.8125 0.515625 -1.75 0.796875q-0.921875 0.28125 -1.9375 0.28125zm7.0978394 -0.203125l0 -13.375l2.109375 -0.375l0 13.75l-2.109375 0zm7.8888702 0.15625q-0.96875 0 -1.703125 -0.421875q-0.71875 -0.4375 -1.140625 -1.1875q-0.421875 -0.75 -0.421875 -1.734375l0 -6.15625l2.125 0l0 5.53125q0 1.046875 0.546875 1.65625q0.546875 0.609375 1.5 0.609375q0.640625 0 1.15625 -0.28125q0.515625 -0.28125 0.875 -0.84375l0 -6.671875l2.109375 0l0 9.34375l-2.109375 0l0 -1.515625q-0.53125 0.828125 -1.28125 1.25q-0.75 0.421875 -1.65625 0.421875zm10.842316 0.03125q-1.203125 0 -2.234375 -0.328125q-1.03125 -0.328125 -1.78125 -0.9375l0.984375 -1.40625q0.9375 0.578125 1.609375 0.828125q0.6875 0.234375 1.390625 0.234375q0.84375 0 1.359375 -0.34375q0.53125 -0.359375 0.53125 -0.921875q0 -0.421875 -0.3125 -0.671875q-0.296875 -0.265625 -1.0 -0.390625l-1.640625 -0.28125q-1.359375 -0.265625 -2.03125 -0.890625q-0.671875 -0.640625 -0.671875 -1.6875q0 -0.875 0.453125 -1.515625q0.46875 -0.640625 1.28125 -1.0q0.8125 -0.375 1.890625 -0.375q0.96875 0 1.875 0.28125q0.921875 0.28125 1.796875 0.84375l-0.984375 1.390625q-0.71875 -0.453125 -1.421875 -0.671875q-0.6875 -0.21875 -1.40625 -0.21875q-0.71875 0 -1.15625 0.296875q-0.4375 0.28125 -0.4375 0.78125q0 0.453125 0.28125 0.6875q0.296875 0.234375 1.015625 0.34375l1.671875 0.3125q1.390625 0.25 2.0625 0.890625q0.6875 0.640625 0.6875 1.703125q0 0.859375 -0.5 1.5625q-0.5 0.6875 -1.359375 1.09375q-0.859375 0.390625 -1.953125 0.390625zm9.59343 0q-1.40625 0 -2.140625 -0.65625q-0.71875 -0.671875 -0.71875 -1.953125l0 -5.25l-1.875 0l0 -1.671875l1.875 0l0 -2.578125l2.109375 -0.453125l0 3.03125l2.578125 0l0 1.671875l-2.578125 0l0 4.78125q0 0.6875 0.296875 0.984375q0.296875 0.28125 1.0 0.28125q0.3125 0 0.578125 -0.046875q0.28125 -0.046875 0.6875 -0.171875l0 1.765625q-0.390625 0.140625 -0.890625 0.203125q-0.484375 0.0625 -0.921875 0.0625zm7.902481 0q-1.34375 0 -2.4375 -0.640625q-1.078125 -0.640625 -1.71875 -1.734375q-0.625 -1.09375 -0.625 -2.484375q0 -1.375 0.59375 -2.453125q0.609375 -1.078125 1.640625 -1.71875q1.03125 -0.65625 2.296875 -0.65625q1.3125 0 2.3125 0.640625q1.0 0.625 1.5625 1.71875q0.5625 1.078125 0.5625 2.46875l0 0.515625l-6.890625 0q0.109375 0.765625 0.484375 1.359375q0.390625 0.578125 0.984375 0.921875q0.609375 0.328125 1.328125 0.328125q0.65625 0 1.234375 -0.234375q0.59375 -0.234375 0.984375 -0.640625l1.375 1.25q-0.859375 0.703125 -1.75 1.03125q-0.875 0.328125 -1.9375 0.328125zm-2.6875 -5.65625l4.890625 0q-0.109375 -0.671875 -0.46875 -1.1875q-0.34375 -0.53125 -0.859375 -0.828125q-0.5 -0.296875 -1.125 -0.296875q-0.609375 0 -1.125 0.296875q-0.515625 0.28125 -0.859375 0.8125q-0.328125 0.515625 -0.453125 1.203125zm9.033783 5.46875l0 -9.34375l2.1093826 0l0 2.015625q0.40625 -1.0625 1.046875 -1.625q0.65625 -0.5625 1.515625 -0.5625q0.265625 0.015625 0.46875 0.046875q0.203125 0.03125 0.453125 0.140625l0 1.84375q-0.25 -0.109375 -0.5625 -0.15625q-0.296875 -0.0625 -0.59375 -0.0625q-0.765625 0 -1.375 0.40625q-0.609375 0.40625 -0.953125 1.140625l0 6.15625l-2.1093826 0zm11.779579 0l0 -13.0625l2.1875 0l6.8125 9.5l-0.046875 -9.5l2.109375 0l0 13.0625l-1.984375 0l-7.0 -9.75l0.03125 9.75l-2.109375 0zm16.588867 0.171875q-0.96875 0 -1.734375 -0.359375q-0.75 -0.375 -1.171875 -1.015625q-0.40625 -0.640625 -0.40625 -1.484375q0 -0.84375 0.4375 -1.453125q0.4375 -0.609375 1.234375 -0.9375q0.796875 -0.34375 1.90625 -0.34375q0.65625 0 1.28125 0.140625q0.640625 0.125 1.234375 0.453125l0 -1.046875q0 -0.9375 -0.53125 -1.40625q-0.53125 -0.46875 -1.609375 -0.46875q-0.578125 0 -1.25 0.1875q-0.65625 0.171875 -1.484375 0.546875l-0.734375 -1.53125q2.046875 -0.953125 3.875 -0.953125q1.828125 0 2.828125 0.890625q1.0 0.890625 1.0 2.515625l0 6.09375l-2.09375 0l0 -0.96875q-0.59375 0.578125 -1.296875 0.859375q-0.6875 0.28125 -1.484375 0.28125zm-1.34375 -2.890625q0 0.640625 0.515625 1.015625q0.53125 0.375 1.40625 0.375q0.640625 0 1.1875 -0.1875q0.546875 -0.203125 1.015625 -0.59375l0 -1.515625q-0.484375 -0.21875 -1.015625 -0.328125q-0.515625 -0.109375 -1.125 -0.109375q-0.921875 0 -1.453125 0.359375q-0.53125 0.34375 -0.53125 0.984375zm8.77655 2.71875l0 -9.34375l2.109375 0l0 1.46875q0.515625 -0.796875 1.203125 -1.203125q0.703125 -0.421875 1.546875 -0.421875q0.96875 0 1.6875 0.484375q0.71875 0.484375 1.078125 1.3125q0.5625 -0.875 1.328125 -1.328125q0.78125 -0.46875 1.765625 -0.46875q0.890625 0 1.59375 0.4375q0.703125 0.421875 1.078125 1.1875q0.390625 0.765625 0.390625 1.75l0 6.125l-2.109375 0l0 -5.65625q0 -0.984375 -0.5 -1.5625q-0.5 -0.578125 -1.390625 -0.578125q-0.546875 0 -1.03125 0.28125q-0.46875 0.28125 -0.828125 0.84375q0.015625 0.125 0.015625 0.265625q0.015625 0.140625 0.015625 0.28125l0 6.125l-2.125 0l0 -5.65625q0 -0.984375 -0.5 -1.5625q-0.5 -0.578125 -1.375 -0.578125q-1.140625 0 -1.84375 1.078125l0 6.71875l-2.109375 0zm20.686646 0.1875q-1.34375 0 -2.4375 -0.640625q-1.078125 -0.640625 -1.71875 -1.734375q-0.625 -1.09375 -0.625 -2.484375q0 -1.375 0.59375 -2.453125q0.609375 -1.078125 1.640625 -1.71875q1.03125 -0.65625 2.296875 -0.65625q1.3125 0 2.3125 0.640625q1.0 0.625 1.5625 1.71875q0.5625 1.078125 0.5625 2.46875l0 0.515625l-6.890625 0q0.109375 0.765625 0.484375 1.359375q0.390625 0.578125 0.984375 0.921875q0.609375 0.328125 1.328125 0.328125q0.65625 0 1.234375 -0.234375q0.59375 -0.234375 0.984375 -0.640625l1.375 1.25q-0.859375 0.703125 -1.75 1.03125q-0.875 0.328125 -1.9375 0.328125zm-2.6875 -5.65625l4.890625 0q-0.109375 -0.671875 -0.46875 -1.1875q-0.34375 -0.53125 -0.859375 -0.828125q-0.5 -0.296875 -1.125 -0.296875q-0.609375 0 -1.125 0.296875q-0.515625 0.28125 -0.859375 0.8125q-0.328125 0.515625 -0.453125 1.203125z" fill-rule="nonzero"/><path fill="#188038" d="m108.07926 430.33398l0 0.140625q0 0.84375 0.203125 1.5625q0.21875 0.71875 0.609375 1.25q0.390625 0.515625 0.953125 0.8125q0.5625 0.296875 1.265625 0.296875q0.65625 0 1.140625 -0.25q0.5 -0.25 0.859375 -0.703125l0.109375 0.8125l1.796875 0l0 -11.0l-2.0 0l0 3.953125q-0.359375 -0.40625 -0.828125 -0.625q-0.453125 -0.21875 -1.0625 -0.21875q-0.71875 0 -1.28125 0.296875q-0.5625 0.28125 -0.953125 0.796875q-0.40625 0.53125 -0.609375 1.265625q-0.203125 0.71875 -0.203125 1.609375zm2.0 0.140625l0 -0.140625q0 -0.5 0.078125 -0.921875q0.09375 -0.421875 0.28125 -0.75q0.171875 -0.3125 0.46875 -0.484375q0.296875 -0.1875 0.71875 -0.1875q0.515625 0 0.84375 0.21875q0.34375 0.21875 0.546875 0.609375l0 3.140625q-0.203125 0.375 -0.546875 0.609375q-0.328125 0.21875 -0.84375 0.21875q-0.421875 0 -0.71875 -0.171875q-0.296875 -0.1875 -0.484375 -0.5q-0.1875 -0.3125 -0.265625 -0.734375q-0.078125 -0.421875 -0.078125 -0.90625zm7.5295563 -3.96875l0 1.625l2.21875 0l0 4.5l-2.21875 0l0 1.625l6.3125 0l0 -1.625l-2.09375 0l0 -6.125l-4.21875 0zm2.0625 -1.96875q0 0.21875 0.078125 0.421875q0.09375 0.1875 0.25 0.328125q0.140625 0.140625 0.34375 0.21875q0.21875 0.078125 0.484375 0.078125q0.53125 0 0.828125 -0.296875q0.3125 -0.296875 0.3125 -0.75q0 -0.46875 -0.3125 -0.765625q-0.296875 -0.296875 -0.828125 -0.296875q-0.265625 0 -0.484375 0.078125q-0.203125 0.078125 -0.34375 0.21875q-0.15625 0.140625 -0.25 0.34375q-0.078125 0.1875 -0.078125 0.421875zm11.201439 7.59375q0 0.171875 -0.09375 0.328125q-0.078125 0.15625 -0.265625 0.265625q-0.1875 0.109375 -0.484375 0.1875q-0.28125 0.0625 -0.65625 0.0625q-0.328125 0 -0.640625 -0.0625q-0.296875 -0.0625 -0.53125 -0.203125q-0.23438263 -0.140625 -0.39063263 -0.359375q-0.140625 -0.234375 -0.171875 -0.546875l-1.890625 0q0 0.46875 0.234375 0.9375q0.234375 0.46875 0.6875 0.828125q0.4375 0.375 1.109375 0.609375q0.6718826 0.234375 1.5468826 0.234375q0.796875 0 1.4375 -0.171875q0.640625 -0.1875 1.09375 -0.5q0.453125 -0.3125 0.703125 -0.75q0.25 -0.4375 0.25 -0.953125q0 -0.546875 -0.25 -0.953125q-0.25 -0.40625 -0.6875 -0.6875q-0.4375 -0.28125 -1.03125 -0.453125q-0.59375 -0.1875 -1.296875 -0.296875q-0.5 -0.078125 -0.8125 -0.171875q-0.3125 -0.09375 -0.484375 -0.21875q-0.1875 -0.109375 -0.26563263 -0.25q-0.0625 -0.15625 -0.0625 -0.328125q0 -0.171875 0.078125 -0.328125q0.07813263 -0.15625 0.23438263 -0.265625q0.171875 -0.140625 0.4375 -0.203125q0.28125 -0.078125 0.640625 -0.078125q0.4375 0 0.734375 0.109375q0.3125 0.109375 0.484375 0.296875q0.140625 0.125 0.203125 0.296875q0.0625 0.171875 0.0625 0.359375l1.984375 0q0 -0.53125 -0.234375 -0.984375q-0.234375 -0.46875 -0.6875 -0.796875q-0.4375 -0.328125 -1.09375 -0.515625q-0.640625 -0.203125 -1.453125 -0.203125q-0.765625 0 -1.3906326 0.203125q-0.609375 0.1875 -1.03125 0.515625q-0.4375 0.328125 -0.671875 0.765625q-0.21875 0.4375 -0.21875 0.921875q0 0.484375 0.21875 0.875q0.234375 0.375 0.625 0.65625q0.40625 0.296875 0.96875 0.5q0.5625076 0.203125 1.2343826 0.34375q0.546875 0.09375 0.890625 0.203125q0.359375 0.09375 0.5625 0.203125q0.21875 0.125 0.296875 0.265625q0.078125 0.140625 0.078125 0.3125zm7.2326813 0.671875q-0.484375 0 -0.796875 -0.1875q-0.3125 -0.1875 -0.484375 -0.515625q-0.1875 -0.3125 -0.265625 -0.734375q-0.0625 -0.421875 -0.0625 -0.859375l0 -0.21875q0 -0.453125 0.078125 -0.859375q0.078125 -0.421875 0.25 -0.734375q0.1875 -0.328125 0.484375 -0.515625q0.3125 -0.203125 0.796875 -0.203125q0.3125 0 0.578125 0.125q0.28125 0.109375 0.46875 0.28125q0.203125 0.1875 0.296875 0.453125q0.09375 0.25 0.09375 0.546875l1.875 0q0 -0.6875 -0.25 -1.234375q-0.234375 -0.5625 -0.671875 -0.96875q-0.4375 -0.375 -1.046875 -0.59375q-0.609375 -0.21875 -1.328125 -0.21875q-0.890625 0 -1.5625 0.3125q-0.671875 0.3125 -1.140625 0.84375q-0.453125 0.515625 -0.6875 1.234375q-0.21875 0.71875 -0.21875 1.53125l0 0.21875q0 0.8125 0.21875 1.53125q0.234375 0.703125 0.703125 1.234375q0.453125 0.53125 1.125 0.84375q0.6875 0.296875 1.578125 0.296875q0.671875 0 1.265625 -0.203125q0.59375 -0.21875 1.046875 -0.59375q0.453125 -0.375 0.703125 -0.890625q0.265625 -0.515625 0.265625 -1.109375l-1.875 0q0 0.265625 -0.109375 0.484375q-0.109375 0.21875 -0.3125 0.375q-0.1875 0.15625 -0.453125 0.25q-0.265625 0.078125 -0.5625 0.078125zm5.0920563 -2.484375l0 0.140625q0 0.859375 0.234375 1.578125q0.25 0.71875 0.734375 1.25q0.453125 0.53125 1.140625 0.828125q0.6875 0.296875 1.5625 0.296875q0.859375 0 1.53125 -0.296875q0.6875 -0.296875 1.15625 -0.828125q0.46875 -0.53125 0.703125 -1.25q0.25 -0.71875 0.25 -1.578125l0 -0.140625q0 -0.84375 -0.25 -1.5625q-0.234375 -0.71875 -0.703125 -1.25q-0.46875 -0.53125 -1.15625 -0.828125q-0.671875 -0.3125 -1.546875 -0.3125q-0.875 0 -1.5625 0.3125q-0.671875 0.296875 -1.125 0.828125q-0.484375 0.53125 -0.734375 1.25q-0.234375 0.71875 -0.234375 1.5625zm2.0 0.140625l0 -0.140625q0 -0.484375 0.078125 -0.90625q0.09375 -0.421875 0.296875 -0.734375q0.203125 -0.328125 0.515625 -0.515625q0.3125 -0.1875 0.765625 -0.1875q0.453125 0 0.765625 0.1875q0.3125 0.1875 0.515625 0.515625q0.1875 0.3125 0.28125 0.734375q0.09375 0.421875 0.09375 0.90625l0 0.140625q0 0.484375 -0.09375 0.921875q-0.09375 0.421875 -0.28125 0.734375q-0.203125 0.328125 -0.515625 0.515625q-0.3125 0.171875 -0.75 0.171875q-0.453125 0 -0.78125 -0.171875q-0.3125 -0.1875 -0.515625 -0.515625q-0.203125 -0.3125 -0.296875 -0.734375q-0.078125 -0.4375 -0.078125 -0.921875z" fill-rule="nonzero"/><path fill="#000000" d="m73.679375 474.09586l0 -13.0625l5.828125 0q1.203125 0 2.140625 0.4375q0.9375 0.421875 1.453125 1.203125q0.515625 0.765625 0.515625 1.796875q0 1.0 -0.59375 1.765625q-0.578125 0.75 -1.546875 1.125q1.203125 0.359375 1.890625 1.171875q0.6875 0.8125 0.6875 1.921875q0 1.078125 -0.546875 1.90625q-0.53125 0.8125 -1.5 1.28125q-0.96875 0.453125 -2.265625 0.453125l-6.0625 0zm2.25 -7.5625l3.328125 0q0.96875 0 1.53125 -0.5q0.578125 -0.5 0.578125 -1.34375q0 -0.84375 -0.578125 -1.328125q-0.5625 -0.5 -1.53125 -0.5l-3.328125 0l0 3.671875zm0 5.734375l3.53125 0q1.0625 0 1.703125 -0.546875q0.640625 -0.546875 0.640625 -1.46875q0 -0.890625 -0.625 -1.4375q-0.625 -0.5625 -1.71875 -0.5625l-3.53125 0l0 4.015625zm13.312881 2.0q-0.96875 0 -1.734375 -0.359375q-0.75 -0.375 -1.171875 -1.015625q-0.40625 -0.640625 -0.40625 -1.484375q0 -0.84375 0.4375 -1.453125q0.4375 -0.609375 1.234375 -0.9375q0.796875 -0.34375 1.90625 -0.34375q0.65625 0 1.28125 0.140625q0.640625 0.125 1.234375 0.453125l0 -1.046875q0 -0.9375 -0.53125 -1.40625q-0.53125 -0.46875 -1.609375 -0.46875q-0.578125 0 -1.25 0.1875q-0.65625 0.171875 -1.484375 0.546875l-0.734375 -1.53125q2.046875 -0.953125 3.875 -0.953125q1.828125 0 2.828125 0.890625q1.0 0.890625 1.0 2.515625l0 6.09375l-2.09375 0l0 -0.96875q-0.59375 0.578125 -1.296875 0.859375q-0.6875 0.28125 -1.484375 0.28125zm-1.34375 -2.890625q0 0.640625 0.515625 1.015625q0.53125 0.375 1.40625 0.375q0.640625 0 1.1875 -0.1875q0.546875 -0.203125 1.015625 -0.59375l0 -1.515625q-0.484375 -0.21875 -1.015625 -0.328125q-0.515625 -0.109375 -1.125 -0.109375q-0.921875 0 -1.453125 0.359375q-0.53125 0.34375 -0.53125 0.984375zm11.948441 2.90625q-1.203125 0 -2.234375 -0.328125q-1.03125 -0.328125 -1.78125 -0.9375l0.984375 -1.40625q0.9375 0.578125 1.609375 0.828125q0.6875 0.234375 1.390625 0.234375q0.84375 0 1.359375 -0.34375q0.53125 -0.359375 0.53125 -0.921875q0 -0.421875 -0.3125 -0.671875q-0.296875 -0.265625 -1.0 -0.390625l-1.640625 -0.28125q-1.359375 -0.265625 -2.03125 -0.890625q-0.671875 -0.640625 -0.671875 -1.6875q0 -0.875 0.453125 -1.515625q0.46875 -0.640625 1.28125 -1.0q0.8125 -0.375 1.890625 -0.375q0.96875 0 1.875 0.28125q0.921875 0.28125 1.796875 0.84375l-0.984375 1.390625q-0.71875 -0.453125 -1.421875 -0.671875q-0.6875 -0.21875 -1.40625 -0.21875q-0.71875 0 -1.15625 0.296875q-0.4375 0.28125 -0.4375 0.78125q0 0.453125 0.28125 0.6875q0.296875 0.234375 1.015625 0.34375l1.671875 0.3125q1.390625 0.25 2.0625 0.890625q0.6875 0.640625 0.6875 1.703125q0 0.859375 -0.5 1.5625q-0.5 0.6875 -1.359375 1.09375q-0.859375 0.390625 -1.953125 0.390625zm10.201553 0q-1.34375 0 -2.4375 -0.640625q-1.078125 -0.640625 -1.71875 -1.734375q-0.625 -1.09375 -0.625 -2.484375q0 -1.375 0.59375 -2.453125q0.609375 -1.078125 1.640625 -1.71875q1.03125 -0.65625 2.296875 -0.65625q1.3125 0 2.3125 0.640625q1.0 0.625 1.5625 1.71875q0.5625 1.078125 0.5625 2.46875l0 0.515625l-6.890625 0q0.109375 0.765625 0.484375 1.359375q0.390625 0.578125 0.984375 0.921875q0.609375 0.328125 1.328125 0.328125q0.65625 0 1.234375 -0.234375q0.59375 -0.234375 0.984375 -0.640625l1.375 1.25q-0.859375 0.703125 -1.75 1.03125q-0.875 0.328125 -1.9375 0.328125zm-2.6875 -5.65625l4.890625 0q-0.109375 -0.671875 -0.46875 -1.1875q-0.34375 -0.53125 -0.859375 -0.828125q-0.5 -0.296875 -1.125 -0.296875q-0.609375 0 -1.125 0.296875q-0.515625 0.28125 -0.859375 0.8125q-0.328125 0.515625 -0.453125 1.203125zm15.731445 3.53125l2.59375 0q1.171875 0 2.125 -0.609375q0.9531326 -0.609375 1.5000076 -1.65625q0.5625 -1.046875 0.5625 -2.328125q0 -1.296875 -0.5625 -2.328125q-0.546875 -1.046875 -1.5000076 -1.65625q-0.953125 -0.609375 -2.125 -0.609375l-2.59375 0l0 9.1875zm-2.25 1.9375l0 -13.0625l4.78125 0q1.421875 0 2.6093826 0.515625q1.203125 0.5 2.078125 1.390625q0.890625 0.875 1.375 2.0625q0.484375 1.1875 0.484375 2.5625q0 1.375 -0.484375 2.5625q-0.484375 1.1875 -1.375 2.078125q-0.875 0.890625 -2.078125 1.390625q-1.1875076 0.5 -2.6093826 0.5l-4.78125 0zm17.858574 0.171875q-1.328125 0 -2.40625 -0.625q-1.0625 -0.640625 -1.6875 -1.734375q-0.609375 -1.09375 -0.609375 -2.484375q0 -1.375 0.609375 -2.46875q0.625 -1.09375 1.6875 -1.71875q1.0625 -0.640625 2.40625 -0.640625q1.34375 0 2.390625 0.640625q1.0625 0.625 1.671875 1.71875q0.625 1.09375 0.625 2.46875q0 1.390625 -0.625 2.484375q-0.609375 1.09375 -1.671875 1.734375q-1.046875 0.625 -2.390625 0.625zm0 -1.796875q0.765625 0 1.34375 -0.390625q0.59375 -0.390625 0.921875 -1.09375q0.34375 -0.703125 0.34375 -1.5625q0 -0.875 -0.34375 -1.546875q-0.328125 -0.6875 -0.921875 -1.078125q-0.578125 -0.40625 -1.34375 -0.40625q-0.765625 0 -1.359375 0.40625q-0.59375 0.390625 -0.9375 1.078125q-0.328125 0.671875 -0.328125 1.546875q0 0.890625 0.328125 1.578125q0.34375 0.6875 0.9375 1.078125q0.59375 0.390625 1.359375 0.390625zm6.872162 1.625l0 -9.34375l2.109375 0l0 1.46875q0.515625 -0.796875 1.203125 -1.203125q0.703125 -0.421875 1.546875 -0.421875q0.96875 0 1.6875 0.484375q0.71875 0.484375 1.078125 1.3125q0.5625 -0.875 1.328125 -1.328125q0.78125 -0.46875 1.765625 -0.46875q0.890625 0 1.59375 0.4375q0.703125 0.421875 1.078125 1.1875q0.390625 0.765625 0.390625 1.75l0 6.125l-2.109375 0l0 -5.65625q0 -0.984375 -0.5 -1.5625q-0.5 -0.578125 -1.390625 -0.578125q-0.546875 0 -1.03125 0.28125q-0.46875 0.28125 -0.828125 0.84375q0.015625 0.125 0.015625 0.265625q0.015625 0.140625 0.015625 0.28125l0 6.125l-2.125 0l0 -5.65625q0 -0.984375 -0.5 -1.5625q-0.5 -0.578125 -1.375 -0.578125q-1.140625 0 -1.84375 1.078125l0 6.71875l-2.109375 0zm19.17099 0.171875q-0.96875 0 -1.734375 -0.359375q-0.75 -0.375 -1.171875 -1.015625q-0.40625 -0.640625 -0.40625 -1.484375q0 -0.84375 0.4375 -1.453125q0.4375 -0.609375 1.234375 -0.9375q0.796875 -0.34375 1.90625 -0.34375q0.65625 0 1.28125 0.140625q0.640625 0.125 1.234375 0.453125l0 -1.046875q0 -0.9375 -0.53125 -1.40625q-0.53125 -0.46875 -1.609375 -0.46875q-0.578125 0 -1.25 0.1875q-0.65625 0.171875 -1.484375 0.546875l-0.734375 -1.53125q2.046875 -0.953125 3.875 -0.953125q1.828125 0 2.828125 0.890625q1.0 0.890625 1.0 2.515625l0 6.09375l-2.09375 0l0 -0.96875q-0.59375 0.578125 -1.296875 0.859375q-0.6875 0.28125 -1.484375 0.28125zm-1.34375 -2.890625q0 0.640625 0.515625 1.015625q0.53125 0.375 1.40625 0.375q0.640625 0 1.1875 -0.1875q0.546875 -0.203125 1.015625 -0.59375l0 -1.515625q-0.484375 -0.21875 -1.015625 -0.328125q-0.515625 -0.109375 -1.125 -0.109375q-0.921875 0 -1.453125 0.359375q-0.53125 0.34375 -0.53125 0.984375zm8.745331 2.71875l0 -9.34375l2.109375 0l0 9.34375l-2.109375 0zm1.0625 -11.25q-0.53125 0 -0.921875 -0.375q-0.375 -0.390625 -0.375 -0.90625q0 -0.546875 0.375 -0.921875q0.390625 -0.390625 0.921875 -0.390625q0.546875 0 0.921875 0.390625q0.390625 0.375 0.390625 0.890625q0 0.546875 -0.390625 0.9375q-0.375 0.375 -0.921875 0.375zm3.670105 11.25l0 -9.34375l2.109375 0l0 1.53125q0.53125 -0.84375 1.28125 -1.265625q0.75 -0.421875 1.65625 -0.421875q0.96875 0 1.6875 0.421875q0.734375 0.421875 1.15625 1.171875q0.421875 0.75 0.421875 1.75l0 6.15625l-2.125 0l0 -5.5625q0 -1.015625 -0.5625 -1.625q-0.5625 -0.609375 -1.484375 -0.609375q-0.640625 0 -1.15625 0.296875q-0.515625 0.28125 -0.875 0.84375l0 6.65625l-2.109375 0z" fill-rule="nonzero"/><path fill="#188038" d="m117.49944 481.25586l0 1.625l2.328125 0l0 7.75l-2.328125 0l0 1.625l6.546875 0l0 -1.625l-2.21875 0l0 -9.375l-4.328125 0zm13.217064 11.0l2.015625 0l0 -0.125q-0.140625 -0.296875 -0.21875 -0.703125q-0.078125 -0.40625 -0.078125 -1.03125l0 -3.3125q0 -0.671875 -0.25 -1.1875q-0.25 -0.515625 -0.703125 -0.84375q-0.4375 -0.34375 -1.046875 -0.515625q-0.609375 -0.171875 -1.296875 -0.171875q-0.78125 0 -1.3906326 0.203125q-0.609375 0.1875 -1.015625 0.53125q-0.421875 0.34375 -0.640625 0.78125q-0.21875 0.4375 -0.21875 0.9375l1.984375 0q0 -0.203125 0.0625 -0.375q0.0625 -0.171875 0.18750763 -0.296875q0.140625 -0.140625 0.359375 -0.203125q0.234375 -0.078125 0.5625 -0.078125q0.359375 0 0.625 0.09375q0.265625 0.078125 0.4375 0.25q0.171875 0.15625 0.25 0.375q0.09375 0.21875 0.09375 0.484375l0 0.453125l-1.109375 0q-0.859375 0 -1.5156326 0.15625q-0.65625 0.15625 -1.109375 0.453125q-0.5 0.3125 -0.75 0.8125q-0.25 0.5 -0.25 1.140625q0 0.5 0.1875 0.9375q0.203125 0.421875 0.5625 0.71875q0.359375 0.3125 0.859375 0.484375q0.5 0.171875 1.0937576 0.171875q0.359375 0 0.671875 -0.078125q0.3125 -0.0625 0.578125 -0.171875q0.265625 -0.125 0.46875 -0.28125q0.21875 -0.15625 0.390625 -0.328125q0.03125 0.203125 0.078125 0.390625q0.0625 0.1875 0.125 0.328125zm-1.890625 -1.390625q-0.28125 0 -0.5 -0.0625q-0.203125 -0.078125 -0.34375763 -0.1875q-0.140625 -0.125 -0.21875 -0.296875q-0.078125 -0.1875 -0.078125 -0.390625q0 -0.265625 0.09375 -0.484375q0.109375 -0.234375 0.31250763 -0.390625q0.203125 -0.15625 0.53125 -0.25q0.34375 -0.09375 0.796875 -0.09375l1.015625 0l0 1.328125q-0.078125 0.15625 -0.234375 0.3125q-0.140625 0.140625 -0.359375 0.25q-0.203125 0.125 -0.46875 0.203125q-0.25 0.0625 -0.546875 0.0625zm12.826431 -2.40625l0 -0.140625q0 -0.703125 -0.125 -1.3125q-0.125 -0.625 -0.375 -1.125q-0.171875 -0.296875 -0.390625 -0.5625q-0.203125 -0.265625 -0.46875 -0.453125q-0.328125 -0.234375 -0.75 -0.359375q-0.421875 -0.140625 -0.921875 -0.140625q-0.359375 0 -0.671875 0.078125q-0.3125 0.078125 -0.578125 0.234375q-0.1875 0.09375 -0.359375 0.234375q-0.15625 0.140625 -0.296875 0.296875l0 -3.953125l-2.0 0l0 11.0l1.796875 0l0.09375 -0.828125q0.125 0.15625 0.25 0.296875q0.140625 0.125 0.296875 0.234375q0.296875 0.21875 0.65625 0.328125q0.375 0.109375 0.828125 0.109375q0.484375 0 0.890625 -0.125q0.421875 -0.125 0.75 -0.359375q0.375 -0.25 0.640625 -0.625q0.265625 -0.390625 0.421875 -0.84375q0.15625 -0.421875 0.234375 -0.921875q0.078125 -0.5 0.078125 -1.0625zm-1.984375 -0.140625l0 0.140625q0 0.296875 -0.03125 0.578125q-0.015625 0.28125 -0.078125 0.515625q-0.078125 0.328125 -0.21875 0.578125q-0.140625 0.25 -0.359375 0.421875q-0.15625 0.109375 -0.375 0.171875q-0.203125 0.0625 -0.46875 0.0625q-0.3125 0 -0.5625 -0.0625q-0.234375 -0.078125 -0.40625 -0.21875q-0.15625 -0.109375 -0.265625 -0.25q-0.109375 -0.140625 -0.1875 -0.328125l0 -3.078125q0.0625 -0.140625 0.140625 -0.25q0.078125 -0.125 0.171875 -0.21875q0.1875 -0.1875 0.453125 -0.28125q0.28125 -0.109375 0.640625 -0.109375q0.265625 0 0.46875 0.0625q0.203125 0.0625 0.375 0.171875q0.25 0.203125 0.375 0.4375q0.125 0.21875 0.203125 0.515625q0.0625 0.25 0.09375 0.546875q0.03125 0.28125 0.03125 0.59375z" fill-rule="nonzero"/><path fill="#000000" d="m73.19465 532.0958l0 -13.0625l5.84375 0q1.328125 0 2.296875 0.515625q0.984375 0.515625 1.515625 1.4375q0.546875 0.90625 0.546875 2.109375q0 1.171875 -0.546875 2.09375q-0.53125 0.90625 -1.515625 1.421875q-0.96875 0.5 -2.296875 0.5l-3.59375 0l0 4.984375l-2.25 0zm2.25 -6.8125l3.234375 0q1.203125 0 1.828125 -0.59375q0.640625 -0.609375 0.640625 -1.609375q0 -0.96875 -0.640625 -1.5625q-0.625 -0.59375 -1.796875 -0.59375l-3.265625 0l0 4.359375zm10.167603 6.8125l0 -13.375l2.109375 -0.375l0 13.75l-2.109375 0zm7.5294952 0.171875q-0.96875 0 -1.734375 -0.359375q-0.75 -0.375 -1.171875 -1.015625q-0.40625 -0.640625 -0.40625 -1.484375q0 -0.84375 0.4375 -1.453125q0.4375 -0.609375 1.234375 -0.9375q0.796875 -0.34375 1.90625 -0.34375q0.65625 0 1.28125 0.140625q0.640625 0.125 1.234375 0.453125l0 -1.046875q0 -0.9375 -0.53125 -1.40625q-0.53125 -0.46875 -1.609375 -0.46875q-0.578125 0 -1.25 0.1875q-0.65625 0.171875 -1.484375 0.546875l-0.734375 -1.53125q2.046875 -0.953125 3.875 -0.953125q1.828125 0 2.828125 0.890625q1.0 0.890625 1.0 2.515625l0 6.09375l-2.09375 0l0 -0.96875q-0.59375 0.578125 -1.296875 0.859375q-0.6875 0.28125 -1.484375 0.28125zm-1.34375 -2.890625q0 0.640625 0.515625 1.015625q0.53125 0.375 1.40625 0.375q0.640625 0 1.1875 -0.1875q0.546875 -0.203125 1.015625 -0.59375l0 -1.515625q-0.484375 -0.21875 -1.015625 -0.328125q-0.515625 -0.109375 -1.125 -0.109375q-0.921875 0 -1.453125 0.359375q-0.53125 0.34375 -0.53125 0.984375zm12.512192 2.90625q-1.40625 0 -2.140625 -0.65625q-0.71875 -0.671875 -0.71875 -1.953125l0 -5.25l-1.875 0l0 -1.671875l1.875 0l0 -2.578125l2.109375 -0.453125l0 3.03125l2.578125 0l0 1.671875l-2.578125 0l0 4.78125q0 0.6875 0.296875 0.984375q0.296875 0.28125 1.0 0.28125q0.3125 0 0.578125 -0.046875q0.28125 -0.046875 0.6875 -0.171875l0 1.765625q-0.390625 0.140625 -0.890625 0.203125q-0.484375 0.0625 -0.921875 0.0625zm5.1603546 -0.1875l0 -7.671875l-2.015625 0l0 -1.671875l2.015625 0l0 -1.609375q0 -1.515625 0.828125 -2.3125q0.828125 -0.8125 2.390625 -0.8125q0.390625 0 0.765625 0.03125q0.375 0.03125 0.640625 0.125l0 1.796875q-0.359375 -0.078125 -0.609375 -0.09375q-0.234375 -0.03125 -0.515625 -0.03125q-0.71875 0 -1.0625 0.3125q-0.328125 0.3125 -0.328125 1.03125l0 1.5625l2.515625 0l0 1.671875l-2.515625 0l0 7.671875l-2.109375 0zm10.294388 0.171875q-1.328125 0 -2.40625 -0.625q-1.0625 -0.640625 -1.6875 -1.734375q-0.609375 -1.09375 -0.609375 -2.484375q0 -1.375 0.609375 -2.46875q0.625 -1.09375 1.6875 -1.71875q1.0625 -0.640625 2.40625 -0.640625q1.34375 0 2.390625 0.640625q1.0625 0.625 1.671875 1.71875q0.625 1.09375 0.625 2.46875q0 1.390625 -0.625 2.484375q-0.609375 1.09375 -1.671875 1.734375q-1.046875 0.625 -2.390625 0.625zm0 -1.796875q0.765625 0 1.34375 -0.390625q0.59375 -0.390625 0.921875 -1.09375q0.34375 -0.703125 0.34375 -1.5625q0 -0.875 -0.34375 -1.546875q-0.328125 -0.6875 -0.921875 -1.078125q-0.578125 -0.40625 -1.34375 -0.40625q-0.765625 0 -1.359375 0.40625q-0.59375 0.390625 -0.9375 1.078125q-0.328125 0.671875 -0.328125 1.546875q0 0.890625 0.328125 1.578125q0.34375 0.6875 0.9375 1.078125q0.59375 0.390625 1.359375 0.390625zm6.872162 1.625l0 -9.34375l2.1093826 0l0 2.015625q0.40625 -1.0625 1.046875 -1.625q0.65625 -0.5625 1.515625 -0.5625q0.265625 0.015625 0.46875 0.046875q0.203125 0.03125 0.453125 0.140625l0 1.84375q-0.25 -0.109375 -0.5625 -0.15625q-0.296875 -0.0625 -0.59375 -0.0625q-0.765625 0 -1.375 0.40625q-0.609375 0.40625 -0.953125 1.140625l0 6.15625l-2.1093826 0zm7.331917 0l0 -9.34375l2.109375 0l0 1.46875q0.515625 -0.796875 1.203125 -1.203125q0.703125 -0.421875 1.546875 -0.421875q0.96875 0 1.6875 0.484375q0.71875 0.484375 1.078125 1.3125q0.5625 -0.875 1.328125 -1.328125q0.78125 -0.46875 1.765625 -0.46875q0.890625 0 1.59375 0.4375q0.703125 0.421875 1.078125 1.1875q0.390625 0.765625 0.390625 1.75l0 6.125l-2.109375 0l0 -5.65625q0 -0.984375 -0.5 -1.5625q-0.5 -0.578125 -1.390625 -0.578125q-0.546875 0 -1.03125 0.28125q-0.46875 0.28125 -0.828125 0.84375q0.015625 0.125 0.015625 0.265625q0.015625 0.140625 0.015625 0.28125l0 6.125l-2.125 0l0 -5.65625q0 -0.984375 -0.5 -1.5625q-0.5 -0.578125 -1.375 -0.578125q-1.140625 0 -1.84375 1.078125l0 6.71875l-2.109375 0zm20.509293 0l0 -9.34375l2.109375 0l0 9.34375l-2.109375 0zm1.0625 -11.25q-0.53125 0 -0.921875 -0.375q-0.375 -0.390625 -0.375 -0.90625q0 -0.546875 0.375 -0.921875q0.390625 -0.390625 0.921875 -0.390625q0.546875 0 0.921875 0.390625q0.390625 0.375 0.390625 0.890625q0 0.546875 -0.390625 0.9375q-0.375 0.375 -0.921875 0.375zm3.670105 11.25l0 -9.34375l2.109375 0l0 1.53125q0.53125 -0.84375 1.28125 -1.265625q0.75 -0.421875 1.65625 -0.421875q0.96875 0 1.6875 0.421875q0.734375 0.421875 1.15625 1.171875q0.421875 0.75 0.421875 1.75l0 6.15625l-2.125 0l0 -5.5625q0 -1.015625 -0.5625 -1.625q-0.5625 -0.609375 -1.484375 -0.609375q-0.640625 0 -1.15625 0.296875q-0.515625 0.28125 -0.875 0.84375l0 6.65625l-2.109375 0zm11.843567 0l0 -7.671875l-2.015625 0l0 -1.671875l2.015625 0l0 -1.609375q0 -1.515625 0.828125 -2.3125q0.828125 -0.8125 2.390625 -0.8125q0.390625 0 0.765625 0.03125q0.375 0.03125 0.640625 0.125l0 1.796875q-0.359375 -0.078125 -0.609375 -0.09375q-0.234375 -0.03125 -0.515625 -0.03125q-0.71875 0 -1.0625 0.3125q-0.328125 0.3125 -0.328125 1.03125l0 1.5625l2.515625 0l0 1.671875l-2.515625 0l0 7.671875l-2.109375 0zm10.294403 0.171875q-1.328125 0 -2.40625 -0.625q-1.0625 -0.640625 -1.6875 -1.734375q-0.609375 -1.09375 -0.609375 -2.484375q0 -1.375 0.609375 -2.46875q0.625 -1.09375 1.6875 -1.71875q1.0625 -0.640625 2.40625 -0.640625q1.34375 0 2.390625 0.640625q1.0625 0.625 1.671875 1.71875q0.625 1.09375 0.625 2.46875q0 1.390625 -0.625 2.484375q-0.609375 1.09375 -1.671875 1.734375q-1.046875 0.625 -2.390625 0.625zm0 -1.796875q0.765625 0 1.34375 -0.390625q0.59375 -0.390625 0.921875 -1.09375q0.34375 -0.703125 0.34375 -1.5625q0 -0.875 -0.34375 -1.546875q-0.328125 -0.6875 -0.921875 -1.078125q-0.578125 -0.40625 -1.34375 -0.40625q-0.765625 0 -1.359375 0.40625q-0.59375 0.390625 -0.9375 1.078125q-0.328125 0.671875 -0.328125 1.546875q0 0.890625 0.328125 1.578125q0.34375 0.6875 0.9375 1.078125q0.59375 0.390625 1.359375 0.390625z" fill-rule="nonzero"/><path fill="#188038" d="m56.176212 548.084l0.609375 2.171875l2.109375 0l-3.34375 -10.421875l-1.828125 0l-3.40625 10.421875l2.109375 0l0.625 -2.171875l3.125 0zm-2.640625 -1.71875l1.09375 -3.828125l1.078125 3.828125l-2.171875 0zm7.6233063 -3.859375l-1.71875 0l0 7.75l1.8125 0l0 -5.796875q0.046875 -0.09375 0.078125 -0.171875q0.046875 -0.078125 0.109375 -0.140625q0.078125 -0.078125 0.171875 -0.109375q0.109375 -0.046875 0.234375 -0.046875q0.109375 0 0.203125 0.03125q0.109375 0.03125 0.1875 0.109375q0.078125 0.078125 0.109375 0.21875q0.046875 0.140625 0.046875 0.375l0 5.53125l1.7499962 0l0 -5.703125q0 -0.09375 0 -0.140625q0 -0.046875 0 -0.0625q0.046875 -0.078125 0.09375 -0.140625q0.046875 -0.0625 0.109375 -0.109375q0.078125 -0.0625 0.171875 -0.078125q0.09375 -0.03125 0.203125 -0.03125q0.109375 0 0.203125 0.03125q0.109375 0.03125 0.1875 0.109375q0.078125 0.078125 0.125 0.234375q0.046875 0.140625 0.046875 0.359375l0 5.53125l1.8125 0l0 -5.53125q0 -0.640625 -0.125 -1.078125q-0.125 -0.453125 -0.34375 -0.734375q-0.234375 -0.28125 -0.546875 -0.40625q-0.296875 -0.140625 -0.640625 -0.140625q-0.28125 0 -0.515625 0.078125q-0.234375 0.0625 -0.421875 0.203125q-0.15625 0.09375 -0.28125 0.234375q-0.125 0.140625 -0.21875 0.3125q-0.062496185 -0.1875 -0.15624619 -0.3125q-0.09375 -0.140625 -0.21875 -0.25q-0.15625 -0.125 -0.375 -0.1875q-0.203125 -0.078125 -0.484375 -0.078125q-0.546875 0 -0.9375 0.296875q-0.390625 0.28125 -0.625 0.78125l-0.046875 -0.9375zm12.388927 7.75l2.015625 0l0 -0.125q-0.140625 -0.296875 -0.21875 -0.703125q-0.078125 -0.40625 -0.078125 -1.03125l0 -3.3125q0 -0.671875 -0.25 -1.1875q-0.25 -0.515625 -0.703125 -0.84375q-0.4375 -0.34375 -1.046875 -0.515625q-0.609375 -0.171875 -1.296875 -0.171875q-0.78125 0 -1.390625 0.203125q-0.609375 0.1875 -1.015625 0.53125q-0.421875 0.34375 -0.640625 0.78125q-0.21875 0.4375 -0.21875 0.9375l1.984375 0q0 -0.203125 0.0625 -0.375q0.0625 -0.171875 0.1875 -0.296875q0.140625 -0.140625 0.359375 -0.203125q0.234375 -0.078125 0.5625 -0.078125q0.359375 0 0.625 0.09375q0.265625 0.078125 0.4375 0.25q0.171875 0.15625 0.25 0.375q0.09375 0.21875 0.09375 0.484375l0 0.453125l-1.109375 0q-0.859375 0 -1.515625 0.15625q-0.65625 0.15625 -1.109375 0.453125q-0.5 0.3125 -0.75 0.8125q-0.25 0.5 -0.25 1.140625q0 0.5 0.1875 0.9375q0.203125 0.421875 0.5625 0.71875q0.359375 0.3125 0.859375 0.484375q0.5 0.171875 1.09375 0.171875q0.359375 0 0.671875 -0.078125q0.3125 -0.0625 0.578125 -0.171875q0.265625 -0.125 0.46875 -0.28125q0.21875 -0.15625 0.390625 -0.328125q0.03125 0.203125 0.078125 0.390625q0.0625 0.1875 0.125 0.328125zm-1.890625 -1.390625q-0.28125 0 -0.5 -0.0625q-0.203125 -0.078125 -0.34375 -0.1875q-0.140625 -0.125 -0.21875 -0.296875q-0.078125 -0.1875 -0.078125 -0.390625q0 -0.265625 0.09375 -0.484375q0.109375 -0.234375 0.3125 -0.390625q0.203125 -0.15625 0.53125 -0.25q0.34375 -0.09375 0.796875 -0.09375l1.015625 0l0 1.328125q-0.078125 0.15625 -0.234375 0.3125q-0.140625 0.140625 -0.359375 0.25q-0.203125 0.125 -0.46875 0.203125q-0.25 0.0625 -0.546875 0.0625zm8.404556 -0.203125l4.375 -4.953125l0 -1.203125l-7.0 0l0 1.625l4.25 0l-4.34375 4.890625l0 1.234375l7.28125 0l0 -1.59375l-4.5625 0zm5.9670563 -2.34375l0 0.140625q0 0.859375 0.234375 1.578125q0.25 0.71875 0.734375 1.25q0.453125 0.53125 1.140625 0.828125q0.6875 0.296875 1.5625 0.296875q0.859375 0 1.53125 -0.296875q0.6875 -0.296875 1.15625 -0.828125q0.46875 -0.53125 0.703125 -1.25q0.25 -0.71875 0.25 -1.578125l0 -0.140625q0 -0.84375 -0.25 -1.5625q-0.234375 -0.71875 -0.703125 -1.25q-0.46875 -0.53125 -1.15625 -0.828125q-0.671875 -0.3125 -1.546875 -0.3125q-0.875 0 -1.5625 0.3125q-0.671875 0.296875 -1.125 0.828125q-0.484375 0.53125 -0.734375 1.25q-0.234375 0.71875 -0.234375 1.5625zm2.0 0.140625l0 -0.140625q0 -0.484375 0.078125 -0.90625q0.09375 -0.421875 0.296875 -0.734375q0.203125 -0.328125 0.515625 -0.515625q0.3125 -0.1875 0.765625 -0.1875q0.453125 0 0.765625 0.1875q0.3125 0.1875 0.515625 0.515625q0.1875 0.3125 0.28125 0.734375q0.09375 0.421875 0.09375 0.90625l0 0.140625q0 0.484375 -0.09375 0.921875q-0.09375 0.421875 -0.28125 0.734375q-0.203125 0.328125 -0.515625 0.515625q-0.3125 0.171875 -0.75 0.171875q-0.453125 0 -0.78125 -0.171875q-0.3125 -0.1875 -0.515625 -0.515625q-0.203125 -0.3125 -0.296875 -0.734375q-0.078125 -0.4375 -0.078125 -0.921875zm7.0764313 3.796875l1.984375 0l0 -5.5q0.109375 -0.15625 0.21875 -0.28125q0.125 -0.140625 0.28125 -0.234375q0.1875 -0.125 0.421875 -0.1875q0.25 -0.0625 0.53125 -0.0625q0.34375 0 0.609375 0.0625q0.28125 0.0625 0.46875 0.234375q0.1875 0.171875 0.296875 0.46875q0.109375 0.296875 0.109375 0.765625l0 4.734375l1.984375 0l0 -4.765625q0 -0.84375 -0.203125 -1.4375q-0.1875 -0.59375 -0.546875 -0.96875q-0.359375 -0.375 -0.84375 -0.546875q-0.484375 -0.171875 -1.0625 -0.171875q-0.46875 0 -0.875 0.140625q-0.40625 0.125 -0.75 0.359375q-0.203125 0.140625 -0.390625 0.328125q-0.171875 0.171875 -0.3125 0.390625l-0.125 -1.078125l-1.796875 0l0 7.75zm22.637238 -2.171875l0.609375 2.171875l2.109375 0l-3.34375 -10.421875l-1.828125 0l-3.40625 10.421875l2.109375 0l0.625 -2.171875l3.125 0zm-2.640625 -1.71875l1.09375 -3.828125l1.078125 3.828125l-2.171875 0zm6.9983063 3.890625l1.8125 0l0.875 -5.625l0.078125 -0.53125l0.078125 0.53125l0.90625 5.625l1.8125 0l1.453125 -10.421875l-1.84375 0l-0.71875 5.84375l-0.046875 0.4375l-0.0625 -0.4375l-0.875 -5.84375l-1.4375 0l-0.828125 5.8125l-0.0625 0.421875l-0.046875 -0.40625l-0.6875 -5.828125l-1.84375 0l1.4375 10.421875zm13.513931 -2.71875q0 0.28125 -0.109375 0.515625q-0.109375 0.234375 -0.328125 0.390625q-0.21875 0.171875 -0.53125 0.265625q-0.3125 0.09375 -0.703125 0.09375q-0.453125 0 -0.828125 -0.09375q-0.375 -0.109375 -0.640625 -0.328125q-0.28125 -0.21875 -0.4375 -0.546875q-0.140625 -0.34375 -0.15625 -0.8125l-1.96875 0q0 0.8125 0.3125 1.421875q0.3125 0.59375 0.84375 1.03125q0.5625 0.453125 1.328125 0.6875q0.765625 0.234375 1.546875 0.234375q0.78125 0 1.453125 -0.1875q0.6875 -0.203125 1.171875 -0.5625q0.484375 -0.375 0.75 -0.90625q0.28125 -0.53125 0.28125 -1.21875q0 -0.796875 -0.375 -1.40625q-0.359375 -0.609375 -0.96875 -1.0625q-0.40625 -0.28125 -0.890625 -0.484375q-0.484375 -0.21875 -1.03125 -0.375q-0.5 -0.140625 -0.90625 -0.296875q-0.390625 -0.15625 -0.65625 -0.34375q-0.28125 -0.1875 -0.4375 -0.421875q-0.140625 -0.234375 -0.140625 -0.53125q0 -0.28125 0.109375 -0.515625q0.109375 -0.25 0.328125 -0.421875q0.21875 -0.171875 0.515625 -0.265625q0.3125 -0.09375 0.71875 -0.09375q0.4375 0 0.765625 0.125q0.328125 0.109375 0.546875 0.3125q0.21875 0.21875 0.328125 0.515625q0.109375 0.28125 0.125 0.640625l1.953125 0q0 -0.703125 -0.28125 -1.28125q-0.265625 -0.59375 -0.75 -1.03125q-0.484375 -0.421875 -1.15625 -0.65625q-0.671875 -0.234375 -1.5 -0.234375q-0.78125 0 -1.453125 0.203125q-0.671875 0.203125 -1.171875 0.578125q-0.484375 0.390625 -0.765625 0.921875q-0.28125 0.53125 -0.28125 1.1875q0 0.578125 0.203125 1.0625q0.21875 0.484375 0.640625 0.890625q0.40625 0.40625 1.0625 0.75q0.65625 0.328125 1.515625 0.5625q0.5625 0.140625 0.9375 0.328125q0.375 0.171875 0.609375 0.375q0.234375 0.21875 0.328125 0.46875q0.09375 0.234375 0.09375 0.515625zm12.043488 -1.203125l0 0.140625q0 0.84375 0.203125 1.5625q0.21875 0.71875 0.609375 1.25q0.390625 0.515625 0.953125 0.8125q0.5625 0.296875 1.265625 0.296875q0.65625 0 1.140625 -0.25q0.5 -0.25 0.859375 -0.703125l0.109375 0.8125l1.796875 0l0 -11.0l-2.0 0l0 3.953125q-0.359375 -0.40625 -0.828125 -0.625q-0.453125 -0.21875 -1.0625 -0.21875q-0.71875 0 -1.28125 0.296875q-0.5625 0.28125 -0.953125 0.796875q-0.40625 0.53125 -0.609375 1.265625q-0.203125 0.71875 -0.203125 1.609375zm2.0 0.140625l0 -0.140625q0 -0.5 0.078125 -0.921875q0.09375 -0.421875 0.28125 -0.75q0.171875 -0.3125 0.46875 -0.484375q0.296875 -0.1875 0.71875 -0.1875q0.515625 0 0.84375 0.21875q0.34375 0.21875 0.546875 0.609375l0 3.140625q-0.203125 0.375 -0.546875 0.609375q-0.328125 0.21875 -0.84375 0.21875q-0.421875 0 -0.71875 -0.171875q-0.296875 -0.1875 -0.484375 -0.5q-0.1875 -0.3125 -0.265625 -0.734375q-0.078125 -0.421875 -0.078125 -0.90625zm10.763931 3.921875q1.125 0 1.9375 -0.4375q0.828125 -0.4375 1.21875 -0.96875l-1.0 -1.078125q-0.34375 0.453125 -0.90625 0.671875q-0.546875 0.21875 -1.125 0.21875q-0.421875 0 -0.78125 -0.125q-0.34375 -0.125 -0.609375 -0.375q-0.265625 -0.21875 -0.421875 -0.5q-0.15625 -0.28125 -0.265625 -0.75l0 -0.03125l5.265625 0l0 -0.84375q0 -0.84375 -0.25 -1.546875q-0.234375 -0.703125 -0.671875 -1.203125q-0.46875 -0.5 -1.125 -0.78125q-0.65625 -0.28125 -1.484375 -0.28125q-0.8125 0 -1.5 0.296875q-0.6875 0.296875 -1.1875 0.828125q-0.5 0.53125 -0.78125 1.265625q-0.28125 0.734375 -0.28125 1.609375l0 0.296875q0 0.78125 0.28125 1.46875q0.28125 0.671875 0.8125 1.171875q0.515625 0.515625 1.25 0.8125q0.734375 0.28125 1.625 0.28125zm-0.234375 -6.421875q0.375 0 0.65625 0.125q0.296875 0.109375 0.5 0.3125q0.203125 0.21875 0.3125 0.5q0.125 0.265625 0.125 0.578125l0 0.171875l-3.265625 0q0.0625 -0.390625 0.203125 -0.6875q0.15625 -0.3125 0.359375 -0.53125q0.21875 -0.234375 0.484375 -0.34375q0.28125 -0.125 0.625 -0.125zm8.920181 -3.359375l-1.984375 0l0 1.890625l-1.765625 0l0 1.46875l1.765625 0l0 3.53125q0 0.765625 0.1875 1.3125q0.203125 0.546875 0.578125 0.890625q0.375 0.359375 0.890625 0.53125q0.515625 0.171875 1.15625 0.171875q0.328125 0 0.65625 -0.046875q0.34375 -0.03125 0.671875 -0.078125q0.3125 -0.0625 0.578125 -0.140625q0.28125 -0.09375 0.5 -0.21875l-0.203125 -1.375q-0.125 0.046875 -0.328125 0.078125q-0.1875 0.03125 -0.390625 0.0625q-0.234375 0.03125 -0.46875 0.0625q-0.234375 0.015625 -0.46875 0.015625q-0.3125 0 -0.578125 -0.0625q-0.25 -0.078125 -0.421875 -0.25q-0.171875 -0.15625 -0.28125 -0.4375q-0.09375 -0.296875 -0.09375 -0.71875l0 -3.328125l2.890625 0l0 -1.46875l-2.890625 0l0 -1.890625zm9.982681 9.640625l2.015625 0l0 -0.125q-0.140625 -0.296875 -0.21875 -0.703125q-0.078125 -0.40625 -0.078125 -1.03125l0 -3.3125q0 -0.671875 -0.25 -1.1875q-0.25 -0.515625 -0.703125 -0.84375q-0.4375 -0.34375 -1.046875 -0.515625q-0.609375 -0.171875 -1.296875 -0.171875q-0.78125 0 -1.390625 0.203125q-0.609375 0.1875 -1.015625 0.53125q-0.421875 0.34375 -0.640625 0.78125q-0.21875 0.4375 -0.21875 0.9375l1.984375 0q0 -0.203125 0.0625 -0.375q0.0625 -0.171875 0.1875 -0.296875q0.140625 -0.140625 0.359375 -0.203125q0.234375 -0.078125 0.5625 -0.078125q0.359375 0 0.625 0.09375q0.265625 0.078125 0.4375 0.25q0.171875 0.15625 0.25 0.375q0.09375 0.21875 0.09375 0.484375l0 0.453125l-1.109375 0q-0.859375 0 -1.515625 0.15625q-0.65625 0.15625 -1.109375 0.453125q-0.5 0.3125 -0.75 0.8125q-0.25 0.5 -0.25 1.140625q0 0.5 0.1875 0.9375q0.203125 0.421875 0.5625 0.71875q0.359375 0.3125 0.859375 0.484375q0.5 0.171875 1.09375 0.171875q0.359375 0 0.671875 -0.078125q0.3125 -0.0625 0.578125 -0.171875q0.265625 -0.125 0.46875 -0.28125q0.21875 -0.15625 0.390625 -0.328125q0.03125 0.203125 0.078125 0.390625q0.0625 0.1875 0.125 0.328125zm-1.890625 -1.390625q-0.28125 0 -0.5 -0.0625q-0.203125 -0.078125 -0.34375 -0.1875q-0.140625 -0.125 -0.21875 -0.296875q-0.078125 -0.1875 -0.078125 -0.390625q0 -0.265625 0.09375 -0.484375q0.109375 -0.234375 0.3125 -0.390625q0.203125 -0.15625 0.53125 -0.25q0.34375 -0.09375 0.796875 -0.09375l1.015625 0l0 1.328125q-0.078125 0.15625 -0.234375 0.3125q-0.140625 0.140625 -0.359375 0.25q-0.203125 0.125 -0.46875 0.203125q-0.25 0.0625 -0.546875 0.0625zm6.3733063 -6.359375l0 1.625l2.21875 0l0 4.5l-2.21875 0l0 1.625l6.3125 0l0 -1.625l-2.09375 0l0 -6.125l-4.21875 0zm2.0625 -1.96875q0 0.21875 0.078125 0.421875q0.09375 0.1875 0.25 0.328125q0.140625 0.140625 0.34375 0.21875q0.21875 0.078125 0.484375 0.078125q0.53125 0 0.828125 -0.296875q0.3125 -0.296875 0.3125 -0.75q0 -0.46875 -0.3125 -0.765625q-0.296875 -0.296875 -0.828125 -0.296875q-0.265625 0 -0.484375 0.078125q-0.203125 0.078125 -0.34375 0.21875q-0.15625 0.140625 -0.25 0.34375q-0.078125 0.1875 -0.078125 0.421875zm6.6233063 -1.28125l0 1.625l2.328125 0l0 7.75l-2.328125 0l0 1.625l6.546875 0l0 -1.625l-2.21875 0l0 -9.375l-4.328125 0zm13.373306 8.875q0 0.171875 -0.09375 0.328125q-0.078125 0.15625 -0.265625 0.265625q-0.1875 0.109375 -0.484375 0.1875q-0.28125 0.0625 -0.65625 0.0625q-0.328125 0 -0.640625 -0.0625q-0.296875 -0.0625 -0.53125 -0.203125q-0.234375 -0.140625 -0.390625 -0.359375q-0.140625 -0.234375 -0.171875 -0.546875l-1.890625 0q0 0.46875 0.234375 0.9375q0.234375 0.46875 0.6875 0.828125q0.4375 0.375 1.109375 0.609375q0.671875 0.234375 1.546875 0.234375q0.796875 0 1.4375 -0.171875q0.640625 -0.1875 1.09375 -0.5q0.453125 -0.3125 0.703125 -0.75q0.25 -0.4375 0.25 -0.953125q0 -0.546875 -0.25 -0.953125q-0.25 -0.40625 -0.6875 -0.6875q-0.4375 -0.28125 -1.03125 -0.453125q-0.59375 -0.1875 -1.296875 -0.296875q-0.5 -0.078125 -0.8125 -0.171875q-0.3125 -0.09375 -0.484375 -0.21875q-0.1875 -0.109375 -0.265625 -0.25q-0.0625 -0.15625 -0.0625 -0.328125q0 -0.171875 0.078125 -0.328125q0.078125 -0.15625 0.234375 -0.265625q0.171875 -0.140625 0.4375 -0.203125q0.28125 -0.078125 0.640625 -0.078125q0.4375 0 0.734375 0.109375q0.3125 0.109375 0.484375 0.296875q0.140625 0.125 0.203125 0.296875q0.0625 0.171875 0.0625 0.359375l1.984375 0q0 -0.53125 -0.234375 -0.984375q-0.234375 -0.46875 -0.6875 -0.796875q-0.4375 -0.328125 -1.09375 -0.515625q-0.640625 -0.203125 -1.453125 -0.203125q-0.765625 0 -1.390625 0.203125q-0.609375 0.1875 -1.03125 0.515625q-0.4375 0.328125 -0.671875 0.765625q-0.21875 0.4375 -0.21875 0.921875q0 0.484375 0.21875 0.875q0.234375 0.375 0.625 0.65625q0.40625 0.296875 0.96875 0.5q0.5625 0.203125 1.234375 0.34375q0.546875 0.09375 0.890625 0.203125q0.359375 0.09375 0.5625 0.203125q0.21875 0.125 0.296875 0.265625q0.078125 0.140625 0.078125 0.3125z" fill-rule="nonzero"/><path fill="#188038" d="m43.26469 565.5371q0 0.28125 -0.109375 0.515625q-0.109375 0.234375 -0.328125 0.390625q-0.21875 0.171875 -0.53125 0.265625q-0.3125 0.09375 -0.703125 0.09375q-0.453125 0 -0.828125 -0.09375q-0.375 -0.109375 -0.640625 -0.328125q-0.28125 -0.21875 -0.4375 -0.546875q-0.140625 -0.34375 -0.15625 -0.8125l-1.96875 0q0 0.8125 0.3125 1.421875q0.3125 0.59375 0.84375 1.03125q0.5625 0.453125 1.328125 0.6875q0.765625 0.234375 1.546875 0.234375q0.78125 0 1.453125 -0.1875q0.6875 -0.203125 1.171875 -0.5625q0.484375 -0.375 0.75 -0.90625q0.28125 -0.53125 0.28125 -1.21875q0 -0.796875 -0.375 -1.40625q-0.359375 -0.609375 -0.96875 -1.0625q-0.40625 -0.28125 -0.890625 -0.484375q-0.484375 -0.21875 -1.03125 -0.375q-0.5 -0.140625 -0.90625 -0.296875q-0.390625 -0.15625 -0.65625 -0.34375q-0.28125 -0.1875 -0.4375 -0.421875q-0.140625 -0.234375 -0.140625 -0.53125q0 -0.28125 0.109375 -0.515625q0.109375 -0.25 0.328125 -0.421875q0.21875 -0.171875 0.515625 -0.265625q0.3125 -0.09375 0.71875 -0.09375q0.4375 0 0.765625 0.125q0.328125 0.109375 0.546875 0.3125q0.21875 0.21875 0.328125 0.515625q0.109375 0.28125 0.125 0.640625l1.953125 0q0 -0.703125 -0.28125 -1.28125q-0.265625 -0.59375 -0.75 -1.03125q-0.484375 -0.421875 -1.15625 -0.65625q-0.671875 -0.234375 -1.5 -0.234375q-0.78125 0 -1.453125 0.203125q-0.671875 0.203125 -1.171875 0.578125q-0.484375 0.390625 -0.765625 0.921875q-0.28125 0.53125 -0.28125 1.1875q0 0.578125 0.203125 1.0625q0.21875 0.484375 0.640625 0.890625q0.40625 0.40625 1.0625 0.75q0.65625 0.328125 1.515625 0.5625q0.5625 0.140625 0.9375 0.328125q0.375 0.171875 0.609375 0.375q0.234375 0.21875 0.328125 0.46875q0.09375 0.234375 0.09375 0.515625zm3.9826813 -5.03125l0 1.625l2.21875 0l0 4.5l-2.21875 0l0 1.625l6.3125 0l0 -1.625l-2.09375 0l0 -6.125l-4.21875 0zm2.0625 -1.96875q0 0.21875 0.078125 0.421875q0.09375 0.1875 0.25 0.328125q0.140625 0.140625 0.34375 0.21875q0.21875 0.078125 0.484375 0.078125q0.53125 0 0.828125 -0.296875q0.3125 -0.296875 0.3125 -0.75q0 -0.46875 -0.3125 -0.765625q-0.296875 -0.296875 -0.828125 -0.296875q-0.265625 0 -0.484375 0.078125q-0.203125 0.078125 -0.34375 0.21875q-0.15625 0.140625 -0.25 0.34375q-0.078125 0.1875 -0.078125 0.421875zm6.2170563 9.71875l1.984375 0l0 -5.5q0.109375 -0.15625 0.21875 -0.28125q0.125 -0.140625 0.28125 -0.234375q0.1875 -0.125 0.421875 -0.1875q0.25 -0.0625 0.53125 -0.0625q0.34375 0 0.609375 0.0625q0.28125 0.0625 0.46875 0.234375q0.1875 0.171875 0.296875 0.46875q0.109375 0.296875 0.109375 0.765625l0 4.734375l1.984375 0l0 -4.765625q0 -0.84375 -0.203125 -1.4375q-0.1875 -0.59375 -0.546875 -0.96875q-0.359375 -0.375 -0.84375 -0.546875q-0.484375 -0.171875 -1.0625 -0.171875q-0.46875 0 -0.875 0.140625q-0.40625 0.125 -0.75 0.359375q-0.203125 0.140625 -0.390625 0.328125q-0.171875 0.171875 -0.3125 0.390625l-0.125 -1.078125l-1.796875 0l0 7.75zm8.592052 -3.921875l0 0.140625q0 0.84375 0.21875 1.5625q0.21875 0.71875 0.625 1.25q0.40625 0.515625 0.984375 0.8125q0.578125 0.296875 1.296875 0.296875q0.359375 0 0.671875 -0.078125q0.328125 -0.078125 0.59375 -0.21875q0.171875 -0.09375 0.328125 -0.21875q0.171875 -0.140625 0.3125 -0.296875l0 0.4375q0 0.40625 -0.109375 0.71875q-0.109375 0.3125 -0.328125 0.53125q-0.21875 0.234375 -0.5625 0.34375q-0.34375 0.125 -0.78125 0.125q-0.265625 0 -0.53125 -0.0625q-0.25 -0.046875 -0.484375 -0.140625q-0.234375 -0.109375 -0.46875 -0.28125q-0.21875 -0.171875 -0.40625 -0.390625l-0.890625 1.203125q0.25 0.328125 0.59375 0.5625q0.34375 0.234375 0.75 0.375q0.390625 0.15625 0.78125 0.21875q0.40625 0.078125 0.765625 0.078125q0.8125 0 1.484375 -0.21875q0.671875 -0.21875 1.15625 -0.640625q0.484375 -0.421875 0.75 -1.046875q0.28125 -0.609375 0.28125 -1.390625l0 -7.5l-1.8125 0l-0.078125 0.75q-0.15625 -0.1875 -0.328125 -0.328125q-0.171875 -0.15625 -0.359375 -0.25q-0.265625 -0.15625 -0.59375 -0.234375q-0.328125 -0.078125 -0.71875 -0.078125q-0.734375 0 -1.3125 0.296875q-0.578125 0.28125 -0.984375 0.796875q-0.40625 0.53125 -0.625 1.265625q-0.21875 0.71875 -0.21875 1.609375zm2.0 0.140625l0 -0.140625q0 -0.5 0.09375 -0.921875q0.09375 -0.421875 0.3125 -0.75q0.1875 -0.3125 0.5 -0.484375q0.3125 -0.1875 0.734375 -0.1875q0.234375 0 0.421875 0.046875q0.203125 0.03125 0.359375 0.109375q0.203125 0.09375 0.34375 0.25q0.15625 0.15625 0.265625 0.34375l0 3.28125q-0.109375 0.1875 -0.25 0.328125q-0.125 0.140625 -0.3125 0.234375q-0.171875 0.09375 -0.390625 0.15625q-0.203125 0.046875 -0.453125 0.046875q-0.421875 0 -0.734375 -0.171875q-0.296875 -0.1875 -0.5 -0.5q-0.203125 -0.3125 -0.296875 -0.734375q-0.09375 -0.421875 -0.09375 -0.90625zm7.4045563 -7.21875l0 1.625l2.328125 0l0 7.75l-2.328125 0l0 1.625l6.546875 0l0 -1.625l-2.21875 0l0 -9.375l-4.328125 0zm12.138931 11.140625q1.125 0 1.9375 -0.4375q0.828125 -0.4375 1.21875 -0.96875l-1.0 -1.078125q-0.34375 0.453125 -0.90625 0.671875q-0.546875 0.21875 -1.125 0.21875q-0.421875 0 -0.78125 -0.125q-0.34375 -0.125 -0.609375 -0.375q-0.265625 -0.21875 -0.421875 -0.5q-0.15625 -0.28125 -0.265625 -0.75l0 -0.03125l5.265625 0l0 -0.84375q0 -0.84375 -0.25 -1.546875q-0.234375 -0.703125 -0.671875 -1.203125q-0.46875 -0.5 -1.125 -0.78125q-0.65625 -0.28125 -1.484375 -0.28125q-0.8125 0 -1.5 0.296875q-0.6875 0.296875 -1.1875 0.828125q-0.5 0.53125 -0.78125 1.265625q-0.28125 0.734375 -0.28125 1.609375l0 0.296875q0 0.78125 0.28125 1.46875q0.28125 0.671875 0.8125 1.171875q0.515625 0.515625 1.25 0.8125q0.734375 0.28125 1.625 0.28125zm-0.234375 -6.421875q0.375 0 0.65625 0.125q0.296875 0.109375 0.5 0.3125q0.203125 0.21875 0.3125 0.5q0.125 0.265625 0.125 0.578125l0 0.171875l-3.265625 0q0.0625 -0.390625 0.203125 -0.6875q0.15625 -0.3125 0.359375 -0.53125q0.21875 -0.234375 0.484375 -0.34375q0.28125 -0.125 0.625 -0.125zm20.871613 6.28125l0 -10.421875l-2.015625 0l-0.015625 6.6875l-2.875 -6.6875l-2.03125 0l0 10.421875l2.03125 0l0 -6.71875l2.890625 6.71875l2.015625 0zm1.7170563 -3.9375l0 0.140625q0 0.859375 0.234375 1.578125q0.25 0.71875 0.734375 1.25q0.453125 0.53125 1.140625 0.828125q0.6875 0.296875 1.5625 0.296875q0.859375 0 1.53125 -0.296875q0.6875 -0.296875 1.15625 -0.828125q0.46875 -0.53125 0.703125 -1.25q0.25 -0.71875 0.25 -1.578125l0 -0.140625q0 -0.84375 -0.25 -1.5625q-0.234375 -0.71875 -0.703125 -1.25q-0.46875 -0.53125 -1.15625 -0.828125q-0.671875 -0.3125 -1.546875 -0.3125q-0.875 0 -1.5625 0.3125q-0.671875 0.296875 -1.125 0.828125q-0.484375 0.53125 -0.734375 1.25q-0.234375 0.71875 -0.234375 1.5625zm2.0 0.140625l0 -0.140625q0 -0.484375 0.078125 -0.90625q0.09375 -0.421875 0.296875 -0.734375q0.203125 -0.328125 0.515625 -0.515625q0.3125 -0.1875 0.765625 -0.1875q0.453125 0 0.765625 0.1875q0.3125 0.1875 0.515625 0.515625q0.1875 0.3125 0.28125 0.734375q0.09375 0.421875 0.09375 0.90625l0 0.140625q0 0.484375 -0.09375 0.921875q-0.09375 0.421875 -0.28125 0.734375q-0.203125 0.328125 -0.515625 0.515625q-0.3125 0.171875 -0.75 0.171875q-0.453125 0 -0.78125 -0.171875q-0.3125 -0.1875 -0.515625 -0.515625q-0.203125 -0.3125 -0.296875 -0.734375q-0.078125 -0.4375 -0.078125 -0.921875zm6.8576813 -0.125l0 0.140625q0 0.84375 0.203125 1.5625q0.21875 0.71875 0.609375 1.25q0.390625 0.515625 0.953125 0.8125q0.5625 0.296875 1.265625 0.296875q0.65625 0 1.140625 -0.25q0.5 -0.25 0.859375 -0.703125l0.109375 0.8125l1.796875 0l0 -11.0l-2.0 0l0 3.953125q-0.359375 -0.40625 -0.828125 -0.625q-0.453125 -0.21875 -1.0625 -0.21875q-0.71875 0 -1.28125 0.296875q-0.5625 0.28125 -0.953125 0.796875q-0.40625 0.53125 -0.609375 1.265625q-0.203125 0.71875 -0.203125 1.609375zm2.0 0.140625l0 -0.140625q0 -0.5 0.078125 -0.921875q0.09375 -0.421875 0.28125 -0.75q0.171875 -0.3125 0.46875 -0.484375q0.296875 -0.1875 0.71875 -0.1875q0.515625 0 0.84375 0.21875q0.34375 0.21875 0.546875 0.609375l0 3.140625q-0.203125 0.375 -0.546875 0.609375q-0.328125 0.21875 -0.84375 0.21875q-0.421875 0 -0.71875 -0.171875q-0.296875 -0.1875 -0.484375 -0.5q-0.1875 -0.3125 -0.265625 -0.734375q-0.078125 -0.421875 -0.078125 -0.90625zm10.763939 3.921875q1.125 0 1.9375 -0.4375q0.828125 -0.4375 1.21875 -0.96875l-1.0 -1.078125q-0.34375 0.453125 -0.90625 0.671875q-0.546875 0.21875 -1.125 0.21875q-0.421875 0 -0.78125 -0.125q-0.34375 -0.125 -0.609375 -0.375q-0.265625 -0.21875 -0.42188263 -0.5q-0.15625 -0.28125 -0.265625 -0.75l0 -0.03125l5.2656326 0l0 -0.84375q0 -0.84375 -0.25 -1.546875q-0.234375 -0.703125 -0.671875 -1.203125q-0.46875 -0.5 -1.125 -0.78125q-0.65625 -0.28125 -1.484375 -0.28125q-0.8125 0 -1.5000076 0.296875q-0.6875 0.296875 -1.1875 0.828125q-0.5 0.53125 -0.78125 1.265625q-0.28125 0.734375 -0.28125 1.609375l0 0.296875q0 0.78125 0.28125 1.46875q0.28125 0.671875 0.8125 1.171875q0.515625 0.515625 1.2500076 0.8125q0.734375 0.28125 1.625 0.28125zm-0.234375 -6.421875q0.375 0 0.65625 0.125q0.296875 0.109375 0.5 0.3125q0.203125 0.21875 0.3125 0.5q0.125 0.265625 0.125 0.578125l0 0.171875l-3.2656326 0q0.0625 -0.390625 0.203125 -0.6875q0.15625763 -0.3125 0.35938263 -0.53125q0.21875 -0.234375 0.484375 -0.34375q0.28125 -0.125 0.625 -0.125zm21.262238 1.84375l0 -1.53125q0 -0.703125 -0.140625 -1.328125q-0.125 -0.625 -0.375 -1.15625q-0.21875 -0.46875 -0.546875 -0.859375q-0.3125 -0.390625 -0.734375 -0.65625q-0.421875 -0.28125 -0.953125 -0.4375q-0.515625 -0.15625 -1.125 -0.15625q-0.59375 0 -1.109375 0.15625q-0.5 0.140625 -0.90625 0.421875q-0.421875 0.28125 -0.734375 0.6875q-0.3125 0.40625 -0.546875 0.890625q-0.21875 0.53125 -0.34375 1.15625q-0.109375 0.609375 -0.109375 1.28125l0 1.53125q0 0.640625 0.09375 1.21875q0.109375 0.578125 0.3125 1.078125q0.21875 0.53125 0.546875 0.953125q0.328125 0.421875 0.75 0.734375q0.421875 0.28125 0.9375 0.4375q0.515625 0.15625 1.125 0.15625q0.5625 0 1.0625 -0.140625q0.5 -0.140625 0.90625 -0.390625q0.46875 -0.28125 0.828125 -0.703125q0.359375 -0.4375 0.59375 -0.953125q0.234375 -0.515625 0.34375 -1.109375q0.125 -0.609375 0.125 -1.28125zm-2.03125 -1.53125l0 1.53125q0 0.375 -0.046875 0.734375q-0.03125 0.359375 -0.109375 0.65625q-0.109375 0.390625 -0.28125 0.703125q-0.15625 0.296875 -0.40625 0.5q-0.1875 0.15625 -0.4375 0.25q-0.25 0.078125 -0.546875 0.078125q-0.328125 0 -0.578125 -0.09375q-0.234375 -0.09375 -0.4375 -0.265625q-0.203125 -0.1875 -0.359375 -0.5q-0.15625 -0.3125 -0.234375 -0.6875q-0.0625 -0.296875 -0.09375 -0.640625q-0.03125 -0.359375 -0.03125 -0.734375l0 -1.53125q0 -0.40625 0.03125 -0.765625q0.03125 -0.375 0.109375 -0.671875q0.09375 -0.40625 0.25 -0.703125q0.171875 -0.3125 0.421875 -0.5q0.171875 -0.140625 0.390625 -0.203125q0.234375 -0.078125 0.515625 -0.078125q0.296875 0 0.53125 0.078125q0.25 0.078125 0.4375 0.21875q0.234375 0.1875 0.40625 0.5q0.1875 0.296875 0.296875 0.6875q0.09375 0.3125 0.125 0.671875q0.046875 0.359375 0.046875 0.765625zm3.6545563 8.953125l2.0 0l0 -3.65625q0.125 0.15625 0.28125 0.28125q0.15625 0.109375 0.3125 0.21875q0.28125 0.15625 0.609375 0.234375q0.328125 0.078125 0.703125 0.078125q0.734375 0 1.296875 -0.296875q0.578125 -0.296875 0.953125 -0.828125q0.390625 -0.53125 0.578125 -1.25q0.203125 -0.71875 0.203125 -1.5625l0 -0.15625q0 -0.875 -0.203125 -1.59375q-0.1875 -0.734375 -0.578125 -1.265625q-0.390625 -0.515625 -0.953125 -0.796875q-0.5625 -0.28125 -1.296875 -0.28125q-0.359375 0 -0.671875 0.078125q-0.3125 0.078125 -0.578125 0.21875q-0.203125 0.109375 -0.390625 0.265625q-0.1875 0.15625 -0.34375 0.34375l-0.078125 -0.765625l-1.84375 0l0 10.734375zm4.9375 -6.9375l0 0.15625q0 0.46875 -0.09375 0.90625q-0.078125 0.421875 -0.25 0.75q-0.1875 0.3125 -0.484375 0.5q-0.296875 0.1875 -0.71875 0.1875q-0.265625 0 -0.484375 -0.046875q-0.21875 -0.0625 -0.375 -0.15625q-0.171875 -0.109375 -0.3125 -0.25q-0.125 -0.15625 -0.21875 -0.34375l0 -3.234375q0.09375 -0.203125 0.234375 -0.34375q0.140625 -0.15625 0.328125 -0.265625q0.15625 -0.078125 0.359375 -0.125q0.203125 -0.046875 0.453125 -0.046875q0.421875 0 0.71875 0.1875q0.296875 0.171875 0.484375 0.46875q0.1875 0.328125 0.265625 0.75q0.09375 0.421875 0.09375 0.90625zm7.592041 4.09375q1.125 0 1.9375 -0.4375q0.828125 -0.4375 1.21875 -0.96875l-1.0 -1.078125q-0.34375 0.453125 -0.90625 0.671875q-0.546875 0.21875 -1.125 0.21875q-0.421875 0 -0.78125 -0.125q-0.34375 -0.125 -0.609375 -0.375q-0.265625 -0.21875 -0.421875 -0.5q-0.15625 -0.28125 -0.265625 -0.75l0 -0.03125l5.265625 0l0 -0.84375q0 -0.84375 -0.25 -1.546875q-0.234375 -0.703125 -0.671875 -1.203125q-0.46875 -0.5 -1.125 -0.78125q-0.65625 -0.28125 -1.484375 -0.28125q-0.8125 0 -1.5 0.296875q-0.6875 0.296875 -1.1875 0.828125q-0.5 0.53125 -0.78125 1.265625q-0.28125 0.734375 -0.28125 1.609375l0 0.296875q0 0.78125 0.28125 1.46875q0.28125 0.671875 0.8125 1.171875q0.515625 0.515625 1.25 0.8125q0.734375 0.28125 1.625 0.28125zm-0.234375 -6.421875q0.375 0 0.65625 0.125q0.296875 0.109375 0.5 0.3125q0.203125 0.21875 0.3125 0.5q0.125 0.265625 0.125 0.578125l0 0.171875l-3.265625 0q0.0625 -0.390625 0.203125 -0.6875q0.15625 -0.3125 0.359375 -0.53125q0.21875 -0.234375 0.484375 -0.34375q0.28125 -0.125 0.625 -0.125zm5.2795715 6.28125l1.984375 0l0 -5.5q0.109375 -0.15625 0.21875 -0.28125q0.125 -0.140625 0.28125 -0.234375q0.1875 -0.125 0.421875 -0.1875q0.25 -0.0625 0.53125 -0.0625q0.34375 0 0.609375 0.0625q0.28125 0.0625 0.46875 0.234375q0.1875 0.171875 0.296875 0.46875q0.109375 0.296875 0.109375 0.765625l0 4.734375l1.984375 0l0 -4.765625q0 -0.84375 -0.203125 -1.4375q-0.1875 -0.59375 -0.546875 -0.96875q-0.359375 -0.375 -0.84375 -0.546875q-0.484375 -0.171875 -1.0625 -0.171875q-0.46875 0 -0.875 0.140625q-0.40625 0.125 -0.75 0.359375q-0.203125 0.140625 -0.390625 0.328125q-0.171875 0.171875 -0.3125 0.390625l-0.125 -1.078125l-1.796875 0l0 7.75zm14.123291 -2.71875q0 0.28125 -0.109375 0.515625q-0.109375 0.234375 -0.328125 0.390625q-0.21875 0.171875 -0.53125 0.265625q-0.3125 0.09375 -0.703125 0.09375q-0.453125 0 -0.828125 -0.09375q-0.375 -0.109375 -0.640625 -0.328125q-0.28125 -0.21875 -0.4375 -0.546875q-0.140625 -0.34375 -0.15625 -0.8125l-1.96875 0q0 0.8125 0.3125 1.421875q0.3125 0.59375 0.84375 1.03125q0.5625 0.453125 1.328125 0.6875q0.765625 0.234375 1.546875 0.234375q0.78125 0 1.453125 -0.1875q0.6875 -0.203125 1.171875 -0.5625q0.484375 -0.375 0.75 -0.90625q0.28125 -0.53125 0.28125 -1.21875q0 -0.796875 -0.375 -1.40625q-0.359375 -0.609375 -0.96875 -1.0625q-0.40625 -0.28125 -0.890625 -0.484375q-0.484375 -0.21875 -1.03125 -0.375q-0.5 -0.140625 -0.90625 -0.296875q-0.390625 -0.15625 -0.65625 -0.34375q-0.28125 -0.1875 -0.4375 -0.421875q-0.140625 -0.234375 -0.140625 -0.53125q0 -0.28125 0.109375 -0.515625q0.109375 -0.25 0.328125 -0.421875q0.21875 -0.171875 0.515625 -0.265625q0.3125 -0.09375 0.71875 -0.09375q0.4375 0 0.765625 0.125q0.328125 0.109375 0.546875 0.3125q0.21875 0.21875 0.328125 0.515625q0.109375 0.28125 0.125 0.640625l1.953125 0q0 -0.703125 -0.28125 -1.28125q-0.265625 -0.59375 -0.75 -1.03125q-0.484375 -0.421875 -1.15625 -0.65625q-0.671875 -0.234375 -1.5 -0.234375q-0.78125 0 -1.453125 0.203125q-0.671875 0.203125 -1.171875 0.578125q-0.484375 0.390625 -0.765625 0.921875q-0.28125 0.53125 -0.28125 1.1875q0 0.578125 0.203125 1.0625q0.21875 0.484375 0.640625 0.890625q0.40625 0.40625 1.0625 0.75q0.65625 0.328125 1.515625 0.5625q0.5625 0.140625 0.9375 0.328125q0.375 0.171875 0.609375 0.375q0.234375 0.21875 0.328125 0.46875q0.09375 0.234375 0.09375 0.515625zm5.4514465 -3.953125l0 -4.328125l-1.984375 0l0 11.0l1.984375 0l0 -5.59375q0.109375 -0.140625 0.25 -0.265625q0.140625 -0.125 0.3125 -0.203125q0.1875 -0.109375 0.40625 -0.15625q0.234375 -0.046875 0.5 -0.046875q0.34375 0 0.609375 0.09375q0.28125 0.078125 0.46875 0.265625q0.203125 0.1875 0.296875 0.5q0.109375 0.296875 0.109375 0.703125l0 4.703125l1.984375 0l0 -4.6875q0 -0.84375 -0.203125 -1.453125q-0.203125 -0.609375 -0.5625 -1.0q-0.359375 -0.375 -0.875 -0.5625q-0.5 -0.1875 -1.109375 -0.1875q-0.421875 0 -0.796875 0.125q-0.375 0.125 -0.671875 0.34375q-0.203125 0.140625 -0.390625 0.328125q-0.171875 0.1875 -0.328125 0.421875zm7.326416 -1.078125l0 1.625l2.21875 0l0 4.5l-2.21875 0l0 1.625l6.3125 0l0 -1.625l-2.09375 0l0 -6.125l-4.21875 0zm2.0625 -1.96875q0 0.21875 0.078125 0.421875q0.09375 0.1875 0.25 0.328125q0.140625 0.140625 0.34375 0.21875q0.21875 0.078125 0.484375 0.078125q0.53125 0 0.828125 -0.296875q0.3125 -0.296875 0.3125 -0.75q0 -0.46875 -0.3125 -0.765625q-0.296875 -0.296875 -0.828125 -0.296875q-0.265625 0 -0.484375 0.078125q-0.203125 0.078125 -0.34375 0.21875q-0.15625 0.140625 -0.25 0.34375q-0.078125 0.1875 -0.078125 0.421875zm8.138947 9.71875l2.0 0l0 -6.28125l2.78125 0l0 -1.46875l-2.78125 0l0 -0.421875q0 -0.34375 0.078125 -0.609375q0.09375 -0.265625 0.28125 -0.453125q0.203125 -0.21875 0.546875 -0.328125q0.359375 -0.125 0.859375 -0.125q0.46875 0 0.8125 0.046875q0.34375 0.03125 0.609375 0.09375l0.140625 -1.5625q-0.25 -0.046875 -0.484375 -0.078125q-0.21875 -0.03125 -0.4375 -0.0625q-0.21875 -0.03125 -0.453125 -0.046875q-0.234375 -0.015625 -0.484375 -0.015625q-0.796875 0 -1.4375 0.203125q-0.640625 0.203125 -1.09375 0.609375q-0.453125 0.390625 -0.703125 0.984375q-0.234375 0.578125 -0.234375 1.34375l0 0.421875l-2.03125 0l0 1.46875l2.03125 0l0 6.28125zm10.513916 -9.640625l-1.984375 0l0 1.890625l-1.765625 0l0 1.46875l1.765625 0l0 3.53125q0 0.765625 0.1875 1.3125q0.203125 0.546875 0.578125 0.890625q0.375 0.359375 0.890625 0.53125q0.515625 0.171875 1.15625 0.171875q0.328125 0 0.65625 -0.046875q0.34375 -0.03125 0.671875 -0.078125q0.3125 -0.0625 0.578125 -0.140625q0.28125 -0.09375 0.5 -0.21875l-0.203125 -1.375q-0.125 0.046875 -0.328125 0.078125q-0.1875 0.03125 -0.390625 0.0625q-0.234375 0.03125 -0.46875 0.0625q-0.234375 0.015625 -0.46875 0.015625q-0.3125 0 -0.578125 -0.0625q-0.25 -0.078125 -0.421875 -0.25q-0.171875 -0.15625 -0.28125 -0.4375q-0.09375 -0.296875 -0.09375 -0.71875l0 -3.328125l2.890625 0l0 -1.46875l-2.890625 0l0 -1.890625z" fill-rule="nonzero"/><path fill="#eeeeee" d="m541.7113 317.5459l206.42517 0l0 71.52756l-206.42517 0z" fill-rule="evenodd"/><path stroke="#000000" stroke-width="1.0" stroke-linejoin="round" stroke-linecap="butt" d="m541.7113 317.5459l206.42517 0l0 71.52756l-206.42517 0z" fill-rule="evenodd"/><path fill="#000000" d="m584.7253 351.4328q-1.53125 0 -2.890625 -0.53125q-1.34375 -0.53125 -2.59375 -1.578125l1.203125 -1.640625q1.265625 1.03125 2.265625 1.46875q1.0 0.4375 2.140625 0.4375q0.859375 0 1.515625 -0.265625q0.671875 -0.28125 1.03125 -0.734375q0.359375 -0.46875 0.359375 -1.09375q0 -0.796875 -0.53125 -1.21875q-0.53125 -0.421875 -1.828125 -0.640625l-2.40625 -0.40625q-1.703125 -0.3125 -2.53125 -1.15625q-0.828125 -0.84375 -0.828125 -2.171875q0 -1.171875 0.59375 -2.0625q0.59375 -0.890625 1.65625 -1.375q1.078125 -0.5 2.5625 -0.5q1.46875 0 2.796875 0.4375q1.328125 0.421875 2.4375 1.25l-1.140625 1.671875q-0.984375 -0.75 -2.03125 -1.125q-1.046875 -0.390625 -2.140625 -0.390625q-0.78125 0 -1.375 0.25q-0.578125 0.234375 -0.90625 0.671875q-0.328125 0.421875 -0.328125 0.953125q0 0.703125 0.46875 1.09375q0.484375 0.375 1.546875 0.5625l2.328125 0.390625q1.984375 0.359375 2.921875 1.234375q0.9375 0.875 0.9375 2.359375q0 1.203125 -0.671875 2.140625q-0.65625 0.921875 -1.828125 1.453125q-1.171875 0.515625 -2.734375 0.515625zm12.070679 0q-1.53125 0 -2.890625 -0.53125q-1.34375 -0.53125 -2.59375 -1.578125l1.203125 -1.640625q1.265625 1.03125 2.265625 1.46875q1.0 0.4375 2.140625 0.4375q0.859375 0 1.515625 -0.265625q0.671875 -0.28125 1.03125 -0.734375q0.359375 -0.46875 0.359375 -1.09375q0 -0.796875 -0.53125 -1.21875q-0.53125 -0.421875 -1.828125 -0.640625l-2.40625 -0.40625q-1.703125 -0.3125 -2.53125 -1.15625q-0.828125 -0.84375 -0.828125 -2.171875q0 -1.171875 0.59375 -2.0625q0.59375 -0.890625 1.65625 -1.375q1.078125 -0.5 2.5625 -0.5q1.46875 0 2.796875 0.4375q1.328125 0.421875 2.4375 1.25l-1.140625 1.671875q-0.984375 -0.75 -2.03125 -1.125q-1.046875 -0.390625 -2.140625 -0.390625q-0.78125 0 -1.375 0.25q-0.578125 0.234375 -0.90625 0.671875q-0.328125 0.421875 -0.328125 0.953125q0 0.703125 0.46875 1.09375q0.484375 0.375 1.546875 0.5625l2.328125 0.390625q1.984375 0.359375 2.921875 1.234375q0.9375 0.875 0.9375 2.359375q0 1.203125 -0.671875 2.140625q-0.65625 0.921875 -1.828125 1.453125q-1.171875 0.515625 -2.734375 0.515625zm7.415283 -0.203125l0 -13.0625l2.25 0l0 5.484375l6.484375 0l0 -5.484375l2.234375 0l0 13.0625l-2.234375 0l0 -5.578125l-6.484375 0l0 5.578125l-2.25 0zm18.208984 0l0 -13.0625l5.84375 0q1.328125 0 2.296875 0.515625q0.984375 0.515625 1.515625 1.4375q0.546875 0.90625 0.546875 2.109375q0 1.171875 -0.546875 2.09375q-0.53125 0.90625 -1.515625 1.421875q-0.96875 0.5 -2.296875 0.5l-3.59375 0l0 4.984375l-2.25 0zm2.25 -6.8125l3.234375 0q1.203125 0 1.828125 -0.59375q0.640625 -0.609375 0.640625 -1.609375q0 -0.96875 -0.640625 -1.5625q-0.625 -0.59375 -1.796875 -0.59375l-3.265625 0l0 4.359375zm13.168457 6.96875q-0.96875 0 -1.703125 -0.421875q-0.71875 -0.4375 -1.140625 -1.1875q-0.421875 -0.75 -0.421875 -1.734375l0 -6.15625l2.125 0l0 5.53125q0 1.046875 0.546875 1.65625q0.546875 0.609375 1.5 0.609375q0.640625 0 1.15625 -0.28125q0.515625 -0.28125 0.875 -0.84375l0 -6.671875l2.109375 0l0 9.34375l-2.109375 0l0 -1.515625q-0.53125 0.828125 -1.28125 1.25q-0.75 0.421875 -1.65625 0.421875zm7.67041 -0.15625l0 -13.328125l2.109375 -0.34375l0 5.578125q0.5 -0.640625 1.234375 -0.984375q0.734375 -0.34375 1.625 -0.34375q1.203125 0 2.15625 0.640625q0.953125 0.625 1.5 1.71875q0.5625 1.078125 0.5625 2.390625q0 1.328125 -0.578125 2.421875q-0.578125 1.078125 -1.5625 1.71875q-0.984375 0.625 -2.203125 0.625q-0.84375 0 -1.546875 -0.328125q-0.703125 -0.34375 -1.234375 -0.953125l0 1.1875l-2.0625 0zm4.34375 -1.65625q0.796875 0 1.421875 -0.390625q0.625 -0.390625 0.984375 -1.078125q0.375 -0.6875 0.375 -1.546875q0 -0.84375 -0.375 -1.515625q-0.359375 -0.671875 -0.984375 -1.0625q-0.625 -0.40625 -1.421875 -0.40625q-0.6875 0 -1.265625 0.28125q-0.578125 0.265625 -0.96875 0.765625l0 3.90625q0.40625 0.484375 0.984375 0.765625q0.578125 0.28125 1.25 0.28125zm7.055237 1.65625l0 -13.375l2.109375 -0.375l0 13.75l-2.109375 0zm4.670105 0l0 -9.34375l2.109375 0l0 9.34375l-2.109375 0zm1.0625 -11.25q-0.53125 0 -0.921875 -0.375q-0.375 -0.390625 -0.375 -0.90625q0 -0.546875 0.375 -0.921875q0.390625 -0.390625 0.921875 -0.390625q0.546875 0 0.921875 0.390625q0.390625 0.375 0.390625 0.890625q0 0.546875 -0.390625 0.9375q-0.375 0.375 -0.921875 0.375zm7.951355 11.421875q-1.328125 0 -2.40625 -0.640625q-1.0625 -0.65625 -1.6875 -1.75q-0.625 -1.109375 -0.625 -2.453125q0 -1.359375 0.625 -2.4375q0.625 -1.09375 1.6875 -1.734375q1.078125 -0.65625 2.40625 -0.65625q1.078125 0 2.0625 0.421875q0.984375 0.40625 1.671875 1.171875l-1.3125 1.359375q-0.484375 -0.546875 -1.078125 -0.828125q-0.59375 -0.28125 -1.265625 -0.28125q-0.765625 0 -1.375 0.40625q-0.609375 0.40625 -0.96875 1.078125q-0.34375 0.671875 -0.34375 1.5q0 0.84375 0.34375 1.53125q0.359375 0.671875 0.96875 1.078125q0.609375 0.390625 1.375 0.390625q0.671875 0 1.265625 -0.28125q0.59375 -0.28125 1.078125 -0.8125l1.3125 1.34375q-0.6875 0.765625 -1.671875 1.1875q-0.984375 0.40625 -2.0625 0.40625zm9.923645 -0.171875l0 -13.0625l2.25 0l0 5.953125l5.671875 -5.953125l2.734375 0l-6.234375 6.296875l6.453125 6.765625l-2.953125 0l-5.671875 -6.09375l0 6.09375l-2.25 0zm15.772156 0.1875q-1.34375 0 -2.4375 -0.640625q-1.078125 -0.640625 -1.71875 -1.734375q-0.625 -1.09375 -0.625 -2.484375q0 -1.375 0.59375 -2.453125q0.609375 -1.078125 1.640625 -1.71875q1.03125 -0.65625 2.296875 -0.65625q1.3125 0 2.3125 0.640625q1.0 0.625 1.5625 1.71875q0.5625 1.078125 0.5625 2.46875l0 0.515625l-6.890625 0q0.109375 0.765625 0.484375 1.359375q0.390625 0.578125 0.984375 0.921875q0.609375 0.328125 1.328125 0.328125q0.65625 0 1.234375 -0.234375q0.59375 -0.234375 0.984375 -0.640625l1.375 1.25q-0.859375 0.703125 -1.75 1.03125q-0.875 0.328125 -1.9375 0.328125zm-2.6875 -5.65625l4.890625 0q-0.109375 -0.671875 -0.46875 -1.1875q-0.34375 -0.53125 -0.859375 -0.828125q-0.5 -0.296875 -1.125 -0.296875q-0.609375 0 -1.125 0.296875q-0.515625 0.28125 -0.859375 0.8125q-0.328125 0.515625 -0.453125 1.203125zm9.425659 9.546875q-0.515625 0 -1.046875 -0.125l0 -1.828125q0.1875 0.046875 0.390625 0.0625q0.21875 0.015625 0.421875 0.015625q0.5625 0 0.90625 -0.265625q0.359375 -0.265625 0.609375 -0.796875l0.421875 -1.046875l-3.515625 -9.4375l2.328125 0l2.390625 6.921875l2.59375 -6.921875l2.3125 0l-4.484375 10.96875q-0.34375 0.890625 -0.796875 1.421875q-0.453125 0.546875 -1.0625 0.78125q-0.59375 0.25 -1.46875 0.25z" fill-rule="nonzero"/><path fill="#188038" d="m590.6927 369.38968l2.0 0l0 -6.28125l2.78125 0l0 -1.46875l-2.78125 0l0 -0.421875q0 -0.34375 0.078125 -0.609375q0.09375 -0.265625 0.28125 -0.453125q0.203125 -0.21875 0.546875 -0.328125q0.359375 -0.125 0.859375 -0.125q0.46875 0 0.8125 0.046875q0.34375 0.03125 0.609375 0.09375l0.140625 -1.5625q-0.25 -0.046875 -0.484375 -0.078125q-0.21875 -0.03125 -0.4375 -0.0625q-0.21875 -0.03125 -0.453125 -0.046875q-0.234375 -0.015625 -0.484375 -0.015625q-0.796875 0 -1.4375 0.203125q-0.640625 0.203125 -1.09375 0.609375q-0.453125 0.390625 -0.703125 0.984375q-0.234375 0.578125 -0.234375 1.34375l0 0.421875l-2.03125 0l0 1.46875l2.03125 0l0 6.28125zm6.592102 -3.9375l0 0.140625q0 0.859375 0.234375 1.578125q0.25 0.71875 0.734375 1.25q0.453125 0.53125 1.140625 0.828125q0.6875 0.296875 1.5625 0.296875q0.859375 0 1.53125 -0.296875q0.6875 -0.296875 1.15625 -0.828125q0.46875 -0.53125 0.703125 -1.25q0.25 -0.71875 0.25 -1.578125l0 -0.140625q0 -0.84375 -0.25 -1.5625q-0.234375 -0.71875 -0.703125 -1.25q-0.46875 -0.53125 -1.15625 -0.828125q-0.671875 -0.3125 -1.546875 -0.3125q-0.875 0 -1.5625 0.3125q-0.671875 0.296875 -1.125 0.828125q-0.484375 0.53125 -0.734375 1.25q-0.234375 0.71875 -0.234375 1.5625zm2.0 0.140625l0 -0.140625q0 -0.484375 0.078125 -0.90625q0.09375 -0.421875 0.296875 -0.734375q0.203125 -0.328125 0.515625 -0.515625q0.3125 -0.1875 0.765625 -0.1875q0.453125 0 0.765625 0.1875q0.3125 0.1875 0.515625 0.515625q0.1875 0.3125 0.28125 0.734375q0.09375 0.421875 0.09375 0.90625l0 0.140625q0 0.484375 -0.09375 0.921875q-0.09375 0.421875 -0.28125 0.734375q-0.203125 0.328125 -0.515625 0.515625q-0.3125 0.171875 -0.75 0.171875q-0.453125 0 -0.78125 -0.171875q-0.3125 -0.1875 -0.515625 -0.515625q-0.203125 -0.3125 -0.296875 -0.734375q-0.078125 -0.4375 -0.078125 -0.921875zm12.623291 -4.09375q-0.765625 0 -1.4375 0.375q-0.65625 0.375 -1.125 1.046875l-0.015625 -0.171875l-0.078125 -1.109375l-1.859375 0l0 7.75l2.0 0l0 -4.65625q0.125 -0.328125 0.328125 -0.5625q0.21875 -0.25 0.515625 -0.40625q0.234375 -0.140625 0.546875 -0.203125q0.3125 -0.0625 0.703125 -0.0625q0.375 0 0.78125 0.046875q0.40625 0.046875 0.8125 0.140625l0.28125 -1.984375q-0.234375 -0.078125 -0.625 -0.140625q-0.375 -0.0625 -0.828125 -0.0625zm11.824707 3.96875l0 0.140625q0 0.84375 0.203125 1.5625q0.21875 0.71875 0.609375 1.25q0.390625 0.515625 0.953125 0.8125q0.5625 0.296875 1.265625 0.296875q0.65625 0 1.140625 -0.25q0.5 -0.25 0.859375 -0.703125l0.109375 0.8125l1.796875 0l0 -11.0l-2.0 0l0 3.953125q-0.359375 -0.40625 -0.828125 -0.625q-0.453125 -0.21875 -1.0625 -0.21875q-0.71875 0 -1.28125 0.296875q-0.5625 0.28125 -0.953125 0.796875q-0.40625 0.53125 -0.609375 1.265625q-0.203125 0.71875 -0.203125 1.609375zm2.0 0.140625l0 -0.140625q0 -0.5 0.078125 -0.921875q0.09375 -0.421875 0.28125 -0.75q0.171875 -0.3125 0.46875 -0.484375q0.296875 -0.1875 0.71875 -0.1875q0.515625 0 0.84375 0.21875q0.34375 0.21875 0.546875 0.609375l0 3.140625q-0.203125 0.375 -0.546875 0.609375q-0.328125 0.21875 -0.84375 0.21875q-0.421875 0 -0.71875 -0.171875q-0.296875 -0.1875 -0.484375 -0.5q-0.1875 -0.3125 -0.265625 -0.734375q-0.078125 -0.421875 -0.078125 -0.90625zm10.763977 3.921875q1.125 0 1.9375 -0.4375q0.828125 -0.4375 1.21875 -0.96875l-1.0 -1.078125q-0.34375 0.453125 -0.90625 0.671875q-0.546875 0.21875 -1.125 0.21875q-0.421875 0 -0.78125 -0.125q-0.34375 -0.125 -0.609375 -0.375q-0.265625 -0.21875 -0.421875 -0.5q-0.15625 -0.28125 -0.265625 -0.75l0 -0.03125l5.265625 0l0 -0.84375q0 -0.84375 -0.25 -1.546875q-0.234375 -0.703125 -0.671875 -1.203125q-0.46875 -0.5 -1.125 -0.78125q-0.65625 -0.28125 -1.484375 -0.28125q-0.8125 0 -1.5 0.296875q-0.6875 0.296875 -1.1875 0.828125q-0.5 0.53125 -0.78125 1.265625q-0.28125 0.734375 -0.28125 1.609375l0 0.296875q0 0.78125 0.28125 1.46875q0.28125 0.671875 0.8125 1.171875q0.515625 0.515625 1.25 0.8125q0.734375 0.28125 1.625 0.28125zm-0.234375 -6.421875q0.375 0 0.65625 0.125q0.296875 0.109375 0.5 0.3125q0.203125 0.21875 0.3125 0.5q0.125 0.265625 0.125 0.578125l0 0.171875l-3.265625 0q0.0625 -0.390625 0.203125 -0.6875q0.15625 -0.3125 0.359375 -0.53125q0.21875 -0.234375 0.484375 -0.34375q0.28125 -0.125 0.625 -0.125zm12.248291 2.484375l0 -0.140625q0 -0.703125 -0.125 -1.3125q-0.125 -0.625 -0.375 -1.125q-0.171875 -0.296875 -0.390625 -0.5625q-0.203125 -0.265625 -0.46875 -0.453125q-0.328125 -0.234375 -0.75 -0.359375q-0.421875 -0.140625 -0.921875 -0.140625q-0.359375 0 -0.671875 0.078125q-0.3125 0.078125 -0.578125 0.234375q-0.1875 0.09375 -0.359375 0.234375q-0.15625 0.140625 -0.296875 0.296875l0 -3.953125l-2.0 0l0 11.0l1.796875 0l0.09375 -0.828125q0.125 0.15625 0.25 0.296875q0.140625 0.125 0.296875 0.234375q0.296875 0.21875 0.65625 0.328125q0.375 0.109375 0.828125 0.109375q0.484375 0 0.890625 -0.125q0.421875 -0.125 0.75 -0.359375q0.375 -0.25 0.640625 -0.625q0.265625 -0.390625 0.421875 -0.84375q0.15625 -0.421875 0.234375 -0.921875q0.078125 -0.5 0.078125 -1.0625zm-1.984375 -0.140625l0 0.140625q0 0.296875 -0.03125 0.578125q-0.015625 0.28125 -0.078125 0.515625q-0.078125 0.328125 -0.21875 0.578125q-0.140625 0.25 -0.359375 0.421875q-0.15625 0.109375 -0.375 0.171875q-0.203125 0.0625 -0.46875 0.0625q-0.3125 0 -0.5625 -0.0625q-0.234375 -0.078125 -0.40625 -0.21875q-0.15625 -0.109375 -0.265625 -0.25q-0.109375 -0.140625 -0.1875 -0.328125l0 -3.078125q0.0625 -0.140625 0.140625 -0.25q0.078125 -0.125 0.171875 -0.21875q0.1875 -0.1875 0.453125 -0.28125q0.28125 -0.109375 0.640625 -0.109375q0.265625 0 0.46875 0.0625q0.203125 0.0625 0.375 0.171875q0.25 0.203125 0.375 0.4375q0.125 0.21875 0.203125 0.515625q0.0625 0.25 0.09375 0.546875q0.03125 0.28125 0.03125 0.59375zm8.857666 3.9375l1.796875 0l0 -7.75l-1.984375 0l0 5.4375q-0.09375 0.1875 -0.234375 0.34375q-0.125 0.140625 -0.28125 0.25q-0.203125 0.125 -0.453125 0.1875q-0.25 0.0625 -0.5625 0.0625q-0.359375 0 -0.609375 -0.078125q-0.234375 -0.09375 -0.390625 -0.296875q-0.140625 -0.1875 -0.21875 -0.5q-0.0625 -0.328125 -0.0625 -0.8125l0 -4.59375l-1.984375 0l0 4.59375q0 0.875 0.1875 1.5q0.203125 0.625 0.5625 1.03125q0.359375 0.40625 0.859375 0.59375q0.5 0.1875 1.09375 0.1875q0.65625 0 1.203125 -0.328125q0.5625 -0.34375 0.96875 -0.921875l0.109375 1.09375zm3.545166 -3.921875l0 0.140625q0 0.84375 0.21875 1.5625q0.21875 0.71875 0.625 1.25q0.40625 0.515625 0.984375 0.8125q0.578125 0.296875 1.296875 0.296875q0.359375 0 0.671875 -0.078125q0.328125 -0.078125 0.59375 -0.21875q0.171875 -0.09375 0.328125 -0.21875q0.171875 -0.140625 0.3125 -0.296875l0 0.4375q0 0.40625 -0.109375 0.71875q-0.109375 0.3125 -0.328125 0.53125q-0.21875 0.234375 -0.5625 0.34375q-0.34375 0.125 -0.78125 0.125q-0.265625 0 -0.53125 -0.0625q-0.25 -0.046875 -0.484375 -0.140625q-0.234375 -0.109375 -0.46875 -0.28125q-0.21875 -0.171875 -0.40625 -0.390625l-0.890625 1.203125q0.25 0.328125 0.59375 0.5625q0.34375 0.234375 0.75 0.375q0.390625 0.15625 0.78125 0.21875q0.40625 0.078125 0.765625 0.078125q0.8125 0 1.484375 -0.21875q0.671875 -0.21875 1.15625 -0.640625q0.484375 -0.421875 0.75 -1.046875q0.28125 -0.609375 0.28125 -1.390625l0 -7.5l-1.8125 0l-0.078125 0.75q-0.15625 -0.1875 -0.328125 -0.328125q-0.171875 -0.15625 -0.359375 -0.25q-0.265625 -0.15625 -0.59375 -0.234375q-0.328125 -0.078125 -0.71875 -0.078125q-0.734375 0 -1.3125 0.296875q-0.578125 0.28125 -0.984375 0.796875q-0.40625 0.53125 -0.625 1.265625q-0.21875 0.71875 -0.21875 1.609375zm2.0 0.140625l0 -0.140625q0 -0.5 0.09375 -0.921875q0.09375 -0.421875 0.3125 -0.75q0.1875 -0.3125 0.5 -0.484375q0.3125 -0.1875 0.734375 -0.1875q0.234375 0 0.421875 0.046875q0.203125 0.03125 0.359375 0.109375q0.203125 0.09375 0.34375 0.25q0.15625 0.15625 0.265625 0.34375l0 3.28125q-0.109375 0.1875 -0.25 0.328125q-0.125 0.140625 -0.3125 0.234375q-0.171875 0.09375 -0.390625 0.15625q-0.203125 0.046875 -0.453125 0.046875q-0.421875 0 -0.734375 -0.171875q-0.296875 -0.1875 -0.5 -0.5q-0.203125 -0.3125 -0.296875 -0.734375q-0.09375 -0.421875 -0.09375 -0.90625zm6.795227 -0.140625l0 0.140625q0 0.84375 0.21875 1.5625q0.21875 0.71875 0.625 1.25q0.40625 0.515625 0.984375 0.8125q0.578125 0.296875 1.296875 0.296875q0.359375 0 0.671875 -0.078125q0.328125 -0.078125 0.59375 -0.21875q0.171875 -0.09375 0.328125 -0.21875q0.171875 -0.140625 0.3125 -0.296875l0 0.4375q0 0.40625 -0.109375 0.71875q-0.109375 0.3125 -0.328125 0.53125q-0.21875 0.234375 -0.5625 0.34375q-0.34375 0.125 -0.78125 0.125q-0.265625 0 -0.53125 -0.0625q-0.25 -0.046875 -0.484375 -0.140625q-0.234375 -0.109375 -0.46875 -0.28125q-0.21875 -0.171875 -0.40625 -0.390625l-0.890625 1.203125q0.25 0.328125 0.59375 0.5625q0.34375 0.234375 0.75 0.375q0.390625 0.15625 0.78125 0.21875q0.40625 0.078125 0.765625 0.078125q0.8125 0 1.484375 -0.21875q0.671875 -0.21875 1.15625 -0.640625q0.484375 -0.421875 0.75 -1.046875q0.28125 -0.609375 0.28125 -1.390625l0 -7.5l-1.8125 0l-0.078125 0.75q-0.15625 -0.1875 -0.328125 -0.328125q-0.171875 -0.15625 -0.359375 -0.25q-0.265625 -0.15625 -0.59375 -0.234375q-0.328125 -0.078125 -0.71875 -0.078125q-0.734375 0 -1.3125 0.296875q-0.578125 0.28125 -0.984375 0.796875q-0.40625 0.53125 -0.625 1.265625q-0.21875 0.71875 -0.21875 1.609375zm2.0 0.140625l0 -0.140625q0 -0.5 0.09375 -0.921875q0.09375 -0.421875 0.3125 -0.75q0.1875 -0.3125 0.5 -0.484375q0.3125 -0.1875 0.734375 -0.1875q0.234375 0 0.421875 0.046875q0.203125 0.03125 0.359375 0.109375q0.203125 0.09375 0.34375 0.25q0.15625 0.15625 0.265625 0.34375l0 3.28125q-0.109375 0.1875 -0.25 0.328125q-0.125 0.140625 -0.3125 0.234375q-0.171875 0.09375 -0.390625 0.15625q-0.203125 0.046875 -0.453125 0.046875q-0.421875 0 -0.734375 -0.171875q-0.296875 -0.1875 -0.5 -0.5q-0.203125 -0.3125 -0.296875 -0.734375q-0.09375 -0.421875 -0.09375 -0.90625zm7.513916 -3.96875l0 1.625l2.21875 0l0 4.5l-2.21875 0l0 1.625l6.3125 0l0 -1.625l-2.09375 0l0 -6.125l-4.21875 0zm2.0625 -1.96875q0 0.21875 0.078125 0.421875q0.09375 0.1875 0.25 0.328125q0.140625 0.140625 0.34375 0.21875q0.21875 0.078125 0.484375 0.078125q0.53125 0 0.828125 -0.296875q0.3125 -0.296875 0.3125 -0.75q0 -0.46875 -0.3125 -0.765625q-0.296875 -0.296875 -0.828125 -0.296875q-0.265625 0 -0.484375 0.078125q-0.203125 0.078125 -0.34375 0.21875q-0.15625 0.140625 -0.25 0.34375q-0.078125 0.1875 -0.078125 0.421875zm6.217041 9.71875l1.984375 0l0 -5.5q0.109375 -0.15625 0.21875 -0.28125q0.125 -0.140625 0.28125 -0.234375q0.1875 -0.125 0.421875 -0.1875q0.25 -0.0625 0.53125 -0.0625q0.34375 0 0.609375 0.0625q0.28125 0.0625 0.46875 0.234375q0.1875 0.171875 0.296875 0.46875q0.109375 0.296875 0.109375 0.765625l0 4.734375l1.984375 0l0 -4.765625q0 -0.84375 -0.203125 -1.4375q-0.1875 -0.59375 -0.546875 -0.96875q-0.359375 -0.375 -0.84375 -0.546875q-0.484375 -0.171875 -1.0625 -0.171875q-0.46875 0 -0.875 0.140625q-0.40625 0.125 -0.75 0.359375q-0.203125 0.140625 -0.390625 0.328125q-0.171875 0.171875 -0.3125 0.390625l-0.125 -1.078125l-1.796875 0l0 7.75zm8.592041 -3.921875l0 0.140625q0 0.84375 0.21875 1.5625q0.21875 0.71875 0.625 1.25q0.40625 0.515625 0.984375 0.8125q0.578125 0.296875 1.296875 0.296875q0.359375 0 0.671875 -0.078125q0.328125 -0.078125 0.59375 -0.21875q0.171875 -0.09375 0.328125 -0.21875q0.171875 -0.140625 0.3125 -0.296875l0 0.4375q0 0.40625 -0.109375 0.71875q-0.109375 0.3125 -0.328125 0.53125q-0.21875 0.234375 -0.5625 0.34375q-0.34375 0.125 -0.78125 0.125q-0.265625 0 -0.53125 -0.0625q-0.25 -0.046875 -0.484375 -0.140625q-0.234375 -0.109375 -0.46875 -0.28125q-0.21875 -0.171875 -0.40625 -0.390625l-0.890625 1.203125q0.25 0.328125 0.59375 0.5625q0.34375 0.234375 0.75 0.375q0.390625 0.15625 0.78125 0.21875q0.40625 0.078125 0.765625 0.078125q0.8125 0 1.484375 -0.21875q0.671875 -0.21875 1.15625 -0.640625q0.484375 -0.421875 0.75 -1.046875q0.28125 -0.609375 0.28125 -1.390625l0 -7.5l-1.8125 0l-0.078125 0.75q-0.15625 -0.1875 -0.328125 -0.328125q-0.171875 -0.15625 -0.359375 -0.25q-0.265625 -0.15625 -0.59375 -0.234375q-0.328125 -0.078125 -0.71875 -0.078125q-0.734375 0 -1.3125 0.296875q-0.578125 0.28125 -0.984375 0.796875q-0.40625 0.53125 -0.625 1.265625q-0.21875 0.71875 -0.21875 1.609375zm2.0 0.140625l0 -0.140625q0 -0.5 0.09375 -0.921875q0.09375 -0.421875 0.3125 -0.75q0.1875 -0.3125 0.5 -0.484375q0.3125 -0.1875 0.734375 -0.1875q0.234375 0 0.421875 0.046875q0.203125 0.03125 0.359375 0.109375q0.203125 0.09375 0.34375 0.25q0.15625 0.15625 0.265625 0.34375l0 3.28125q-0.109375 0.1875 -0.25 0.328125q-0.125 0.140625 -0.3125 0.234375q-0.171875 0.09375 -0.390625 0.15625q-0.203125 0.046875 -0.453125 0.046875q-0.421875 0 -0.734375 -0.171875q-0.296875 -0.1875 -0.5 -0.5q-0.203125 -0.3125 -0.296875 -0.734375q-0.09375 -0.421875 -0.09375 -0.90625z" fill-rule="nonzero"/><path fill="#000000" fill-opacity="0.0" d="m541.7113 353.3097l-25.700806 0l0 131.874l-25.700775 0" fill-rule="evenodd"/><path stroke="#000000" stroke-width="2.0" stroke-linejoin="round" stroke-linecap="butt" d="m541.7113 353.30966l-25.700806 0l0 131.87402l-13.700775 0" fill-rule="evenodd"/><path fill="#000000" stroke="#000000" stroke-width="2.0" stroke-linecap="butt" d="m502.30972 481.88022l-9.076202 3.3034668l9.076202 3.3034668z" fill-rule="evenodd"/></g></svg>